G04 DipTrace 3.2.0.1*
G04 BottomSilk.gbr*
%MOIN*%
G04 #@! TF.FileFunction,Legend,Bot*
G04 #@! TF.Part,Single*
%ADD13C,0.002625*%
%ADD15C,0.007874*%
%ADD18C,0.19685*%
%ADD19C,0.03937*%
%FSLAX26Y26*%
G04*
G70*
G90*
G75*
G01*
G04 BotSilk*
%LPD*%
X-133858Y39370D2*
D15*
G02X-133858Y39370I133858J0D01*
G01*
X-173228D2*
G02X-173228Y39370I173228J0D01*
G01*
X-212598D2*
G02X-212598Y39370I212598J0D01*
G01*
D18*
X0D3*
X-259843D2*
D19*
G02X-259843Y39370I259843J0D01*
G01*
X-275591D2*
D15*
G02X-275591Y39370I275591J0D01*
G01*
X-200000Y-296850D2*
X202362D1*
Y-385039D1*
X-200000D1*
Y-296850D1*
X-239084Y-248580D2*
D13*
X-222024D1*
X-210213D2*
X-204963D1*
X-182654D2*
X-178717D1*
X-162969D2*
X-147220D1*
X-241761Y-249892D2*
X-222024D1*
X-210213D2*
X-204963D1*
X-183966D2*
X-178717D1*
X-163579D2*
X-144253D1*
X-243984Y-251205D2*
X-222024D1*
X-210213D2*
X-204963D1*
X-185278D2*
X-178717D1*
X-163985D2*
X-141842D1*
X-245698Y-252517D2*
X-238776D1*
X-225961D2*
X-222024D1*
X-210213D2*
X-204963D1*
X-186591D2*
X-178717D1*
X-164281D2*
X-161656D1*
X-149099D2*
X-140072D1*
X-247021Y-253829D2*
X-240683D1*
X-225961D2*
X-222024D1*
X-210213D2*
X-204963D1*
X-187903D2*
X-178717D1*
X-146425D2*
X-138828D1*
X-248077Y-255142D2*
X-242074D1*
X-225961D2*
X-222024D1*
X-210213D2*
X-204963D1*
X-189215D2*
X-178717D1*
X-144594D2*
X-137939D1*
X-248822Y-256454D2*
X-243090D1*
X-225961D2*
X-222024D1*
X-210213D2*
X-204963D1*
X-190528D2*
X-178717D1*
X-143364D2*
X-137292D1*
X-249287Y-257766D2*
X-243900D1*
X-225961D2*
X-222024D1*
X-210213D2*
X-204963D1*
X-191840D2*
X-178717D1*
X-142462D2*
X-136785D1*
X-249658Y-259079D2*
X-244573D1*
X-225961D2*
X-222024D1*
X-210213D2*
X-204963D1*
X-193152D2*
X-186591D1*
X-183966D2*
X-178717D1*
X-141753D2*
X-136306D1*
X-250060Y-260391D2*
X-245081D1*
X-225961D2*
X-222024D1*
X-210213D2*
X-204963D1*
X-194465D2*
X-187903D1*
X-183966D2*
X-178717D1*
X-141230D2*
X-135898D1*
X-250432Y-261703D2*
X-245385D1*
X-225961D2*
X-222024D1*
X-210213D2*
X-204963D1*
X-195777D2*
X-189215D1*
X-183966D2*
X-178717D1*
X-140922D2*
X-135640D1*
X-250674Y-263016D2*
X-245536D1*
X-225961D2*
X-222024D1*
X-210213D2*
X-204963D1*
X-197089D2*
X-190528D1*
X-183966D2*
X-178717D1*
X-140769D2*
X-135508D1*
X-250800Y-264328D2*
X-245603D1*
X-225961D2*
X-222024D1*
X-210213D2*
X-204958D1*
X-198407D2*
X-191840D1*
X-183966D2*
X-178717D1*
X-140702D2*
X-135448D1*
X-250857Y-265640D2*
X-245630D1*
X-225961D2*
X-222024D1*
X-210213D2*
X-204908D1*
X-199769D2*
X-193152D1*
X-183966D2*
X-178717D1*
X-165593D2*
X-152470D1*
X-140675D2*
X-135424D1*
X-250881Y-266953D2*
X-245640D1*
X-225961D2*
X-222024D1*
X-210213D2*
X-204705D1*
X-201284D2*
X-194465D1*
X-183966D2*
X-178717D1*
X-165593D2*
X-152470D1*
X-140664D2*
X-135415D1*
X-250885Y-268265D2*
X-245639D1*
X-225961D2*
X-222024D1*
X-210213D2*
X-204257D1*
X-203045D2*
X-195777D1*
X-183966D2*
X-178717D1*
X-165593D2*
X-152470D1*
X-140661D2*
X-135411D1*
X-250842Y-269577D2*
X-245594D1*
X-225961D2*
X-222024D1*
X-210213D2*
X-197089D1*
X-183966D2*
X-178717D1*
X-165593D2*
X-161656D1*
X-140665D2*
X-135415D1*
X-250676Y-270890D2*
X-245427D1*
X-225961D2*
X-222024D1*
X-210213D2*
X-198402D1*
X-183966D2*
X-178717D1*
X-165593D2*
X-161656D1*
X-140710D2*
X-135461D1*
X-250357Y-272202D2*
X-245108D1*
X-225961D2*
X-222024D1*
X-210213D2*
X-199714D1*
X-183966D2*
X-178717D1*
X-165593D2*
X-161656D1*
X-140877D2*
X-135628D1*
X-249974Y-273514D2*
X-244725D1*
X-225961D2*
X-222024D1*
X-210213D2*
X-201021D1*
X-183966D2*
X-178717D1*
X-165593D2*
X-161656D1*
X-141197D2*
X-135947D1*
X-249573Y-274827D2*
X-244319D1*
X-225961D2*
X-222024D1*
X-210213D2*
X-202282D1*
X-183966D2*
X-178717D1*
X-165593D2*
X-161656D1*
X-141584D2*
X-136330D1*
X-249086Y-276139D2*
X-243780D1*
X-225966D2*
X-222024D1*
X-210213D2*
X-203376D1*
X-183966D2*
X-178717D1*
X-165593D2*
X-161651D1*
X-142037D2*
X-136731D1*
X-248475Y-277451D2*
X-243095D1*
X-226053D2*
X-222024D1*
X-210213D2*
X-204156D1*
X-183966D2*
X-178717D1*
X-165593D2*
X-161554D1*
X-142610D2*
X-137219D1*
X-247691Y-278764D2*
X-241690D1*
X-226284D2*
X-222024D1*
X-210213D2*
X-204599D1*
X-183966D2*
X-178717D1*
X-165593D2*
X-161292D1*
X-143899D2*
X-137834D1*
X-246680Y-280076D2*
X-238072D1*
X-227864D2*
X-222039D1*
X-210213D2*
X-204813D1*
X-183966D2*
X-178717D1*
X-165573D2*
X-159404D1*
X-147735D2*
X-138670D1*
X-245423Y-281388D2*
X-232612D1*
X-232372D2*
X-222189D1*
X-210213D2*
X-204905D1*
X-183966D2*
X-178717D1*
X-165511D2*
X-153873D1*
X-153929D2*
X-139888D1*
X-243774Y-282701D2*
X-222547D1*
X-210213D2*
X-204942D1*
X-183966D2*
X-178717D1*
X-164896D2*
X-141573D1*
X-241593Y-284013D2*
X-224081D1*
X-210213D2*
X-204956D1*
X-183966D2*
X-178717D1*
X-162851D2*
X-143654D1*
X-239084Y-285325D2*
X-225961D1*
X-210213D2*
X-204963D1*
X-183966D2*
X-178717D1*
X-160344D2*
X-145908D1*
X-103257Y-249367D2*
X-86197D1*
X-62575D2*
X-45514D1*
X-37640D2*
X-32391D1*
X-8769D2*
X-3520D1*
X-105934Y-250680D2*
X-86197D1*
X-65252D2*
X-45514D1*
X-37438D2*
X-32386D1*
X-9578D2*
X-4328D1*
X-108157Y-251992D2*
X-86197D1*
X-67475D2*
X-45514D1*
X-37112D2*
X-32340D1*
X-10285D2*
X-5036D1*
X-109871Y-253304D2*
X-102949D1*
X-90134D2*
X-86197D1*
X-69189D2*
X-62267D1*
X-49451D2*
X-45514D1*
X-36767D2*
X-32173D1*
X-10862D2*
X-5612D1*
X-111195Y-254617D2*
X-104856D1*
X-90134D2*
X-86197D1*
X-70512D2*
X-64173D1*
X-49451D2*
X-45514D1*
X-36491D2*
X-31853D1*
X-11343D2*
X-6094D1*
X-112250Y-255929D2*
X-106247D1*
X-90134D2*
X-86197D1*
X-71568D2*
X-65565D1*
X-49451D2*
X-45514D1*
X-36202D2*
X-31471D1*
X-11819D2*
X-6570D1*
X-112995Y-257241D2*
X-107264D1*
X-90134D2*
X-86197D1*
X-72312D2*
X-66581D1*
X-49451D2*
X-45514D1*
X-35827D2*
X-31074D1*
X-12270D2*
X-7021D1*
X-113461Y-258554D2*
X-108074D1*
X-90134D2*
X-86197D1*
X-72778D2*
X-67391D1*
X-49451D2*
X-45514D1*
X-35421D2*
X-30638D1*
X-12699D2*
X-7450D1*
X-113831Y-259866D2*
X-108746D1*
X-90134D2*
X-86197D1*
X-73149D2*
X-68064D1*
X-49451D2*
X-45514D1*
X-35016D2*
X-30241D1*
X-13192D2*
X-7943D1*
X-114233Y-261178D2*
X-109255D1*
X-90134D2*
X-86197D1*
X-73551D2*
X-68572D1*
X-49451D2*
X-45514D1*
X-34572D2*
X-29943D1*
X-13755D2*
X-8506D1*
X-114605Y-262491D2*
X-109558D1*
X-90134D2*
X-86197D1*
X-73923D2*
X-68876D1*
X-49451D2*
X-45514D1*
X-34133D2*
X-29640D1*
X-14328D2*
X-9078D1*
X-114847Y-263803D2*
X-109709D1*
X-90134D2*
X-86197D1*
X-74165D2*
X-69027D1*
X-49451D2*
X-45514D1*
X-33713D2*
X-29221D1*
X-14841D2*
X-9592D1*
X-114973Y-265115D2*
X-109776D1*
X-90134D2*
X-86197D1*
X-74291D2*
X-69094D1*
X-49451D2*
X-45514D1*
X-33263D2*
X-28693D1*
X-15296D2*
X-10052D1*
X-115031Y-266428D2*
X-109803D1*
X-90134D2*
X-86197D1*
X-74348D2*
X-69121D1*
X-49451D2*
X-45514D1*
X-32821D2*
X-28135D1*
X-15762D2*
X-10559D1*
X-115054Y-267740D2*
X-109813D1*
X-90134D2*
X-86197D1*
X-74372D2*
X-69131D1*
X-49451D2*
X-45514D1*
X-32396D2*
X-27628D1*
X-16209D2*
X-11127D1*
X-115058Y-269052D2*
X-109812D1*
X-90134D2*
X-86197D1*
X-74376D2*
X-69129D1*
X-49451D2*
X-45514D1*
X-31905D2*
X-27170D1*
X-16637D2*
X-11702D1*
X-115015Y-270365D2*
X-109767D1*
X-90134D2*
X-86197D1*
X-74333D2*
X-69085D1*
X-49451D2*
X-45514D1*
X-31342D2*
X-26664D1*
X-17129D2*
X-12216D1*
X-114849Y-271677D2*
X-109600D1*
X-90134D2*
X-86197D1*
X-74167D2*
X-68918D1*
X-49451D2*
X-45514D1*
X-30769D2*
X-26091D1*
X-17692D2*
X-12672D1*
X-114530Y-272990D2*
X-109281D1*
X-90134D2*
X-86197D1*
X-73848D2*
X-68598D1*
X-49451D2*
X-45514D1*
X-30256D2*
X-25475D1*
X-18265D2*
X-13137D1*
X-114148Y-274302D2*
X-108898D1*
X-90134D2*
X-86197D1*
X-73465D2*
X-68216D1*
X-49451D2*
X-45514D1*
X-29795D2*
X-24840D1*
X-18778D2*
X-13585D1*
X-113746Y-275614D2*
X-108492D1*
X-90134D2*
X-86197D1*
X-73064D2*
X-67810D1*
X-49451D2*
X-45514D1*
X-29289D2*
X-24232D1*
X-19239D2*
X-14012D1*
X-113259Y-276927D2*
X-107953D1*
X-90139D2*
X-86197D1*
X-72577D2*
X-67271D1*
X-49457D2*
X-45514D1*
X-28715D2*
X-23699D1*
X-19749D2*
X-14504D1*
X-112649Y-278239D2*
X-107268D1*
X-90226D2*
X-86197D1*
X-71966D2*
X-66586D1*
X-49544D2*
X-45514D1*
X-28100D2*
X-23202D1*
X-20357D2*
X-15067D1*
X-111864Y-279551D2*
X-105864D1*
X-90457D2*
X-86197D1*
X-71181D2*
X-65181D1*
X-49774D2*
X-45514D1*
X-27459D2*
X-22597D1*
X-21081D2*
X-15640D1*
X-110854Y-280864D2*
X-102245D1*
X-92037D2*
X-86212D1*
X-70171D2*
X-61563D1*
X-51355D2*
X-45530D1*
X-26811D2*
X-16154D1*
X-109597Y-282176D2*
X-96785D1*
X-96545D2*
X-86362D1*
X-68914D2*
X-56102D1*
X-55863D2*
X-45680D1*
X-26160D2*
X-16610D1*
X-107947Y-283488D2*
X-86720D1*
X-67265D2*
X-46037D1*
X-25540D2*
X-17081D1*
X-105766Y-284801D2*
X-88254D1*
X-65083D2*
X-47571D1*
X-24993D2*
X-17539D1*
X-103257Y-286113D2*
X-90134D1*
X-62575D2*
X-49451D1*
X-24517D2*
X-17955D1*
X14459Y-248974D2*
X44643D1*
X52517D2*
X57766D1*
X76139D2*
X81388D1*
X102386D2*
X112885D1*
X14459Y-250286D2*
X44643D1*
X52517D2*
X57766D1*
X76139D2*
X81388D1*
X99867D2*
X115403D1*
X14459Y-251598D2*
X44643D1*
X52517D2*
X57766D1*
X76139D2*
X81388D1*
X97847D2*
X117423D1*
X27583Y-252911D2*
X32832D1*
X52517D2*
X57766D1*
X76139D2*
X81388D1*
X96326D2*
X103961D1*
X111309D2*
X118945D1*
X27583Y-254223D2*
X32832D1*
X52517D2*
X57766D1*
X76139D2*
X81388D1*
X95210D2*
X101928D1*
X113343D2*
X120066D1*
X27583Y-255535D2*
X32832D1*
X52517D2*
X57766D1*
X76139D2*
X81388D1*
X94379D2*
X100348D1*
X114922D2*
X120938D1*
X27583Y-256848D2*
X32832D1*
X52517D2*
X57766D1*
X76139D2*
X81388D1*
X93756D2*
X99188D1*
X116082D2*
X121682D1*
X27583Y-258160D2*
X32832D1*
X52517D2*
X57766D1*
X76139D2*
X81388D1*
X93258D2*
X98339D1*
X116932D2*
X122327D1*
X27583Y-259472D2*
X32832D1*
X52517D2*
X57766D1*
X76139D2*
X81388D1*
X92782D2*
X97751D1*
X117519D2*
X122825D1*
X27583Y-260785D2*
X32832D1*
X52517D2*
X57766D1*
X76139D2*
X81388D1*
X92375D2*
X97416D1*
X117854D2*
X123124D1*
X27583Y-262097D2*
X32832D1*
X52517D2*
X57766D1*
X76139D2*
X81388D1*
X92118D2*
X97253D1*
X118018D2*
X123274D1*
X27583Y-263409D2*
X32832D1*
X52517D2*
X57766D1*
X76139D2*
X81388D1*
X91985D2*
X97182D1*
X118089D2*
X123341D1*
X27583Y-264722D2*
X32832D1*
X52517D2*
X57766D1*
X76139D2*
X81388D1*
X91926D2*
X97153D1*
X118117D2*
X123367D1*
X27583Y-266034D2*
X32832D1*
X52517D2*
X57766D1*
X76139D2*
X81388D1*
X91902D2*
X97142D1*
X118128D2*
X123378D1*
X27583Y-267346D2*
X32832D1*
X52517D2*
X57766D1*
X76139D2*
X81388D1*
X91892D2*
X97138D1*
X118132D2*
X123381D1*
X27583Y-268659D2*
X32832D1*
X52517D2*
X57766D1*
X76139D2*
X81388D1*
X91889D2*
X97137D1*
X118133D2*
X123383D1*
X27583Y-269971D2*
X32832D1*
X52517D2*
X57766D1*
X76139D2*
X81388D1*
X91893D2*
X97137D1*
X118134D2*
X123383D1*
X27583Y-271283D2*
X32832D1*
X52517D2*
X57766D1*
X76139D2*
X81388D1*
X91939D2*
X97142D1*
X118129D2*
X123378D1*
X27583Y-272596D2*
X32832D1*
X52517D2*
X57766D1*
X76134D2*
X81383D1*
X92106D2*
X97188D1*
X118083D2*
X123332D1*
X27583Y-273908D2*
X32832D1*
X52517D2*
X57766D1*
X76088D2*
X81337D1*
X92425D2*
X97360D1*
X117910D2*
X123160D1*
X27583Y-275220D2*
X32832D1*
X52517D2*
X57766D1*
X75915D2*
X81165D1*
X92808D2*
X97726D1*
X117545D2*
X122799D1*
X27583Y-276533D2*
X32832D1*
X52517D2*
X57772D1*
X75545D2*
X80804D1*
X93209D2*
X98286D1*
X116985D2*
X122290D1*
X27583Y-277845D2*
X32832D1*
X52517D2*
X57864D1*
X74898D2*
X80296D1*
X93696D2*
X99124D1*
X116146D2*
X121696D1*
X27583Y-279157D2*
X32832D1*
X52517D2*
X58110D1*
X73973D2*
X79696D1*
X94307D2*
X100252D1*
X115018D2*
X121019D1*
X27583Y-280470D2*
X32832D1*
X52517D2*
X59844D1*
X70491D2*
X78968D1*
X95102D2*
X103196D1*
X112074D2*
X120192D1*
X27583Y-281782D2*
X32832D1*
X52517D2*
X64864D1*
X64831D2*
X77933D1*
X96202D2*
X107581D1*
X107689D2*
X119078D1*
X27583Y-283094D2*
X32832D1*
X52517D2*
X76391D1*
X97764D2*
X117510D1*
X27583Y-284407D2*
X32832D1*
X52517D2*
X74397D1*
X99903D2*
X115369D1*
X27583Y-285719D2*
X32832D1*
X59079D2*
X72202D1*
X102386D2*
X112885D1*
X162491Y-248974D2*
X179551D1*
X191362D2*
X213672D1*
X237294D2*
X242543D1*
X159814Y-250286D2*
X179551D1*
X191362D2*
X213672D1*
X237294D2*
X242543D1*
X157591Y-251598D2*
X179551D1*
X191362D2*
X213672D1*
X237294D2*
X242543D1*
X155877Y-252911D2*
X162799D1*
X175614D2*
X179551D1*
X208423D2*
X213672D1*
X237294D2*
X242543D1*
X154553Y-254223D2*
X160892D1*
X175614D2*
X179551D1*
X208423D2*
X213672D1*
X237294D2*
X242543D1*
X153498Y-255535D2*
X159501D1*
X175614D2*
X179551D1*
X208423D2*
X213672D1*
X237294D2*
X242543D1*
X152753Y-256848D2*
X158484D1*
X175614D2*
X179551D1*
X208423D2*
X213672D1*
X237294D2*
X242543D1*
X152287Y-258160D2*
X157674D1*
X175614D2*
X179551D1*
X208423D2*
X213672D1*
X237294D2*
X242543D1*
X151917Y-259472D2*
X157002D1*
X175614D2*
X179551D1*
X208423D2*
X213672D1*
X237294D2*
X242543D1*
X151515Y-260785D2*
X156493D1*
X175614D2*
X179551D1*
X208423D2*
X213672D1*
X237294D2*
X242543D1*
X151143Y-262097D2*
X156190D1*
X175614D2*
X179551D1*
X208423D2*
X213672D1*
X237294D2*
X242543D1*
X150901Y-263409D2*
X156039D1*
X175614D2*
X179551D1*
X208423D2*
X213672D1*
X237294D2*
X242543D1*
X150775Y-264722D2*
X155972D1*
X175614D2*
X179551D1*
X208423D2*
X213672D1*
X237294D2*
X242543D1*
X150717Y-266034D2*
X155945D1*
X175614D2*
X179551D1*
X192675D2*
X213672D1*
X237294D2*
X242543D1*
X150694Y-267346D2*
X155935D1*
X175614D2*
X179551D1*
X192675D2*
X213672D1*
X237294D2*
X242543D1*
X150690Y-268659D2*
X155936D1*
X175614D2*
X179551D1*
X192675D2*
X213672D1*
X237294D2*
X242543D1*
X150733Y-269971D2*
X155981D1*
X175614D2*
X179551D1*
X208423D2*
X213672D1*
X237294D2*
X242543D1*
X150899Y-271283D2*
X156148D1*
X175614D2*
X179551D1*
X208423D2*
X213672D1*
X237294D2*
X242543D1*
X151218Y-272596D2*
X156467D1*
X175614D2*
X179551D1*
X208423D2*
X213672D1*
X237294D2*
X242543D1*
X151600Y-273908D2*
X156850D1*
X175614D2*
X179551D1*
X208423D2*
X213667D1*
X237294D2*
X242543D1*
X152002Y-275220D2*
X157256D1*
X175614D2*
X179551D1*
X208417D2*
X213621D1*
X237294D2*
X242543D1*
X152489Y-276533D2*
X157795D1*
X175609D2*
X179551D1*
X208366D2*
X213453D1*
X237294D2*
X242543D1*
X153100Y-277845D2*
X158480D1*
X175522D2*
X179551D1*
X208148D2*
X213134D1*
X237294D2*
X242543D1*
X153884Y-279157D2*
X159884D1*
X175291D2*
X179551D1*
X207615D2*
X212746D1*
X237294D2*
X242543D1*
X154894Y-280470D2*
X163503D1*
X173711D2*
X179536D1*
X206747D2*
X212294D1*
X237294D2*
X242543D1*
X156151Y-281782D2*
X168963D1*
X169203D2*
X179386D1*
X205659D2*
X211589D1*
X237294D2*
X242543D1*
X157801Y-283094D2*
X179028D1*
X190050D2*
X210463D1*
X221546D2*
X242543D1*
X159982Y-284407D2*
X177494D1*
X190050D2*
X208902D1*
X221546D2*
X242543D1*
X162491Y-285719D2*
X175614D1*
X190050D2*
X207110D1*
X221546D2*
X242543D1*
X-239084Y-248580D2*
X-241761Y-249892D1*
X-243984Y-251205D1*
X-245698Y-252517D1*
X-247021Y-253829D1*
X-248077Y-255142D1*
X-248822Y-256454D1*
X-249287Y-257766D1*
X-249658Y-259079D1*
X-250060Y-260391D1*
X-250432Y-261703D1*
X-250674Y-263016D1*
X-250800Y-264328D1*
X-250857Y-265640D1*
X-250881Y-266953D1*
X-250885Y-268265D1*
X-250842Y-269577D1*
X-250676Y-270890D1*
X-250357Y-272202D1*
X-249974Y-273514D1*
X-249573Y-274827D1*
X-249086Y-276139D1*
X-248475Y-277451D1*
X-247691Y-278764D1*
X-246680Y-280076D1*
X-245423Y-281388D1*
X-243774Y-282701D1*
X-241593Y-284013D1*
X-239084Y-285325D1*
X-222024Y-248580D2*
Y-249892D1*
Y-251205D1*
Y-252517D1*
Y-253829D1*
Y-255142D1*
Y-256454D1*
Y-257766D1*
Y-259079D1*
Y-260391D1*
Y-261703D1*
Y-263016D1*
Y-264328D1*
Y-265640D1*
Y-266953D1*
Y-268265D1*
Y-269577D1*
Y-270890D1*
Y-272202D1*
Y-273514D1*
Y-274827D1*
Y-276139D1*
Y-277451D1*
Y-278764D1*
X-222039Y-280076D1*
X-222189Y-281388D1*
X-222547Y-282701D1*
X-224081Y-284013D1*
X-225961Y-285325D1*
X-210213Y-248580D2*
Y-249892D1*
Y-251205D1*
Y-252517D1*
Y-253829D1*
Y-255142D1*
Y-256454D1*
Y-257766D1*
Y-259079D1*
Y-260391D1*
Y-261703D1*
Y-263016D1*
Y-264328D1*
Y-265640D1*
Y-266953D1*
Y-268265D1*
Y-269577D1*
Y-270890D1*
Y-272202D1*
Y-273514D1*
Y-274827D1*
Y-276139D1*
Y-277451D1*
Y-278764D1*
Y-280076D1*
Y-281388D1*
Y-282701D1*
Y-284013D1*
Y-285325D1*
X-204963Y-248580D2*
Y-249892D1*
Y-251205D1*
Y-252517D1*
Y-253829D1*
Y-255142D1*
Y-256454D1*
Y-257766D1*
Y-259079D1*
Y-260391D1*
Y-261703D1*
Y-263016D1*
X-204958Y-264328D1*
X-204908Y-265640D1*
X-204705Y-266953D1*
X-204257Y-268265D1*
X-203651Y-269577D1*
X-182654Y-248580D2*
X-183966Y-249892D1*
X-185278Y-251205D1*
X-186591Y-252517D1*
X-187903Y-253829D1*
X-189215Y-255142D1*
X-190528Y-256454D1*
X-191840Y-257766D1*
X-193152Y-259079D1*
X-194465Y-260391D1*
X-195777Y-261703D1*
X-197089Y-263016D1*
X-198407Y-264328D1*
X-199769Y-265640D1*
X-201284Y-266953D1*
X-203045Y-268265D1*
X-204963Y-269577D1*
X-178717Y-248580D2*
Y-249892D1*
Y-251205D1*
Y-252517D1*
Y-253829D1*
Y-255142D1*
Y-256454D1*
Y-257766D1*
Y-259079D1*
Y-260391D1*
Y-261703D1*
Y-263016D1*
Y-264328D1*
Y-265640D1*
Y-266953D1*
Y-268265D1*
Y-269577D1*
Y-270890D1*
Y-272202D1*
Y-273514D1*
Y-274827D1*
Y-276139D1*
Y-277451D1*
Y-278764D1*
Y-280076D1*
Y-281388D1*
Y-282701D1*
Y-284013D1*
Y-285325D1*
X-162969Y-248580D2*
X-163579Y-249892D1*
X-163985Y-251205D1*
X-164281Y-252517D1*
X-147220Y-248580D2*
X-144253Y-249892D1*
X-141842Y-251205D1*
X-140072Y-252517D1*
X-138828Y-253829D1*
X-137939Y-255142D1*
X-137292Y-256454D1*
X-136785Y-257766D1*
X-136306Y-259079D1*
X-135898Y-260391D1*
X-135640Y-261703D1*
X-135508Y-263016D1*
X-135448Y-264328D1*
X-135424Y-265640D1*
X-135415Y-266953D1*
X-135411Y-268265D1*
X-135415Y-269577D1*
X-135461Y-270890D1*
X-135628Y-272202D1*
X-135947Y-273514D1*
X-136330Y-274827D1*
X-136731Y-276139D1*
X-137219Y-277451D1*
X-137834Y-278764D1*
X-138670Y-280076D1*
X-139888Y-281388D1*
X-141573Y-282701D1*
X-143654Y-284013D1*
X-145908Y-285325D1*
X-236459Y-251205D2*
X-238776Y-252517D1*
X-240683Y-253829D1*
X-242074Y-255142D1*
X-243090Y-256454D1*
X-243900Y-257766D1*
X-244573Y-259079D1*
X-245081Y-260391D1*
X-245385Y-261703D1*
X-245536Y-263016D1*
X-245603Y-264328D1*
X-245630Y-265640D1*
X-245640Y-266953D1*
X-245639Y-268265D1*
X-245594Y-269577D1*
X-245427Y-270890D1*
X-245108Y-272202D1*
X-244725Y-273514D1*
X-244319Y-274827D1*
X-243780Y-276139D1*
X-243095Y-277451D1*
X-241690Y-278764D1*
X-238072Y-280076D1*
X-232612Y-281388D1*
X-225961Y-282701D1*
Y-251205D2*
Y-252517D1*
Y-253829D1*
Y-255142D1*
Y-256454D1*
Y-257766D1*
Y-259079D1*
Y-260391D1*
Y-261703D1*
Y-263016D1*
Y-264328D1*
Y-265640D1*
Y-266953D1*
Y-268265D1*
Y-269577D1*
Y-270890D1*
Y-272202D1*
Y-273514D1*
Y-274827D1*
X-225966Y-276139D1*
X-226053Y-277451D1*
X-226284Y-278764D1*
X-227864Y-280076D1*
X-232372Y-281388D1*
X-237772Y-282701D1*
X-160344Y-251205D2*
X-161656Y-252517D1*
X-152470Y-251205D2*
X-149099Y-252517D1*
X-146425Y-253829D1*
X-144594Y-255142D1*
X-143364Y-256454D1*
X-142462Y-257766D1*
X-141753Y-259079D1*
X-141230Y-260391D1*
X-140922Y-261703D1*
X-140769Y-263016D1*
X-140702Y-264328D1*
X-140675Y-265640D1*
X-140664Y-266953D1*
X-140661Y-268265D1*
X-140665Y-269577D1*
X-140710Y-270890D1*
X-140877Y-272202D1*
X-141197Y-273514D1*
X-141584Y-274827D1*
X-142037Y-276139D1*
X-142610Y-277451D1*
X-143899Y-278764D1*
X-147735Y-280076D1*
X-153929Y-281388D1*
X-161656Y-282701D1*
X-185278Y-257766D2*
X-186591Y-259079D1*
X-187903Y-260391D1*
X-189215Y-261703D1*
X-190528Y-263016D1*
X-191840Y-264328D1*
X-193152Y-265640D1*
X-194465Y-266953D1*
X-195777Y-268265D1*
X-197089Y-269577D1*
X-198402Y-270890D1*
X-199714Y-272202D1*
X-201021Y-273514D1*
X-202282Y-274827D1*
X-203376Y-276139D1*
X-204156Y-277451D1*
X-204599Y-278764D1*
X-204813Y-280076D1*
X-204905Y-281388D1*
X-204942Y-282701D1*
X-204956Y-284013D1*
X-204963Y-285325D1*
X-183966Y-257766D2*
Y-259079D1*
Y-260391D1*
Y-261703D1*
Y-263016D1*
Y-264328D1*
Y-265640D1*
Y-266953D1*
Y-268265D1*
Y-269577D1*
Y-270890D1*
Y-272202D1*
Y-273514D1*
Y-274827D1*
Y-276139D1*
Y-277451D1*
Y-278764D1*
Y-280076D1*
Y-281388D1*
Y-282701D1*
Y-284013D1*
Y-285325D1*
X-165593Y-265640D2*
Y-266953D1*
Y-268265D1*
Y-269577D1*
Y-270890D1*
Y-272202D1*
Y-273514D1*
Y-274827D1*
Y-276139D1*
Y-277451D1*
Y-278764D1*
X-165573Y-280076D1*
X-165511Y-281388D1*
X-164896Y-282701D1*
X-162851Y-284013D1*
X-160344Y-285325D1*
X-152470Y-265640D2*
Y-266953D1*
Y-268265D1*
Y-269577D1*
X-161656D1*
Y-270890D1*
Y-272202D1*
Y-273514D1*
Y-274827D1*
X-161651Y-276139D1*
X-161554Y-277451D1*
X-161292Y-278764D1*
X-159404Y-280076D1*
X-153873Y-281388D1*
X-147220Y-282701D1*
X-103257Y-249367D2*
X-105934Y-250680D1*
X-108157Y-251992D1*
X-109871Y-253304D1*
X-111195Y-254617D1*
X-112250Y-255929D1*
X-112995Y-257241D1*
X-113461Y-258554D1*
X-113831Y-259866D1*
X-114233Y-261178D1*
X-114605Y-262491D1*
X-114847Y-263803D1*
X-114973Y-265115D1*
X-115031Y-266428D1*
X-115054Y-267740D1*
X-115058Y-269052D1*
X-115015Y-270365D1*
X-114849Y-271677D1*
X-114530Y-272990D1*
X-114148Y-274302D1*
X-113746Y-275614D1*
X-113259Y-276927D1*
X-112649Y-278239D1*
X-111864Y-279551D1*
X-110854Y-280864D1*
X-109597Y-282176D1*
X-107947Y-283488D1*
X-105766Y-284801D1*
X-103257Y-286113D1*
X-86197Y-249367D2*
Y-250680D1*
Y-251992D1*
Y-253304D1*
Y-254617D1*
Y-255929D1*
Y-257241D1*
Y-258554D1*
Y-259866D1*
Y-261178D1*
Y-262491D1*
Y-263803D1*
Y-265115D1*
Y-266428D1*
Y-267740D1*
Y-269052D1*
Y-270365D1*
Y-271677D1*
Y-272990D1*
Y-274302D1*
Y-275614D1*
Y-276927D1*
Y-278239D1*
Y-279551D1*
X-86212Y-280864D1*
X-86362Y-282176D1*
X-86720Y-283488D1*
X-88254Y-284801D1*
X-90134Y-286113D1*
X-62575Y-249367D2*
X-65252Y-250680D1*
X-67475Y-251992D1*
X-69189Y-253304D1*
X-70512Y-254617D1*
X-71568Y-255929D1*
X-72312Y-257241D1*
X-72778Y-258554D1*
X-73149Y-259866D1*
X-73551Y-261178D1*
X-73923Y-262491D1*
X-74165Y-263803D1*
X-74291Y-265115D1*
X-74348Y-266428D1*
X-74372Y-267740D1*
X-74376Y-269052D1*
X-74333Y-270365D1*
X-74167Y-271677D1*
X-73848Y-272990D1*
X-73465Y-274302D1*
X-73064Y-275614D1*
X-72577Y-276927D1*
X-71966Y-278239D1*
X-71181Y-279551D1*
X-70171Y-280864D1*
X-68914Y-282176D1*
X-67265Y-283488D1*
X-65083Y-284801D1*
X-62575Y-286113D1*
X-45514Y-249367D2*
Y-250680D1*
Y-251992D1*
Y-253304D1*
Y-254617D1*
Y-255929D1*
Y-257241D1*
Y-258554D1*
Y-259866D1*
Y-261178D1*
Y-262491D1*
Y-263803D1*
Y-265115D1*
Y-266428D1*
Y-267740D1*
Y-269052D1*
Y-270365D1*
Y-271677D1*
Y-272990D1*
Y-274302D1*
Y-275614D1*
Y-276927D1*
Y-278239D1*
Y-279551D1*
X-45530Y-280864D1*
X-45680Y-282176D1*
X-46037Y-283488D1*
X-47571Y-284801D1*
X-49451Y-286113D1*
X-37640Y-249367D2*
X-37438Y-250680D1*
X-37112Y-251992D1*
X-36767Y-253304D1*
X-36491Y-254617D1*
X-36202Y-255929D1*
X-35827Y-257241D1*
X-35421Y-258554D1*
X-35016Y-259866D1*
X-34572Y-261178D1*
X-34133Y-262491D1*
X-33713Y-263803D1*
X-33263Y-265115D1*
X-32821Y-266428D1*
X-32396Y-267740D1*
X-31905Y-269052D1*
X-31342Y-270365D1*
X-30769Y-271677D1*
X-30256Y-272990D1*
X-29795Y-274302D1*
X-29289Y-275614D1*
X-28715Y-276927D1*
X-28100Y-278239D1*
X-27459Y-279551D1*
X-26811Y-280864D1*
X-26160Y-282176D1*
X-25540Y-283488D1*
X-24993Y-284801D1*
X-24517Y-286113D1*
X-32391Y-249367D2*
X-32386Y-250680D1*
X-32340Y-251992D1*
X-32173Y-253304D1*
X-31853Y-254617D1*
X-31471Y-255929D1*
X-31074Y-257241D1*
X-30638Y-258554D1*
X-30241Y-259866D1*
X-29943Y-261178D1*
X-29640Y-262491D1*
X-29221Y-263803D1*
X-28693Y-265115D1*
X-28135Y-266428D1*
X-27628Y-267740D1*
X-27170Y-269052D1*
X-26664Y-270365D1*
X-26091Y-271677D1*
X-25475Y-272990D1*
X-24840Y-274302D1*
X-24232Y-275614D1*
X-23699Y-276927D1*
X-23202Y-278239D1*
X-22597Y-279551D1*
X-21892Y-280864D1*
X-8769Y-249367D2*
X-9578Y-250680D1*
X-10285Y-251992D1*
X-10862Y-253304D1*
X-11343Y-254617D1*
X-11819Y-255929D1*
X-12270Y-257241D1*
X-12699Y-258554D1*
X-13192Y-259866D1*
X-13755Y-261178D1*
X-14328Y-262491D1*
X-14841Y-263803D1*
X-15296Y-265115D1*
X-15762Y-266428D1*
X-16209Y-267740D1*
X-16637Y-269052D1*
X-17129Y-270365D1*
X-17692Y-271677D1*
X-18265Y-272990D1*
X-18778Y-274302D1*
X-19239Y-275614D1*
X-19749Y-276927D1*
X-20357Y-278239D1*
X-21081Y-279551D1*
X-21892Y-280864D1*
X-3520Y-249367D2*
X-4328Y-250680D1*
X-5036Y-251992D1*
X-5612Y-253304D1*
X-6094Y-254617D1*
X-6570Y-255929D1*
X-7021Y-257241D1*
X-7450Y-258554D1*
X-7943Y-259866D1*
X-8506Y-261178D1*
X-9078Y-262491D1*
X-9592Y-263803D1*
X-10052Y-265115D1*
X-10559Y-266428D1*
X-11127Y-267740D1*
X-11702Y-269052D1*
X-12216Y-270365D1*
X-12672Y-271677D1*
X-13137Y-272990D1*
X-13585Y-274302D1*
X-14012Y-275614D1*
X-14504Y-276927D1*
X-15067Y-278239D1*
X-15640Y-279551D1*
X-16154Y-280864D1*
X-16610Y-282176D1*
X-17081Y-283488D1*
X-17539Y-284801D1*
X-17955Y-286113D1*
X-100633Y-251992D2*
X-102949Y-253304D1*
X-104856Y-254617D1*
X-106247Y-255929D1*
X-107264Y-257241D1*
X-108074Y-258554D1*
X-108746Y-259866D1*
X-109255Y-261178D1*
X-109558Y-262491D1*
X-109709Y-263803D1*
X-109776Y-265115D1*
X-109803Y-266428D1*
X-109813Y-267740D1*
X-109812Y-269052D1*
X-109767Y-270365D1*
X-109600Y-271677D1*
X-109281Y-272990D1*
X-108898Y-274302D1*
X-108492Y-275614D1*
X-107953Y-276927D1*
X-107268Y-278239D1*
X-105864Y-279551D1*
X-102245Y-280864D1*
X-96785Y-282176D1*
X-90134Y-283488D1*
Y-251992D2*
Y-253304D1*
Y-254617D1*
Y-255929D1*
Y-257241D1*
Y-258554D1*
Y-259866D1*
Y-261178D1*
Y-262491D1*
Y-263803D1*
Y-265115D1*
Y-266428D1*
Y-267740D1*
Y-269052D1*
Y-270365D1*
Y-271677D1*
Y-272990D1*
Y-274302D1*
Y-275614D1*
X-90139Y-276927D1*
X-90226Y-278239D1*
X-90457Y-279551D1*
X-92037Y-280864D1*
X-96545Y-282176D1*
X-101945Y-283488D1*
X-59950Y-251992D2*
X-62267Y-253304D1*
X-64173Y-254617D1*
X-65565Y-255929D1*
X-66581Y-257241D1*
X-67391Y-258554D1*
X-68064Y-259866D1*
X-68572Y-261178D1*
X-68876Y-262491D1*
X-69027Y-263803D1*
X-69094Y-265115D1*
X-69121Y-266428D1*
X-69131Y-267740D1*
X-69129Y-269052D1*
X-69085Y-270365D1*
X-68918Y-271677D1*
X-68598Y-272990D1*
X-68216Y-274302D1*
X-67810Y-275614D1*
X-67271Y-276927D1*
X-66586Y-278239D1*
X-65181Y-279551D1*
X-61563Y-280864D1*
X-56102Y-282176D1*
X-49451Y-283488D1*
Y-251992D2*
Y-253304D1*
Y-254617D1*
Y-255929D1*
Y-257241D1*
Y-258554D1*
Y-259866D1*
Y-261178D1*
Y-262491D1*
Y-263803D1*
Y-265115D1*
Y-266428D1*
Y-267740D1*
Y-269052D1*
Y-270365D1*
Y-271677D1*
Y-272990D1*
Y-274302D1*
Y-275614D1*
X-49457Y-276927D1*
X-49544Y-278239D1*
X-49774Y-279551D1*
X-51355Y-280864D1*
X-55863Y-282176D1*
X-61262Y-283488D1*
X14459Y-248974D2*
Y-250286D1*
Y-251598D1*
Y-252911D1*
X27583D1*
Y-254223D1*
Y-255535D1*
Y-256848D1*
Y-258160D1*
Y-259472D1*
Y-260785D1*
Y-262097D1*
Y-263409D1*
Y-264722D1*
Y-266034D1*
Y-267346D1*
Y-268659D1*
Y-269971D1*
Y-271283D1*
Y-272596D1*
Y-273908D1*
Y-275220D1*
Y-276533D1*
Y-277845D1*
Y-279157D1*
Y-280470D1*
Y-281782D1*
Y-283094D1*
Y-284407D1*
Y-285719D1*
X44643Y-248974D2*
Y-250286D1*
Y-251598D1*
Y-252911D1*
X32832D1*
Y-254223D1*
Y-255535D1*
Y-256848D1*
Y-258160D1*
Y-259472D1*
Y-260785D1*
Y-262097D1*
Y-263409D1*
Y-264722D1*
Y-266034D1*
Y-267346D1*
Y-268659D1*
Y-269971D1*
Y-271283D1*
Y-272596D1*
Y-273908D1*
Y-275220D1*
Y-276533D1*
Y-277845D1*
Y-279157D1*
Y-280470D1*
Y-281782D1*
Y-283094D1*
Y-284407D1*
Y-285719D1*
X52517Y-248974D2*
Y-250286D1*
Y-251598D1*
Y-252911D1*
Y-254223D1*
Y-255535D1*
Y-256848D1*
Y-258160D1*
Y-259472D1*
Y-260785D1*
Y-262097D1*
Y-263409D1*
Y-264722D1*
Y-266034D1*
Y-267346D1*
Y-268659D1*
Y-269971D1*
Y-271283D1*
Y-272596D1*
Y-273908D1*
Y-275220D1*
Y-276533D1*
Y-277845D1*
Y-279157D1*
Y-280470D1*
Y-281782D1*
Y-283094D1*
Y-284407D1*
X59079Y-285719D1*
X57766Y-248974D2*
Y-250286D1*
Y-251598D1*
Y-252911D1*
Y-254223D1*
Y-255535D1*
Y-256848D1*
Y-258160D1*
Y-259472D1*
Y-260785D1*
Y-262097D1*
Y-263409D1*
Y-264722D1*
Y-266034D1*
Y-267346D1*
Y-268659D1*
Y-269971D1*
Y-271283D1*
Y-272596D1*
Y-273908D1*
Y-275220D1*
X57772Y-276533D1*
X57864Y-277845D1*
X58110Y-279157D1*
X59844Y-280470D1*
X64864Y-281782D1*
X70890Y-283094D1*
X76139Y-248974D2*
Y-250286D1*
Y-251598D1*
Y-252911D1*
Y-254223D1*
Y-255535D1*
Y-256848D1*
Y-258160D1*
Y-259472D1*
Y-260785D1*
Y-262097D1*
Y-263409D1*
Y-264722D1*
Y-266034D1*
Y-267346D1*
Y-268659D1*
Y-269971D1*
Y-271283D1*
X76134Y-272596D1*
X76088Y-273908D1*
X75915Y-275220D1*
X75545Y-276533D1*
X74898Y-277845D1*
X73973Y-279157D1*
X70491Y-280470D1*
X64831Y-281782D1*
X57766Y-283094D1*
X81388Y-248974D2*
Y-250286D1*
Y-251598D1*
Y-252911D1*
Y-254223D1*
Y-255535D1*
Y-256848D1*
Y-258160D1*
Y-259472D1*
Y-260785D1*
Y-262097D1*
Y-263409D1*
Y-264722D1*
Y-266034D1*
Y-267346D1*
Y-268659D1*
Y-269971D1*
Y-271283D1*
X81383Y-272596D1*
X81337Y-273908D1*
X81165Y-275220D1*
X80804Y-276533D1*
X80296Y-277845D1*
X79696Y-279157D1*
X78968Y-280470D1*
X77933Y-281782D1*
X76391Y-283094D1*
X74397Y-284407D1*
X72202Y-285719D1*
X102386Y-248974D2*
X99867Y-250286D1*
X97847Y-251598D1*
X96326Y-252911D1*
X95210Y-254223D1*
X94379Y-255535D1*
X93756Y-256848D1*
X93258Y-258160D1*
X92782Y-259472D1*
X92375Y-260785D1*
X92118Y-262097D1*
X91985Y-263409D1*
X91926Y-264722D1*
X91902Y-266034D1*
X91892Y-267346D1*
X91889Y-268659D1*
X91893Y-269971D1*
X91939Y-271283D1*
X92106Y-272596D1*
X92425Y-273908D1*
X92808Y-275220D1*
X93209Y-276533D1*
X93696Y-277845D1*
X94307Y-279157D1*
X95102Y-280470D1*
X96202Y-281782D1*
X97764Y-283094D1*
X99903Y-284407D1*
X102386Y-285719D1*
X112885Y-248974D2*
X115403Y-250286D1*
X117423Y-251598D1*
X118945Y-252911D1*
X120066Y-254223D1*
X120938Y-255535D1*
X121682Y-256848D1*
X122327Y-258160D1*
X122825Y-259472D1*
X123124Y-260785D1*
X123274Y-262097D1*
X123341Y-263409D1*
X123367Y-264722D1*
X123378Y-266034D1*
X123381Y-267346D1*
X123383Y-268659D1*
Y-269971D1*
X123378Y-271283D1*
X123332Y-272596D1*
X123160Y-273908D1*
X122799Y-275220D1*
X122290Y-276533D1*
X121696Y-277845D1*
X121019Y-279157D1*
X120192Y-280470D1*
X119078Y-281782D1*
X117510Y-283094D1*
X115369Y-284407D1*
X112885Y-285719D1*
X106323Y-251598D2*
X103961Y-252911D1*
X101928Y-254223D1*
X100348Y-255535D1*
X99188Y-256848D1*
X98339Y-258160D1*
X97751Y-259472D1*
X97416Y-260785D1*
X97253Y-262097D1*
X97182Y-263409D1*
X97153Y-264722D1*
X97142Y-266034D1*
X97138Y-267346D1*
X97137Y-268659D1*
Y-269971D1*
X97142Y-271283D1*
X97188Y-272596D1*
X97360Y-273908D1*
X97726Y-275220D1*
X98286Y-276533D1*
X99124Y-277845D1*
X100252Y-279157D1*
X103196Y-280470D1*
X107581Y-281782D1*
X112885Y-283094D1*
X108948Y-251598D2*
X111309Y-252911D1*
X113343Y-254223D1*
X114922Y-255535D1*
X116082Y-256848D1*
X116932Y-258160D1*
X117519Y-259472D1*
X117854Y-260785D1*
X118018Y-262097D1*
X118089Y-263409D1*
X118117Y-264722D1*
X118128Y-266034D1*
X118132Y-267346D1*
X118133Y-268659D1*
X118134Y-269971D1*
X118129Y-271283D1*
X118083Y-272596D1*
X117910Y-273908D1*
X117545Y-275220D1*
X116985Y-276533D1*
X116146Y-277845D1*
X115018Y-279157D1*
X112074Y-280470D1*
X107689Y-281782D1*
X102386Y-283094D1*
X162491Y-248974D2*
X159814Y-250286D1*
X157591Y-251598D1*
X155877Y-252911D1*
X154553Y-254223D1*
X153498Y-255535D1*
X152753Y-256848D1*
X152287Y-258160D1*
X151917Y-259472D1*
X151515Y-260785D1*
X151143Y-262097D1*
X150901Y-263409D1*
X150775Y-264722D1*
X150717Y-266034D1*
X150694Y-267346D1*
X150690Y-268659D1*
X150733Y-269971D1*
X150899Y-271283D1*
X151218Y-272596D1*
X151600Y-273908D1*
X152002Y-275220D1*
X152489Y-276533D1*
X153100Y-277845D1*
X153884Y-279157D1*
X154894Y-280470D1*
X156151Y-281782D1*
X157801Y-283094D1*
X159982Y-284407D1*
X162491Y-285719D1*
X179551Y-248974D2*
Y-250286D1*
Y-251598D1*
Y-252911D1*
Y-254223D1*
Y-255535D1*
Y-256848D1*
Y-258160D1*
Y-259472D1*
Y-260785D1*
Y-262097D1*
Y-263409D1*
Y-264722D1*
Y-266034D1*
Y-267346D1*
Y-268659D1*
Y-269971D1*
Y-271283D1*
Y-272596D1*
Y-273908D1*
Y-275220D1*
Y-276533D1*
Y-277845D1*
Y-279157D1*
X179536Y-280470D1*
X179386Y-281782D1*
X179028Y-283094D1*
X177494Y-284407D1*
X175614Y-285719D1*
X191362Y-248974D2*
Y-250286D1*
Y-251598D1*
X213672Y-248974D2*
Y-250286D1*
Y-251598D1*
Y-252911D1*
Y-254223D1*
Y-255535D1*
Y-256848D1*
Y-258160D1*
Y-259472D1*
Y-260785D1*
Y-262097D1*
Y-263409D1*
Y-264722D1*
Y-266034D1*
Y-267346D1*
Y-268659D1*
Y-269971D1*
Y-271283D1*
Y-272596D1*
X213667Y-273908D1*
X213621Y-275220D1*
X213453Y-276533D1*
X213134Y-277845D1*
X212746Y-279157D1*
X212294Y-280470D1*
X211589Y-281782D1*
X210463Y-283094D1*
X208902Y-284407D1*
X207110Y-285719D1*
X237294Y-248974D2*
Y-250286D1*
Y-251598D1*
Y-252911D1*
Y-254223D1*
Y-255535D1*
Y-256848D1*
Y-258160D1*
Y-259472D1*
Y-260785D1*
Y-262097D1*
Y-263409D1*
Y-264722D1*
Y-266034D1*
Y-267346D1*
Y-268659D1*
Y-269971D1*
Y-271283D1*
Y-272596D1*
Y-273908D1*
Y-275220D1*
Y-276533D1*
Y-277845D1*
Y-279157D1*
Y-280470D1*
Y-281782D1*
Y-283094D1*
X242543Y-248974D2*
Y-250286D1*
Y-251598D1*
Y-252911D1*
Y-254223D1*
Y-255535D1*
Y-256848D1*
Y-258160D1*
Y-259472D1*
Y-260785D1*
Y-262097D1*
Y-263409D1*
Y-264722D1*
Y-266034D1*
Y-267346D1*
Y-268659D1*
Y-269971D1*
Y-271283D1*
Y-272596D1*
Y-273908D1*
Y-275220D1*
Y-276533D1*
Y-277845D1*
Y-279157D1*
Y-280470D1*
Y-281782D1*
Y-283094D1*
Y-284407D1*
Y-285719D1*
X165115Y-251598D2*
X162799Y-252911D1*
X160892Y-254223D1*
X159501Y-255535D1*
X158484Y-256848D1*
X157674Y-258160D1*
X157002Y-259472D1*
X156493Y-260785D1*
X156190Y-262097D1*
X156039Y-263409D1*
X155972Y-264722D1*
X155945Y-266034D1*
X155935Y-267346D1*
X155936Y-268659D1*
X155981Y-269971D1*
X156148Y-271283D1*
X156467Y-272596D1*
X156850Y-273908D1*
X157256Y-275220D1*
X157795Y-276533D1*
X158480Y-277845D1*
X159884Y-279157D1*
X163503Y-280470D1*
X168963Y-281782D1*
X175614Y-283094D1*
Y-251598D2*
Y-252911D1*
Y-254223D1*
Y-255535D1*
Y-256848D1*
Y-258160D1*
Y-259472D1*
Y-260785D1*
Y-262097D1*
Y-263409D1*
Y-264722D1*
Y-266034D1*
Y-267346D1*
Y-268659D1*
Y-269971D1*
Y-271283D1*
Y-272596D1*
Y-273908D1*
Y-275220D1*
X175609Y-276533D1*
X175522Y-277845D1*
X175291Y-279157D1*
X173711Y-280470D1*
X169203Y-281782D1*
X163803Y-283094D1*
X208423Y-251598D2*
Y-252911D1*
Y-254223D1*
Y-255535D1*
Y-256848D1*
Y-258160D1*
Y-259472D1*
Y-260785D1*
Y-262097D1*
Y-263409D1*
Y-264722D1*
Y-266034D1*
X192675D2*
Y-267346D1*
Y-268659D1*
X208423D2*
Y-269971D1*
Y-271283D1*
Y-272596D1*
Y-273908D1*
X208417Y-275220D1*
X208366Y-276533D1*
X208148Y-277845D1*
X207615Y-279157D1*
X206747Y-280470D1*
X205659Y-281782D1*
X204486Y-283094D1*
X190050D2*
Y-284407D1*
Y-285719D1*
X221546Y-283094D2*
Y-284407D1*
Y-285719D1*
M02*
