G04 DipTrace 3.2.0.1*
G04 Top.gbr*
%MOIN*%
G04 #@! TF.FileFunction,Copper,L1,Top*
G04 #@! TF.Part,Single*
%AMOUTLINE0*
4,1,4,
-0.021652,-0.011814,
-0.021655,0.011808,
0.021652,0.011814,
0.021655,-0.011808,
-0.021652,-0.011814,
0*%
G04 #@! TA.AperFunction,CopperBalancing*
%ADD10C,0.009843*%
G04 #@! TA.AperFunction,Conductor*
%ADD15C,0.007874*%
G04 #@! TA.AperFunction,CopperBalancing*
%ADD16C,0.011811*%
%ADD20R,0.03937X0.043307*%
%ADD21R,0.043307X0.03937*%
%ADD22R,0.03937X0.025591*%
G04 #@! TA.AperFunction,ComponentPad*
%ADD24C,0.070866*%
G04 #@! TA.AperFunction,ViaPad*
%ADD25C,0.023622*%
%ADD38OUTLINE0*%
%FSLAX26Y26*%
G04*
G70*
G90*
G75*
G01*
G04 Top*
%LPD*%
X-54336Y-186626D2*
D15*
X-113780D1*
Y-177165D1*
X-176772Y-240157D1*
X-181102D1*
X-113780Y-177165D2*
X-115327D1*
X-177925Y-114567D1*
X-179921D1*
X252756Y-218110D2*
Y-183465D1*
X252362D1*
X-215748Y-229528D2*
X-191732D1*
X-181102Y-240157D1*
X-215748Y-229528D2*
X-237008D1*
X-248031Y-240551D1*
X-112992Y-114567D2*
X-102756D1*
X-68098Y-149224D1*
X-54340D1*
X-114173Y-240157D2*
Y-228740D1*
X-59043D1*
X-54331Y-224028D1*
X66929Y24016D2*
X36811D1*
X35433Y22638D1*
X-66535Y56299D2*
X-35630D1*
X-35433Y56102D1*
X198031Y-246850D2*
Y-294488D1*
X150000Y-342520D1*
X198031Y-246850D2*
X272441D1*
X293307Y-225984D1*
Y-46850D1*
X175984Y70472D1*
X80709D1*
X32283Y118898D1*
X-33858D1*
X-68110Y84646D1*
Y54724D1*
X-66535Y56299D1*
X51963Y-186614D2*
Y-193307D1*
X97638D1*
X106693Y-184252D1*
X126772D1*
X189370D1*
X-180709Y-177165D2*
X-222835Y-135039D1*
Y-90157D1*
X-208661Y-75984D1*
X-62598D1*
X-787Y-137795D1*
Y-186614D1*
Y-244488D1*
X-39764Y-283465D1*
X-137402D1*
X-150000Y-296063D1*
Y-342520D1*
X51963Y-186614D2*
X-787D1*
X189370Y-117323D2*
X182677D1*
X198425Y-101575D1*
Y3150D1*
X162598Y38976D1*
X120866D1*
X42520Y-39370D1*
X-34646D1*
X-58268Y-15748D1*
Y6693D1*
X-42913Y22047D1*
X-36024D1*
X-35433Y22638D1*
X51959Y-149213D2*
X80315D1*
X112205Y-117323D1*
X126772D1*
X136220D1*
X126378Y-107480D1*
Y-76378D1*
X252362Y-116535D2*
Y-28346D1*
X169291Y54724D1*
X36811D1*
X35433Y56102D1*
X-273228Y-144882D2*
X-272441D1*
X-258268Y-159055D1*
Y-163386D1*
X-248031Y-173622D1*
X51969Y-224016D2*
X62205D1*
Y-219291D1*
X54724D1*
X48425Y-225591D1*
Y-246850D1*
Y-340945D1*
X131102Y-246850D2*
X48425D1*
D25*
X66929Y24016D3*
X-66535Y56299D3*
X126378Y-76378D3*
X-273228Y-144882D3*
X-215748Y-229528D3*
X252756Y-218110D3*
X-73157Y-267323D2*
D16*
X25128D1*
X-208984Y-279003D2*
X25128D1*
X-221348Y-290682D2*
X-164909D1*
X-135096D2*
X-64908D1*
X-35094D2*
X25128D1*
X-211406Y-302362D2*
X-186709D1*
X-113296D2*
X-86707D1*
X-13294D2*
X9996D1*
X-205454Y-314042D2*
X-196637D1*
X-103376D2*
X-96633D1*
X-213620Y-372441D2*
X-195682D1*
X-203506Y-346037D2*
X-204314Y-350103D1*
X-205618Y-354725D1*
X-207280Y-359230D1*
X-209290Y-363590D1*
X-211636Y-367780D1*
X-215454Y-373231D1*
X-193996Y-373174D1*
X-197098Y-368153D1*
X-199630Y-362821D1*
X-201561Y-357243D1*
X-202867Y-351487D1*
X-203498Y-346124D1*
X-238077Y-280387D2*
X-231826Y-283684D1*
X-227834Y-286351D1*
X-224063Y-289324D1*
X-220537Y-292584D1*
X-217277Y-296110D1*
X-214304Y-299881D1*
X-211636Y-303873D1*
X-209290Y-308063D1*
X-207280Y-312424D1*
X-205618Y-316929D1*
X-204314Y-321550D1*
X-203378Y-326260D1*
X-202742Y-332847D1*
X-201313Y-326954D1*
X-199291Y-321408D1*
X-196672Y-316119D1*
X-193488Y-311149D1*
X-189776Y-306559D1*
X-185583Y-302405D1*
X-180958Y-298737D1*
X-175959Y-295600D1*
X-170645Y-293031D1*
X-165080Y-291062D1*
X-159333Y-289716D1*
X-153473Y-289010D1*
X-147571Y-288953D1*
X-141698Y-289544D1*
X-135926Y-290778D1*
X-130324Y-292638D1*
X-124961Y-295103D1*
X-119901Y-298142D1*
X-115206Y-301719D1*
X-110932Y-305791D1*
X-107132Y-310307D1*
X-103851Y-315214D1*
X-101130Y-320452D1*
X-100000Y-323154D1*
X-97778Y-318176D1*
X-95720Y-314502D1*
X-93381Y-311001D1*
X-90775Y-307695D1*
X-87917Y-304603D1*
X-84825Y-301745D1*
X-81518Y-299139D1*
X-78017Y-296799D1*
X-74344Y-294742D1*
X-70520Y-292979D1*
X-66570Y-291522D1*
X-62518Y-290379D1*
X-58388Y-289558D1*
X-54207Y-289063D1*
X-50000Y-288898D1*
X-45793Y-289063D1*
X-41612Y-289558D1*
X-37482Y-290379D1*
X-33430Y-291522D1*
X-29480Y-292979D1*
X-25656Y-294742D1*
X-21983Y-296799D1*
X-18482Y-299139D1*
X-15175Y-301745D1*
X-12083Y-304603D1*
X-9225Y-307695D1*
X-6619Y-311001D1*
X-4280Y-314502D1*
X-1155Y-320491D1*
X648Y-316601D1*
X2705Y-312927D1*
X5044Y-309427D1*
X7651Y-306120D1*
X10509Y-303028D1*
X13600Y-300170D1*
X16907Y-297564D1*
X20408Y-295225D1*
X26307Y-292141D1*
X26299Y-267195D1*
X-74340Y-266874D1*
X-74331Y-278032D1*
X-210165D1*
X-210157Y-280394D1*
X-237955D1*
X-150000Y-288921D2*
D10*
Y-342520D1*
X-203599D2*
X-150000D1*
D20*
X126772Y-184252D3*
Y-117323D3*
D21*
X-180709Y-177165D3*
X-113780D3*
D22*
X-35433Y56102D3*
X35433D3*
X-35433Y22638D3*
X35433D3*
D20*
X252362Y-116535D3*
Y-183465D3*
X189370Y-184252D3*
Y-117323D3*
X-248031Y-240551D3*
Y-173622D3*
D21*
X-112992Y-114567D3*
X-179921D3*
X-114173Y-240157D3*
X-181102D3*
X131102Y-246850D3*
X198031D3*
D38*
X51969Y-224016D3*
X51963Y-186614D3*
X51959Y-149213D3*
X-54340Y-149224D3*
X-54336Y-186626D3*
X-54331Y-224028D3*
D24*
X150000Y-342520D3*
X48425Y-340945D3*
X-50000Y-342520D3*
X-150000D3*
M02*
