G04 DipTrace 3.2.0.1*
G04 TopSilk.gbr*
%MOIN*%
G04 #@! TF.FileFunction,Legend,Top*
G04 #@! TF.Part,Single*
%ADD10C,0.009843*%
%ADD12C,0.003*%
%ADD13C,0.002625*%
%ADD14C,0.001969*%
%ADD15C,0.007874*%
%ADD20C,0.004724*%
%ADD24C,0.015397*%
%ADD38C,0.003088*%
%FSLAX26Y26*%
G04*
G70*
G90*
G75*
G01*
G04 TopSilk*
%LPD*%
D24*
X68601Y-250934D3*
X14529Y-245672D2*
D10*
X14514Y-127570D1*
X-16966Y-245685D2*
Y-127570D1*
X14514D2*
X-16966D1*
X14529Y-245672D2*
X-16966Y-245685D1*
X-207283Y-88583D2*
D20*
X-84646D1*
Y-140551D1*
X-207283D1*
Y-88583D1*
X-208858Y-151575D2*
X-86220D1*
Y-203543D1*
X-208858D1*
Y-151575D1*
X-209252Y-214173D2*
X-86614D1*
Y-266142D1*
X-209252D1*
Y-214173D1*
X-274705Y-144980D2*
X-222736D1*
Y-267618D1*
X-274705D1*
Y-144980D1*
X100886Y-89862D2*
X152854D1*
Y-212500D1*
X100886D1*
Y-89862D1*
X163484Y-89075D2*
X215453D1*
Y-211713D1*
X163484D1*
Y-89075D1*
X226083Y-89469D2*
X278051D1*
Y-212106D1*
X226083D1*
Y-89469D1*
X-60236Y78740D2*
D15*
X61024D1*
Y-394D1*
X-60236D1*
Y78740D1*
X103346Y-221654D2*
D20*
X225984D1*
Y-273622D1*
X103346D1*
Y-221654D1*
X112992Y-41732D2*
D14*
X118898D1*
X134646D2*
X138583D1*
X111103Y-42717D2*
X120635D1*
X133248D2*
X138583D1*
X109588Y-43701D2*
X122069D1*
X132146D2*
X138583D1*
X108447Y-44685D2*
X123143D1*
X131294D2*
X138583D1*
X107610Y-45669D2*
X114174D1*
X117716D2*
X123996D1*
X130991D2*
X138583D1*
X106991Y-46654D2*
X112648D1*
X119239D2*
X124714D1*
X130819D2*
X133661D1*
X135630D2*
X138583D1*
X106554Y-47638D2*
X111464D1*
X120401D2*
X125239D1*
X130709D2*
X131693D1*
X135630D2*
X138583D1*
X106272Y-48622D2*
X110594D1*
X121217D2*
X125561D1*
X135630D2*
X138583D1*
X106025Y-49606D2*
X109957D1*
X121850D2*
X125787D1*
X135630D2*
X138583D1*
X105736Y-50591D2*
X109516D1*
X135630D2*
X138583D1*
X105463Y-51575D2*
X109265D1*
X135630D2*
X138583D1*
X105283Y-52559D2*
X109142D1*
X135630D2*
X138583D1*
X105189Y-53543D2*
X109089D1*
X135630D2*
X138583D1*
X105146Y-54528D2*
X109068D1*
X135630D2*
X138583D1*
X105129Y-55512D2*
X109060D1*
X135630D2*
X138583D1*
X105122Y-56496D2*
X109057D1*
X135630D2*
X138583D1*
X105119Y-57480D2*
X109056D1*
X135630D2*
X138583D1*
X105122Y-58465D2*
X109055D1*
X135630D2*
X138583D1*
X105157Y-59449D2*
X109059D1*
X135630D2*
X138583D1*
X105282Y-60433D2*
X109094D1*
X135630D2*
X138583D1*
X105518Y-61417D2*
X109223D1*
X135630D2*
X138583D1*
X105774Y-62402D2*
X109497D1*
X135630D2*
X138583D1*
X105980Y-63386D2*
X109917D1*
X121850D2*
X125787D1*
X135630D2*
X138583D1*
X106201Y-64370D2*
X110538D1*
X121268D2*
X125598D1*
X135630D2*
X138583D1*
X106517Y-65354D2*
X111361D1*
X120492D2*
X125224D1*
X135630D2*
X138583D1*
X106950Y-66339D2*
X113226D1*
X118646D2*
X124691D1*
X135630D2*
X138583D1*
X107536Y-67323D2*
X115832D1*
X116051D2*
X124064D1*
X135630D2*
X138583D1*
X108356Y-68307D2*
X123237D1*
X135630D2*
X138583D1*
X109527Y-69291D2*
X122057D1*
X135630D2*
X138583D1*
X111130Y-70276D2*
X120550D1*
X135630D2*
X138583D1*
X112992Y-71260D2*
X118898D1*
X135630D2*
X138583D1*
X-237402Y-92913D2*
X-231496D1*
X-215748D2*
X-212795D1*
X-238799Y-93898D2*
X-229905D1*
X-215748D2*
X-212795D1*
X-239905Y-94882D2*
X-228391D1*
X-215748D2*
X-212795D1*
X-240667Y-95866D2*
X-226974D1*
X-215748D2*
X-212795D1*
X-241188Y-96850D2*
X-236376D1*
X-233699D2*
X-225628D1*
X-215748D2*
X-212795D1*
X-241610Y-97835D2*
X-237196D1*
X-231320D2*
X-224287D1*
X-215748D2*
X-212795D1*
X-241942Y-98819D2*
X-237780D1*
X-229418D2*
X-222965D1*
X-215748D2*
X-212795D1*
X-242141Y-99803D2*
X-238112D1*
X-227907D2*
X-221659D1*
X-215752D2*
X-212795D1*
X-242209Y-100787D2*
X-238265D1*
X-226567D2*
X-220302D1*
X-215789D2*
X-212795D1*
X-242129Y-101772D2*
X-238262D1*
X-225247D2*
X-218866D1*
X-215941D2*
X-212795D1*
X-241908Y-102756D2*
X-238123D1*
X-223937D2*
X-217340D1*
X-216278D2*
X-212795D1*
X-241625Y-103740D2*
X-237447D1*
X-222642D2*
X-212795D1*
X-241288Y-104724D2*
X-236688D1*
X-221322D2*
X-212795D1*
X-240760Y-105709D2*
X-236088D1*
X-220004D2*
X-212795D1*
X-239916Y-106693D2*
X-235731D1*
X-218678D2*
X-212795D1*
X-238746Y-107677D2*
X-235548D1*
X-217254D2*
X-212795D1*
X-237402Y-108661D2*
X-235433D1*
X-215748D2*
X-212795D1*
X-220669Y-114567D2*
X-219685D1*
X-236417Y-115551D2*
X-234449D1*
X-220662D2*
X-217947D1*
X-237818Y-116535D2*
X-234494D1*
X-220589D2*
X-216514D1*
X-238955Y-117520D2*
X-234599D1*
X-220416D2*
X-215440D1*
X-239812Y-118504D2*
X-235157D1*
X-219693D2*
X-214586D1*
X-240478Y-119488D2*
X-235933D1*
X-218771D2*
X-213869D1*
X-241042Y-120472D2*
X-236739D1*
X-217808D2*
X-213348D1*
X-241529Y-121457D2*
X-237410D1*
X-216965D2*
X-213047D1*
X-241903Y-122441D2*
X-237887D1*
X-216366D2*
X-212900D1*
X-242128Y-123425D2*
X-238160D1*
X-216026D2*
X-212836D1*
X-242237Y-124409D2*
X-238288D1*
X-215867D2*
X-212810D1*
X-242252Y-125394D2*
X-238307D1*
X-215834D2*
X-212801D1*
X-242143Y-126378D2*
X-238166D1*
X-215970D2*
X-212801D1*
X-241881Y-127362D2*
X-237775D1*
X-216359D2*
X-212838D1*
X-241502Y-128346D2*
X-237126D1*
X-217008D2*
X-212998D1*
X-241057Y-129331D2*
X-236304D1*
X-217830D2*
X-213367D1*
X-240546Y-130315D2*
X-235392D1*
X-218742D2*
X-213928D1*
X-239894Y-131299D2*
X-214649D1*
X-238970Y-132283D2*
X-215622D1*
X-237702Y-133268D2*
X-216965D1*
X-236140Y-134252D2*
X-218702D1*
X-234449Y-135236D2*
X-220669D1*
X-33858Y-29528D2*
X-29921D1*
X-9252D2*
X9449D1*
X16339D2*
X30118D1*
X-33858Y-30512D2*
X-29921D1*
X-9252D2*
X9449D1*
X16339D2*
X31856D1*
X-33858Y-31496D2*
X-29921D1*
X-9252D2*
X9449D1*
X16339D2*
X33286D1*
X-33858Y-32480D2*
X-29921D1*
X-9252D2*
X9449D1*
X16339D2*
X34329D1*
X-33858Y-33465D2*
X-29921D1*
X-9252D2*
X-5315D1*
X16339D2*
X20276D1*
X28937D2*
X35091D1*
X-33858Y-34449D2*
X-29921D1*
X-9252D2*
X-5315D1*
X16339D2*
X20276D1*
X30458D2*
X35699D1*
X-33858Y-35433D2*
X-29921D1*
X-9252D2*
X-5315D1*
X16339D2*
X20276D1*
X31608D2*
X36203D1*
X-33858Y-36417D2*
X-29921D1*
X-9252D2*
X-5315D1*
X16339D2*
X20276D1*
X32482D2*
X36585D1*
X-33858Y-37402D2*
X-29921D1*
X-9252D2*
X-5315D1*
X16339D2*
X20276D1*
X32786D2*
X36812D1*
X-33858Y-38386D2*
X-29921D1*
X-9252D2*
X-5315D1*
X16339D2*
X20276D1*
X32950D2*
X36926D1*
X-33858Y-39370D2*
X-29921D1*
X-9252D2*
X-5315D1*
X16339D2*
X20276D1*
X33024D2*
X36976D1*
X-33858Y-40354D2*
X-29921D1*
X-9252D2*
X-5315D1*
X16339D2*
X20276D1*
X33054D2*
X36996D1*
X-33858Y-41339D2*
X-29921D1*
X-9252D2*
X-5315D1*
X16339D2*
X20276D1*
X33065D2*
X37004D1*
X-33858Y-42323D2*
X-29921D1*
X-9252D2*
X-5315D1*
X16339D2*
X20276D1*
X33069D2*
X37006D1*
X-33858Y-43307D2*
X-29921D1*
X-9252D2*
X7480D1*
X16339D2*
X20276D1*
X33070D2*
X37007D1*
X-33858Y-44291D2*
X-29921D1*
X-9252D2*
X7480D1*
X16339D2*
X20276D1*
X33071D2*
X37008D1*
X-33858Y-45276D2*
X-29921D1*
X-9252D2*
X7480D1*
X16339D2*
X20276D1*
X33071D2*
X37008D1*
X-33858Y-46260D2*
X-29921D1*
X-9252D2*
X7480D1*
X16339D2*
X20276D1*
X33071D2*
X37008D1*
X-33858Y-47244D2*
X-29921D1*
X-9252D2*
X-5315D1*
X16339D2*
X20276D1*
X33071D2*
X37008D1*
X-33858Y-48228D2*
X-29921D1*
X-9252D2*
X-5315D1*
X16339D2*
X20276D1*
X33071D2*
X37008D1*
X-33858Y-49213D2*
X-29921D1*
X-9252D2*
X-5315D1*
X16339D2*
X20276D1*
X33067D2*
X37004D1*
X-33858Y-50197D2*
X-29921D1*
X-9252D2*
X-5315D1*
X16339D2*
X20276D1*
X33029D2*
X36969D1*
X-33858Y-51181D2*
X-29921D1*
X-9252D2*
X-5315D1*
X16339D2*
X20276D1*
X32861D2*
X36840D1*
X-33858Y-52165D2*
X-29921D1*
X-9252D2*
X-5315D1*
X16339D2*
X20276D1*
X32542D2*
X36570D1*
X-33858Y-53150D2*
X-29921D1*
X-9252D2*
X-5315D1*
X16339D2*
X20276D1*
X31623D2*
X36188D1*
X-33858Y-54134D2*
X-29921D1*
X-9252D2*
X-5315D1*
X16339D2*
X20276D1*
X28927D2*
X35738D1*
X-33858Y-55118D2*
X-29921D1*
X-9252D2*
X-5315D1*
X16339D2*
X20276D1*
X24628D2*
X35193D1*
X-33858Y-56102D2*
X-15157D1*
X-9252D2*
X9449D1*
X16339D2*
X34416D1*
X-33858Y-57087D2*
X-15157D1*
X-9252D2*
X9449D1*
X16339D2*
X33260D1*
X-33858Y-58071D2*
X-15157D1*
X-9252D2*
X9449D1*
X16339D2*
X31764D1*
X-33858Y-59055D2*
X-15157D1*
X-9252D2*
X9449D1*
X16339D2*
X30118D1*
X233071Y-40945D2*
X247835D1*
X263583D2*
X267520D1*
X233071Y-41929D2*
X249269D1*
X262185D2*
X267520D1*
X233071Y-42913D2*
X250498D1*
X261083D2*
X267520D1*
X233071Y-43898D2*
X251465D1*
X260231D2*
X267520D1*
X233071Y-44882D2*
X237008D1*
X246501D2*
X252148D1*
X259928D2*
X267520D1*
X233071Y-45866D2*
X237008D1*
X247778D2*
X252631D1*
X259756D2*
X262598D1*
X264567D2*
X267520D1*
X233071Y-46850D2*
X237008D1*
X248674D2*
X253037D1*
X259646D2*
X260630D1*
X264567D2*
X267520D1*
X233071Y-47835D2*
X237008D1*
X249344D2*
X253359D1*
X264567D2*
X267520D1*
X233071Y-48819D2*
X237008D1*
X249543D2*
X253525D1*
X264567D2*
X267520D1*
X233071Y-49803D2*
X237008D1*
X249617D2*
X253501D1*
X264567D2*
X267520D1*
X233071Y-50787D2*
X237008D1*
X249371D2*
X253307D1*
X264567D2*
X267520D1*
X233071Y-51772D2*
X237008D1*
X248711D2*
X253035D1*
X264567D2*
X267520D1*
X233071Y-52756D2*
X237008D1*
X246118D2*
X252706D1*
X264567D2*
X267520D1*
X233071Y-53740D2*
X237008D1*
X241671D2*
X252214D1*
X264567D2*
X267520D1*
X233071Y-54724D2*
X251491D1*
X264567D2*
X267520D1*
X233071Y-55709D2*
X250567D1*
X264567D2*
X267520D1*
X233071Y-56693D2*
X249608D1*
X264567D2*
X267520D1*
X233071Y-57677D2*
X248766D1*
X264567D2*
X267520D1*
X233071Y-58661D2*
X237008D1*
X243742D2*
X248563D1*
X264567D2*
X267520D1*
X233071Y-59646D2*
X237008D1*
X244447D2*
X248834D1*
X264567D2*
X267520D1*
X233071Y-60630D2*
X237008D1*
X245047D2*
X249287D1*
X264567D2*
X267520D1*
X233071Y-61614D2*
X237008D1*
X245589D2*
X249863D1*
X264567D2*
X267520D1*
X233071Y-62598D2*
X237008D1*
X246100D2*
X250443D1*
X264567D2*
X267520D1*
X233071Y-63583D2*
X237008D1*
X246601D2*
X250988D1*
X264567D2*
X267520D1*
X233071Y-64567D2*
X237008D1*
X247095D2*
X251507D1*
X264567D2*
X267520D1*
X233071Y-65551D2*
X237008D1*
X247589D2*
X252010D1*
X264567D2*
X267520D1*
X233071Y-66535D2*
X237008D1*
X248080D2*
X252508D1*
X264567D2*
X267520D1*
X233071Y-67520D2*
X237008D1*
X248570D2*
X253004D1*
X264567D2*
X267520D1*
X233071Y-68504D2*
X237008D1*
X249036D2*
X253523D1*
X264567D2*
X267520D1*
X233071Y-69488D2*
X237008D1*
X249446D2*
X254097D1*
X264567D2*
X267520D1*
X233071Y-70472D2*
X237008D1*
X249803D2*
X254724D1*
X264567D2*
X267520D1*
X164961Y-41732D2*
X179724D1*
X197441D2*
X204331D1*
X164961Y-42717D2*
X181159D1*
X196040D2*
X205613D1*
X164961Y-43701D2*
X182388D1*
X194903D2*
X206602D1*
X164961Y-44685D2*
X183355D1*
X194050D2*
X207345D1*
X164961Y-45669D2*
X168898D1*
X178391D2*
X184038D1*
X193418D2*
X198771D1*
X202127D2*
X207946D1*
X164961Y-46654D2*
X168898D1*
X179668D2*
X184521D1*
X192977D2*
X197460D1*
X203523D2*
X208444D1*
X164961Y-47638D2*
X168898D1*
X180563D2*
X184927D1*
X192709D2*
X196419D1*
X204596D2*
X208791D1*
X164961Y-48622D2*
X168898D1*
X181234D2*
X185248D1*
X192520D2*
X195472D1*
X205018D2*
X208981D1*
X164961Y-49606D2*
X168898D1*
X181433D2*
X185414D1*
X205023D2*
X208789D1*
X164961Y-50591D2*
X168898D1*
X181507D2*
X185391D1*
X204825D2*
X208535D1*
X164961Y-51575D2*
X168898D1*
X181260D2*
X185197D1*
X204476D2*
X208250D1*
X164961Y-52559D2*
X168898D1*
X180601D2*
X184925D1*
X204042D2*
X207891D1*
X164961Y-53543D2*
X168898D1*
X178008D2*
X184596D1*
X203540D2*
X207440D1*
X164961Y-54528D2*
X168898D1*
X173561D2*
X184104D1*
X202932D2*
X206887D1*
X164961Y-55512D2*
X183380D1*
X202207D2*
X206262D1*
X164961Y-56496D2*
X182457D1*
X201460D2*
X205631D1*
X164961Y-57480D2*
X181498D1*
X200761D2*
X204954D1*
X164961Y-58465D2*
X180656D1*
X200050D2*
X204196D1*
X164961Y-59449D2*
X168898D1*
X175631D2*
X180452D1*
X199248D2*
X203437D1*
X164961Y-60433D2*
X168898D1*
X176337D2*
X180723D1*
X198393D2*
X202733D1*
X164961Y-61417D2*
X168898D1*
X176937D2*
X181177D1*
X197577D2*
X202023D1*
X164961Y-62402D2*
X168898D1*
X177479D2*
X181753D1*
X196846D2*
X201252D1*
X164961Y-63386D2*
X168898D1*
X177990D2*
X182333D1*
X196125D2*
X200487D1*
X164961Y-64370D2*
X168898D1*
X178490D2*
X182878D1*
X195349D2*
X199781D1*
X164961Y-65354D2*
X168898D1*
X178984D2*
X183397D1*
X194586D2*
X199067D1*
X164961Y-66339D2*
X168898D1*
X179478D2*
X183900D1*
X193918D2*
X198262D1*
X164961Y-67323D2*
X168898D1*
X179970D2*
X184397D1*
X193367D2*
X197376D1*
X164961Y-68307D2*
X168898D1*
X180460D2*
X184894D1*
X192961D2*
X209252D1*
X164961Y-69291D2*
X168898D1*
X180926D2*
X185413D1*
X192722D2*
X209252D1*
X164961Y-70276D2*
X168898D1*
X181336D2*
X185987D1*
X192598D2*
X209252D1*
X164961Y-71260D2*
X168898D1*
X181693D2*
X186614D1*
X192520D2*
X209252D1*
X-279331Y-91142D2*
X-275394D1*
X-266535D2*
X-259646D1*
X-281068Y-92126D2*
X-273915D1*
X-267821D2*
X-258363D1*
X-282339Y-93110D2*
X-272494D1*
X-268837D2*
X-257379D1*
X-283225Y-94094D2*
X-271023D1*
X-269676D2*
X-256670D1*
X-283889Y-95079D2*
X-266186D1*
X-260671D2*
X-256194D1*
X-284417Y-96063D2*
X-280122D1*
X-273619D2*
X-267463D1*
X-259852D2*
X-255928D1*
X-284808Y-97047D2*
X-280697D1*
X-273043D2*
X-268359D1*
X-259267D2*
X-255799D1*
X-285035Y-98031D2*
X-281023D1*
X-272713D2*
X-269029D1*
X-258939D2*
X-255744D1*
X-285115Y-99016D2*
X-281144D1*
X-272553D2*
X-269266D1*
X-258813D2*
X-255721D1*
X-285036Y-100000D2*
X-281138D1*
X-272482D2*
X-269401D1*
X-258877D2*
X-255717D1*
X-284786Y-100984D2*
X-280704D1*
X-272441D2*
X-269488D1*
X-259158D2*
X-255749D1*
X-284412Y-101969D2*
X-280084D1*
X-259685D2*
X-255877D1*
X-283965Y-102953D2*
X-279423D1*
X-260450D2*
X-256151D1*
X-283422Y-103937D2*
X-278908D1*
X-261280D2*
X-256571D1*
X-282659Y-104921D2*
X-278603D1*
X-261918D2*
X-257179D1*
X-281579Y-105906D2*
X-278445D1*
X-262290D2*
X-258074D1*
X-280315Y-106890D2*
X-278346D1*
X-262480D2*
X-259270D1*
X-262598Y-107874D2*
X-260630D1*
X-256693Y-113780D2*
X-255709D1*
X-280315Y-114764D2*
X-272441D1*
X-258624D2*
X-255713D1*
X-281598Y-115748D2*
X-271449D1*
X-260474D2*
X-255755D1*
X-282586Y-116732D2*
X-270390D1*
X-262281D2*
X-255859D1*
X-283329Y-117717D2*
X-269101D1*
X-264299D2*
X-256356D1*
X-283930Y-118701D2*
X-278112D1*
X-274644D2*
X-267444D1*
X-266754D2*
X-257531D1*
X-284432Y-119685D2*
X-279507D1*
X-273249D2*
X-259038D1*
X-284813Y-120669D2*
X-280580D1*
X-272176D2*
X-260784D1*
X-285041Y-121654D2*
X-280953D1*
X-271803D2*
X-262650D1*
X-285154Y-122638D2*
X-281153D1*
X-271603D2*
X-264504D1*
X-285204Y-123622D2*
X-281242D1*
X-271514D2*
X-266131D1*
X-285224Y-124606D2*
X-281278D1*
X-271478D2*
X-267479D1*
X-285232Y-125591D2*
X-281292D1*
X-271464D2*
X-268004D1*
X-285235Y-126575D2*
X-281297D1*
X-271459D2*
X-268290D1*
X-285236Y-127559D2*
X-281298D1*
X-271458D2*
X-268420D1*
X-285236Y-128543D2*
X-281299D1*
X-271457D2*
X-268473D1*
X-285236Y-129528D2*
X-281299D1*
X-271457D2*
X-268493D1*
X-285236Y-130512D2*
X-281299D1*
X-271457D2*
X-268500D1*
X-285236Y-131496D2*
X-255709D1*
X-285236Y-132480D2*
X-255709D1*
X-285236Y-133465D2*
X-255709D1*
X-285236Y-134449D2*
X-255709D1*
X-204528Y-44882D2*
X-196654D1*
X-181890D2*
X-177953D1*
X-206265Y-45866D2*
X-194924D1*
X-183287D2*
X-177953D1*
X-207695Y-46850D2*
X-193379D1*
X-184389D2*
X-177953D1*
X-208735Y-47835D2*
X-192581D1*
X-185241D2*
X-177953D1*
X-209462Y-48819D2*
X-203346D1*
X-197638D2*
X-192469D1*
X-185545D2*
X-177953D1*
X-209944Y-49803D2*
X-204867D1*
X-194685D2*
X-192717D1*
X-185716D2*
X-182874D1*
X-180906D2*
X-177953D1*
X-210213Y-50787D2*
X-206014D1*
X-185827D2*
X-184843D1*
X-180906D2*
X-177953D1*
X-210342Y-51772D2*
X-206876D1*
X-180906D2*
X-177953D1*
X-210398Y-52756D2*
X-207129D1*
X-180906D2*
X-177953D1*
X-210416Y-53740D2*
X-206986D1*
X-180906D2*
X-177953D1*
X-210386Y-54724D2*
X-206474D1*
X-180906D2*
X-177953D1*
X-210225Y-55709D2*
X-205033D1*
X-180906D2*
X-177953D1*
X-209823Y-56693D2*
X-202769D1*
X-180906D2*
X-177953D1*
X-209121Y-57677D2*
X-199901D1*
X-180906D2*
X-177953D1*
X-208022Y-58661D2*
X-197121D1*
X-180906D2*
X-177953D1*
X-206262Y-59646D2*
X-194937D1*
X-180906D2*
X-177953D1*
X-203703Y-60630D2*
X-193411D1*
X-180906D2*
X-177953D1*
X-200750Y-61614D2*
X-192387D1*
X-180906D2*
X-177953D1*
X-198128Y-62598D2*
X-191687D1*
X-180906D2*
X-177953D1*
X-196249Y-63583D2*
X-191222D1*
X-180906D2*
X-177953D1*
X-194883Y-64567D2*
X-190962D1*
X-180906D2*
X-177953D1*
X-194331Y-65551D2*
X-190837D1*
X-180906D2*
X-177953D1*
X-194295Y-66535D2*
X-190786D1*
X-180906D2*
X-177953D1*
X-194616Y-67520D2*
X-190803D1*
X-180906D2*
X-177953D1*
X-210433Y-68504D2*
X-209449D1*
X-195439D2*
X-190959D1*
X-180906D2*
X-177953D1*
X-210959Y-69488D2*
X-206049D1*
X-197971D2*
X-191355D1*
X-180906D2*
X-177953D1*
X-211639Y-70472D2*
X-201674D1*
X-201828D2*
X-192014D1*
X-180906D2*
X-177953D1*
X-212402Y-71457D2*
X-192912D1*
X-180906D2*
X-177953D1*
X-210252Y-72441D2*
X-194131D1*
X-180906D2*
X-177953D1*
X-207938Y-73425D2*
X-195760D1*
X-180906D2*
X-177953D1*
X-205512Y-74409D2*
X-197638D1*
X-180906D2*
X-177953D1*
X-210039Y-275591D2*
X-202165D1*
X-185433D2*
X-178543D1*
X-211777Y-276575D2*
X-200435D1*
X-186834D2*
X-177261D1*
X-213207Y-277559D2*
X-198891D1*
X-187971D2*
X-176272D1*
X-214246Y-278543D2*
X-198093D1*
X-188824D2*
X-175529D1*
X-214974Y-279528D2*
X-208858D1*
X-203150D2*
X-197981D1*
X-189456D2*
X-184103D1*
X-180747D2*
X-174928D1*
X-215456Y-280512D2*
X-210379D1*
X-200197D2*
X-198228D1*
X-189897D2*
X-185414D1*
X-179351D2*
X-174430D1*
X-215725Y-281496D2*
X-211525D1*
X-190165D2*
X-186455D1*
X-178278D2*
X-174083D1*
X-215854Y-282480D2*
X-212388D1*
X-190354D2*
X-187402D1*
X-177856D2*
X-173893D1*
X-215910Y-283465D2*
X-212641D1*
X-177851D2*
X-174085D1*
X-215928Y-284449D2*
X-212498D1*
X-178049D2*
X-174339D1*
X-215898Y-285433D2*
X-211986D1*
X-178398D2*
X-174624D1*
X-215737Y-286417D2*
X-210545D1*
X-178832D2*
X-174983D1*
X-215335Y-287402D2*
X-208281D1*
X-179334D2*
X-175434D1*
X-214633Y-288386D2*
X-205413D1*
X-179942D2*
X-175987D1*
X-213534Y-289370D2*
X-202633D1*
X-180667D2*
X-176612D1*
X-211774Y-290354D2*
X-200449D1*
X-181414D2*
X-177243D1*
X-209215Y-291339D2*
X-198923D1*
X-182113D2*
X-177920D1*
X-206262Y-292323D2*
X-197899D1*
X-182824D2*
X-178678D1*
X-203640Y-293307D2*
X-197199D1*
X-183626D2*
X-179437D1*
X-201761Y-294291D2*
X-196734D1*
X-184481D2*
X-180141D1*
X-200395Y-295276D2*
X-196474D1*
X-185297D2*
X-180851D1*
X-199843Y-296260D2*
X-196349D1*
X-186028D2*
X-181622D1*
X-199807Y-297244D2*
X-196298D1*
X-186750D2*
X-182387D1*
X-200128Y-298228D2*
X-196315D1*
X-187525D2*
X-183093D1*
X-215945Y-299213D2*
X-214961D1*
X-200951D2*
X-196470D1*
X-188288D2*
X-183807D1*
X-216471Y-300197D2*
X-211561D1*
X-203483D2*
X-196867D1*
X-188956D2*
X-184612D1*
X-217151Y-301181D2*
X-207186D1*
X-207339D2*
X-197526D1*
X-189507D2*
X-185498D1*
X-217913Y-302165D2*
X-198424D1*
X-189913D2*
X-173622D1*
X-215764Y-303150D2*
X-199643D1*
X-190152D2*
X-173622D1*
X-213450Y-304134D2*
X-201272D1*
X-190276D2*
X-173622D1*
X-211024Y-305118D2*
X-203150D1*
X-190354D2*
X-173622D1*
X250197Y-226772D2*
X258071D1*
X274803D2*
X280709D1*
X248459Y-227756D2*
X259801D1*
X273402D2*
X282143D1*
X247029Y-228740D2*
X261346D1*
X272265D2*
X283372D1*
X245990Y-229724D2*
X262143D1*
X271412D2*
X284335D1*
X245262Y-230709D2*
X251378D1*
X257087D2*
X262256D1*
X270781D2*
X275787D1*
X279375D2*
X285091D1*
X244780Y-231693D2*
X249857D1*
X260039D2*
X262008D1*
X270339D2*
X274803D1*
X280652D2*
X285368D1*
X244511Y-232677D2*
X248711D1*
X270071D2*
X273819D1*
X281544D2*
X285518D1*
X244382Y-233661D2*
X247849D1*
X269882D2*
X272835D1*
X282203D2*
X285582D1*
X244326Y-234646D2*
X247596D1*
X282375D2*
X285575D1*
X244308Y-235630D2*
X247738D1*
X282117D2*
X285457D1*
X244338Y-236614D2*
X248250D1*
X281692D2*
X285182D1*
X244499Y-237598D2*
X249691D1*
X280586D2*
X284730D1*
X244901Y-238583D2*
X251956D1*
X279264D2*
X284010D1*
X245603Y-239567D2*
X254823D1*
X277970D2*
X282948D1*
X246702Y-240551D2*
X257604D1*
X277329D2*
X281693D1*
X248462Y-241535D2*
X259787D1*
X277125D2*
X282858D1*
X251021Y-242520D2*
X261313D1*
X278479D2*
X283856D1*
X253974Y-243504D2*
X262337D1*
X279921D2*
X284643D1*
X256596Y-244488D2*
X263037D1*
X281113D2*
X285277D1*
X258475Y-245472D2*
X263502D1*
X282042D2*
X285797D1*
X259841Y-246457D2*
X263762D1*
X282371D2*
X286186D1*
X260394Y-247441D2*
X263888D1*
X282544D2*
X286413D1*
X260429Y-248425D2*
X263938D1*
X282580D2*
X286493D1*
X260109Y-249409D2*
X263921D1*
X268898D2*
X272835D1*
X282517D2*
X286414D1*
X244291Y-250394D2*
X245276D1*
X259286D2*
X263766D1*
X269275D2*
X273482D1*
X281980D2*
X286164D1*
X243765Y-251378D2*
X248675D1*
X256753D2*
X263369D1*
X269733D2*
X275194D1*
X280297D2*
X285786D1*
X243085Y-252362D2*
X253050D1*
X252897D2*
X262710D1*
X270323D2*
X277707D1*
X277798D2*
X285305D1*
X242323Y-253346D2*
X261812D1*
X271109D2*
X284635D1*
X244472Y-254331D2*
X260593D1*
X272128D2*
X283629D1*
X246786Y-255315D2*
X258964D1*
X273395D2*
X282256D1*
X249213Y-256299D2*
X257087D1*
X274803D2*
X280709D1*
X-68549Y-88397D2*
X-27210D1*
X-23273D2*
X-8509D1*
X7239D2*
X14129D1*
X29877D2*
X36766D1*
X52514D2*
X58420D1*
X-68549Y-89381D2*
X-27210D1*
X-23273D2*
X-7074D1*
X5838D2*
X15411D1*
X28476D2*
X38049D1*
X51113D2*
X59855D1*
X-68549Y-90365D2*
X-27210D1*
X-23273D2*
X-5846D1*
X4701D2*
X16400D1*
X27339D2*
X39037D1*
X49976D2*
X61083D1*
X-68549Y-91350D2*
X-27210D1*
X-23273D2*
X-4879D1*
X3848D2*
X17143D1*
X26486D2*
X39781D1*
X49123D2*
X62047D1*
X-59690Y-92334D2*
X-56738D1*
X-39021D2*
X-36068D1*
X-23273D2*
X-19336D1*
X-9843D2*
X-4196D1*
X3216D2*
X8569D1*
X11925D2*
X17744D1*
X25854D2*
X31207D1*
X34563D2*
X40382D1*
X48492D2*
X53499D1*
X57086D2*
X62803D1*
X-59690Y-93318D2*
X-56738D1*
X-39021D2*
X-36068D1*
X-23273D2*
X-19336D1*
X-8565D2*
X-3713D1*
X2775D2*
X7258D1*
X13321D2*
X18242D1*
X25413D2*
X29896D1*
X35958D2*
X40880D1*
X48050D2*
X52514D1*
X58364D2*
X63080D1*
X-59690Y-94302D2*
X-56738D1*
X-39021D2*
X-36068D1*
X-23273D2*
X-19336D1*
X-7670D2*
X-3307D1*
X2506D2*
X6217D1*
X14394D2*
X18589D1*
X25144D2*
X28855D1*
X37031D2*
X41226D1*
X47782D2*
X51530D1*
X59255D2*
X63230D1*
X-59690Y-95287D2*
X-56738D1*
X-39021D2*
X-36068D1*
X-23273D2*
X-19336D1*
X-6999D2*
X-2981D1*
X2318D2*
X5270D1*
X14815D2*
X18779D1*
X24955D2*
X27908D1*
X37453D2*
X41417D1*
X47593D2*
X50546D1*
X59914D2*
X63294D1*
X-59690Y-96271D2*
X-56738D1*
X-39021D2*
X-36068D1*
X-23273D2*
X-19336D1*
X-6767D2*
X-2785D1*
X14821D2*
X18586D1*
X37458D2*
X41224D1*
X60086D2*
X63287D1*
X-59690Y-97255D2*
X-56738D1*
X-39021D2*
X-36068D1*
X-23273D2*
X-19336D1*
X-6674D2*
X-2717D1*
X14623D2*
X18333D1*
X37261D2*
X40971D1*
X59829D2*
X63168D1*
X-59690Y-98240D2*
X-56738D1*
X-39021D2*
X-36068D1*
X-23273D2*
X-19336D1*
X-6749D2*
X-2797D1*
X14274D2*
X18048D1*
X36911D2*
X40686D1*
X59404D2*
X62894D1*
X-59690Y-99224D2*
X-56738D1*
X-39021D2*
X-36068D1*
X-23273D2*
X-19336D1*
X-6958D2*
X-3018D1*
X13840D2*
X17689D1*
X36478D2*
X40327D1*
X58297D2*
X62441D1*
X-59690Y-100208D2*
X-56738D1*
X-39021D2*
X-36068D1*
X-23273D2*
X-19336D1*
X-7628D2*
X-3302D1*
X13337D2*
X17238D1*
X35975D2*
X39875D1*
X56975D2*
X61721D1*
X-59690Y-101192D2*
X-56738D1*
X-39021D2*
X-36068D1*
X-23273D2*
X-19336D1*
X-10223D2*
X-3635D1*
X12730D2*
X16685D1*
X35368D2*
X39322D1*
X55682D2*
X60659D1*
X-59690Y-102177D2*
X-56738D1*
X-39021D2*
X-36068D1*
X-23273D2*
X-19336D1*
X-14672D2*
X-4129D1*
X12004D2*
X16060D1*
X34642D2*
X38698D1*
X55040D2*
X59404D1*
X-59690Y-103161D2*
X-56738D1*
X-39021D2*
X-36068D1*
X-23273D2*
X-4895D1*
X11258D2*
X15428D1*
X33896D2*
X38066D1*
X54836D2*
X60569D1*
X-59690Y-104145D2*
X-56738D1*
X-39021D2*
X-36068D1*
X-23273D2*
X-5899D1*
X10559D2*
X14752D1*
X33197D2*
X37389D1*
X56190D2*
X61568D1*
X-59690Y-105129D2*
X-56738D1*
X-39021D2*
X-36068D1*
X-23273D2*
X-8839D1*
X9848D2*
X13994D1*
X32485D2*
X36632D1*
X57632D2*
X62354D1*
X-59690Y-106114D2*
X-56738D1*
X-39021D2*
X-36068D1*
X-23273D2*
X-13518D1*
X9046D2*
X13235D1*
X31684D2*
X35872D1*
X58825D2*
X62988D1*
X-59690Y-107098D2*
X-56738D1*
X-39021D2*
X-36068D1*
X-23273D2*
X-19336D1*
X8191D2*
X12531D1*
X30829D2*
X35168D1*
X59754D2*
X63508D1*
X-59690Y-108082D2*
X-56738D1*
X-39021D2*
X-36068D1*
X-23273D2*
X-19336D1*
X7375D2*
X11821D1*
X30012D2*
X34459D1*
X60082D2*
X63897D1*
X-59690Y-109066D2*
X-56738D1*
X-39021D2*
X-36068D1*
X-23273D2*
X-19336D1*
X6644D2*
X11050D1*
X29282D2*
X33688D1*
X60255D2*
X64124D1*
X-59690Y-110051D2*
X-56738D1*
X-39021D2*
X-36068D1*
X-23273D2*
X-19336D1*
X5922D2*
X10285D1*
X28560D2*
X32923D1*
X60292D2*
X64204D1*
X-59690Y-111035D2*
X-56738D1*
X-39021D2*
X-36068D1*
X-23273D2*
X-19336D1*
X5147D2*
X9579D1*
X27785D2*
X32217D1*
X46609D2*
X50546D1*
X60228D2*
X64125D1*
X-59690Y-112019D2*
X-56738D1*
X-39021D2*
X-36068D1*
X-23273D2*
X-19336D1*
X4384D2*
X8865D1*
X27022D2*
X31502D1*
X46987D2*
X51194D1*
X59691D2*
X63875D1*
X-59690Y-113003D2*
X-56738D1*
X-39021D2*
X-36068D1*
X-23273D2*
X-19336D1*
X3716D2*
X8060D1*
X26354D2*
X30697D1*
X47444D2*
X52905D1*
X58008D2*
X63498D1*
X-59690Y-113988D2*
X-56738D1*
X-39021D2*
X-36068D1*
X-23273D2*
X-19336D1*
X3165D2*
X7174D1*
X25803D2*
X29812D1*
X48034D2*
X55418D1*
X55509D2*
X63016D1*
X-59690Y-114972D2*
X-56738D1*
X-39021D2*
X-36068D1*
X-23273D2*
X-19336D1*
X2759D2*
X19050D1*
X25397D2*
X41688D1*
X48820D2*
X62346D1*
X-59690Y-115956D2*
X-56738D1*
X-39021D2*
X-36068D1*
X-23273D2*
X-19336D1*
X2520D2*
X19050D1*
X25157D2*
X41688D1*
X49839D2*
X61340D1*
X-59690Y-116940D2*
X-56738D1*
X-39021D2*
X-36068D1*
X-23273D2*
X-19336D1*
X2396D2*
X19050D1*
X25033D2*
X41688D1*
X51107D2*
X59967D1*
X-59690Y-117925D2*
X-56738D1*
X-39021D2*
X-36068D1*
X-23273D2*
X-19336D1*
X2318D2*
X19050D1*
X24955D2*
X41688D1*
X52514D2*
X58420D1*
X-221873Y292550D2*
D12*
X-194873D1*
X-181373D2*
X-152873D1*
X-140873D2*
X-113873D1*
X-100373D2*
X-94373D1*
X-71873D2*
X-64373D1*
X-61373D2*
X-23873D1*
X-4373D2*
X9127D1*
X60127D2*
X78127D1*
X94627D2*
X121627D1*
X135127D2*
X141127D1*
X166627D2*
X174127D1*
X195127D2*
X213127D1*
X-221873Y291050D2*
X-194873D1*
X-181373D2*
X-152873D1*
X-140873D2*
X-113873D1*
X-100373D2*
X-94373D1*
X-73141D2*
X-65867D1*
X-61373D2*
X-23873D1*
X-6565D2*
X12006D1*
X57479D2*
X78820D1*
X94627D2*
X121627D1*
X135127D2*
X142570D1*
X166627D2*
X174127D1*
X192479D2*
X213820D1*
X-221873Y289550D2*
X-194873D1*
X-181373D2*
X-152873D1*
X-140873D2*
X-113873D1*
X-100373D2*
X-94373D1*
X-74269D2*
X-67314D1*
X-61373D2*
X-23873D1*
X-8490D2*
X14315D1*
X55300D2*
X79252D1*
X94627D2*
X121627D1*
X135127D2*
X143878D1*
X166627D2*
X174127D1*
X190300D2*
X214252D1*
X-221873Y288050D2*
X-194873D1*
X-181373D2*
X-152873D1*
X-140873D2*
X-113873D1*
X-100373D2*
X-94373D1*
X-75381D2*
X-68623D1*
X-61373D2*
X-23873D1*
X-10149D2*
X16054D1*
X53716D2*
X79481D1*
X94627D2*
X121627D1*
X135127D2*
X145018D1*
X166627D2*
X174127D1*
X188716D2*
X214481D1*
X-221873Y286550D2*
X-215873D1*
X-181373D2*
X-175373D1*
X-140873D2*
X-134873D1*
X-100373D2*
X-94373D1*
X-76618D2*
X-69764D1*
X-44873D2*
X-38873D1*
X-11502D2*
X-2515D1*
X7327D2*
X17330D1*
X52607D2*
X62155D1*
X76627D2*
X79627D1*
X94627D2*
X100627D1*
X135127D2*
X146134D1*
X166627D2*
X174127D1*
X187607D2*
X197155D1*
X211627D2*
X214627D1*
X-221873Y285050D2*
X-215873D1*
X-181373D2*
X-175373D1*
X-140873D2*
X-134873D1*
X-100373D2*
X-94373D1*
X-77973D2*
X-70879D1*
X-44873D2*
X-38873D1*
X-12485D2*
X-4647D1*
X9645D2*
X18274D1*
X51872D2*
X60157D1*
X94627D2*
X100627D1*
X135127D2*
X147372D1*
X166627D2*
X174127D1*
X186872D2*
X195157D1*
X-221873Y283550D2*
X-215873D1*
X-181373D2*
X-175373D1*
X-140873D2*
X-134873D1*
X-100373D2*
X-94373D1*
X-79356D2*
X-72117D1*
X-44873D2*
X-38873D1*
X-13198D2*
X-6300D1*
X11398D2*
X18933D1*
X51469D2*
X58570D1*
X94627D2*
X100627D1*
X135127D2*
X148733D1*
X166627D2*
X174127D1*
X186469D2*
X193570D1*
X-221873Y282050D2*
X-215873D1*
X-181373D2*
X-175373D1*
X-140873D2*
X-134873D1*
X-100373D2*
X-94373D1*
X-80639D2*
X-73473D1*
X-44873D2*
X-38873D1*
X-13807D2*
X-7086D1*
X12730D2*
X19311D1*
X51330D2*
X57127D1*
X94627D2*
X100627D1*
X135127D2*
X150169D1*
X166627D2*
X174127D1*
X186330D2*
X192127D1*
X-221873Y280550D2*
X-215873D1*
X-181373D2*
X-175373D1*
X-140873D2*
X-134873D1*
X-100373D2*
X-94373D1*
X-81769D2*
X-74856D1*
X-44873D2*
X-38873D1*
X-14299D2*
X-7756D1*
X13194D2*
X19495D1*
X51365D2*
X58172D1*
X94627D2*
X100627D1*
X135127D2*
X141127D1*
X144127D2*
X151643D1*
X166627D2*
X174127D1*
X186365D2*
X193172D1*
X-221873Y279050D2*
X-215873D1*
X-181373D2*
X-175373D1*
X-140873D2*
X-134873D1*
X-100373D2*
X-94373D1*
X-82881D2*
X-76139D1*
X-44873D2*
X-38873D1*
X-14603D2*
X-8279D1*
X13443D2*
X19576D1*
X52038D2*
X59423D1*
X94627D2*
X100627D1*
X135127D2*
X141127D1*
X145627D2*
X153133D1*
X166627D2*
X174127D1*
X187038D2*
X194423D1*
X-221873Y277550D2*
X-215873D1*
X-181373D2*
X-175373D1*
X-140873D2*
X-134873D1*
X-100373D2*
X-94373D1*
X-84118D2*
X-77269D1*
X-44873D2*
X-38873D1*
X-14758D2*
X-8596D1*
X13556D2*
X19608D1*
X53043D2*
X61051D1*
X94627D2*
X100627D1*
X135127D2*
X141127D1*
X147127D2*
X154629D1*
X166627D2*
X174127D1*
X188043D2*
X196051D1*
X-221873Y276050D2*
X-215873D1*
X-181373D2*
X-175373D1*
X-140873D2*
X-134873D1*
X-100373D2*
X-94373D1*
X-85479D2*
X-78381D1*
X-44873D2*
X-38873D1*
X-14828D2*
X-8756D1*
X13601D2*
X19621D1*
X54300D2*
X62986D1*
X94627D2*
X100627D1*
X135127D2*
X141127D1*
X148627D2*
X156128D1*
X166627D2*
X174127D1*
X189300D2*
X197986D1*
X-221873Y274550D2*
X-215873D1*
X-181373D2*
X-175373D1*
X-140873D2*
X-134873D1*
X-100373D2*
X-94367D1*
X-86921D2*
X-79617D1*
X-44873D2*
X-38873D1*
X-14856D2*
X-8827D1*
X13618D2*
X19625D1*
X55700D2*
X65093D1*
X94627D2*
X100627D1*
X135127D2*
X141127D1*
X150127D2*
X157628D1*
X166627D2*
X174127D1*
X190700D2*
X200093D1*
X-221873Y273050D2*
X-215873D1*
X-181373D2*
X-175373D1*
X-140873D2*
X-134873D1*
X-100373D2*
X-94310D1*
X-88451D2*
X-80970D1*
X-44873D2*
X-38873D1*
X-14867D2*
X-8856D1*
X13624D2*
X19627D1*
X57210D2*
X67287D1*
X94627D2*
X100627D1*
X135127D2*
X141127D1*
X151627D2*
X159133D1*
X166621D2*
X174127D1*
X192210D2*
X202287D1*
X-221873Y271550D2*
X-196373D1*
X-181373D2*
X-155873D1*
X-140873D2*
X-115373D1*
X-100373D2*
X-94078D1*
X-90173D2*
X-82373D1*
X-44873D2*
X-38873D1*
X-14871D2*
X-8867D1*
X13626D2*
X19627D1*
X58891D2*
X69514D1*
X94627D2*
X120127D1*
X135127D2*
X141127D1*
X153127D2*
X160690D1*
X166564D2*
X174127D1*
X193891D2*
X204514D1*
X-221873Y270050D2*
X-196373D1*
X-181373D2*
X-155873D1*
X-140873D2*
X-115373D1*
X-100373D2*
X-93565D1*
X-92182D2*
X-79673D1*
X-44873D2*
X-38873D1*
X-14872D2*
X-8871D1*
X13627D2*
X19627D1*
X60798D2*
X71745D1*
X94627D2*
X120127D1*
X135127D2*
X141127D1*
X154627D2*
X162422D1*
X166332D2*
X174127D1*
X195798D2*
X206745D1*
X-221873Y268550D2*
X-196373D1*
X-181373D2*
X-155873D1*
X-140873D2*
X-115373D1*
X-100373D2*
X-77349D1*
X-44873D2*
X-38873D1*
X-14872D2*
X19627D1*
X62877D2*
X73886D1*
X94627D2*
X120127D1*
X135127D2*
X141127D1*
X156121D2*
X164435D1*
X165820D2*
X174127D1*
X197877D2*
X208886D1*
X-221873Y267050D2*
X-196373D1*
X-181373D2*
X-155873D1*
X-140873D2*
X-115373D1*
X-100373D2*
X-75538D1*
X-44873D2*
X-38873D1*
X-14873D2*
X19627D1*
X65050D2*
X75748D1*
X94627D2*
X120127D1*
X135127D2*
X141127D1*
X157569D2*
X174127D1*
X200050D2*
X210748D1*
X-221873Y265550D2*
X-215873D1*
X-181373D2*
X-175373D1*
X-140873D2*
X-134873D1*
X-100373D2*
X-88367D1*
X-86019D2*
X-74159D1*
X-44873D2*
X-38873D1*
X-14873D2*
X19627D1*
X67259D2*
X77219D1*
X94627D2*
X100627D1*
X135127D2*
X141127D1*
X158878D2*
X174127D1*
X202259D2*
X212219D1*
X-221873Y264050D2*
X-215873D1*
X-181373D2*
X-175373D1*
X-140873D2*
X-134873D1*
X-100373D2*
X-89814D1*
X-82957D2*
X-72991D1*
X-44873D2*
X-38873D1*
X-14873D2*
X19627D1*
X69391D2*
X78446D1*
X94627D2*
X100627D1*
X135127D2*
X141127D1*
X160018D2*
X174127D1*
X204391D2*
X213446D1*
X-221873Y262550D2*
X-215873D1*
X-181373D2*
X-175373D1*
X-140873D2*
X-134873D1*
X-100373D2*
X-91117D1*
X-80818D2*
X-71908D1*
X-44873D2*
X-38873D1*
X-14873D2*
X-8873D1*
X13627D2*
X19627D1*
X71244D2*
X79509D1*
X94627D2*
X100627D1*
X135127D2*
X141127D1*
X161134D2*
X174127D1*
X206244D2*
X214509D1*
X-221873Y261050D2*
X-215873D1*
X-181373D2*
X-175373D1*
X-140873D2*
X-134873D1*
X-100373D2*
X-92199D1*
X-79268D2*
X-70949D1*
X-44873D2*
X-38873D1*
X-14873D2*
X-8873D1*
X13627D2*
X19627D1*
X72661D2*
X80292D1*
X94627D2*
X100627D1*
X135127D2*
X141127D1*
X162366D2*
X174127D1*
X207661D2*
X215292D1*
X-221873Y259550D2*
X-215873D1*
X-181373D2*
X-175373D1*
X-140873D2*
X-134873D1*
X-100373D2*
X-93065D1*
X-78016D2*
X-70135D1*
X-44873D2*
X-38873D1*
X-14873D2*
X-8873D1*
X13627D2*
X19627D1*
X73690D2*
X80746D1*
X94627D2*
X100627D1*
X135127D2*
X141127D1*
X163669D2*
X174127D1*
X208690D2*
X215746D1*
X-221873Y258050D2*
X-215861D1*
X-181373D2*
X-175373D1*
X-140873D2*
X-134861D1*
X-100373D2*
X-93694D1*
X-76983D2*
X-69478D1*
X-44873D2*
X-38873D1*
X-14873D2*
X-8873D1*
X13627D2*
X19627D1*
X74490D2*
X80969D1*
X94627D2*
X100639D1*
X135127D2*
X141127D1*
X164855D2*
X174127D1*
X209490D2*
X215969D1*
X-221867Y256550D2*
X-215744D1*
X-181373D2*
X-175373D1*
X-140867D2*
X-134744D1*
X-100373D2*
X-94062D1*
X-76097D2*
X-68923D1*
X-44873D2*
X-38873D1*
X-14873D2*
X-8873D1*
X13627D2*
X19627D1*
X74674D2*
X81060D1*
X94633D2*
X100756D1*
X135127D2*
X141127D1*
X165720D2*
X174127D1*
X209674D2*
X216060D1*
X-221814Y255050D2*
X-215463D1*
X-181373D2*
X-175373D1*
X-140814D2*
X-134463D1*
X-100373D2*
X-94243D1*
X-75291D2*
X-68333D1*
X-44873D2*
X-38873D1*
X-14873D2*
X-8873D1*
X13627D2*
X19627D1*
X74065D2*
X81040D1*
X94686D2*
X101037D1*
X135127D2*
X141127D1*
X166216D2*
X174127D1*
X209065D2*
X216040D1*
X-221611Y253550D2*
X-214092D1*
X-181373D2*
X-175373D1*
X-140611D2*
X-133092D1*
X-100373D2*
X-94322D1*
X-74565D2*
X-67673D1*
X-44873D2*
X-38873D1*
X-14873D2*
X-8873D1*
X13627D2*
X19627D1*
X70926D2*
X80805D1*
X94889D2*
X102408D1*
X135127D2*
X141127D1*
X166457D2*
X174127D1*
X187627D2*
D3*
X205926D2*
X215805D1*
X-221135Y252050D2*
X-212133D1*
X-181373D2*
X-175373D1*
X-140135D2*
X-131133D1*
X-100373D2*
X-94354D1*
X-73949D2*
X-66968D1*
X-44873D2*
X-38873D1*
X-14873D2*
X-8873D1*
X13627D2*
X19627D1*
X52627D2*
X58627D1*
X65521D2*
X80196D1*
X95365D2*
X104367D1*
X135127D2*
X141127D1*
X166562D2*
X174127D1*
X187352D2*
X193627D1*
X200521D2*
X215196D1*
X-220431Y250550D2*
X-193373D1*
X-181373D2*
X-175373D1*
X-139431D2*
X-112373D1*
X-100373D2*
X-94366D1*
X-73417D2*
X-66240D1*
X-44873D2*
X-38873D1*
X-14873D2*
X-8873D1*
X13627D2*
X19627D1*
X51924D2*
X79147D1*
X96069D2*
X123127D1*
X135127D2*
X141127D1*
X166603D2*
X174127D1*
X186825D2*
X214147D1*
X-218826Y249050D2*
X-193373D1*
X-181373D2*
X-175373D1*
X-137826D2*
X-112373D1*
X-100373D2*
X-94370D1*
X-72874D2*
X-65538D1*
X-44873D2*
X-38873D1*
X-14873D2*
X-8873D1*
X13627D2*
X19627D1*
X51127D2*
X77661D1*
X97674D2*
X123127D1*
X135127D2*
X141127D1*
X166619D2*
X174127D1*
X186127D2*
X212661D1*
X-216727Y247550D2*
X-193373D1*
X-181373D2*
X-175373D1*
X-135727D2*
X-112373D1*
X-100373D2*
X-94372D1*
X-72349D2*
X-64916D1*
X-44873D2*
X-38873D1*
X-14873D2*
X-8873D1*
X13627D2*
X19627D1*
X54737D2*
X75758D1*
X99773D2*
X123127D1*
X135127D2*
X141127D1*
X166625D2*
X174127D1*
X189737D2*
X210758D1*
X-214373Y246050D2*
X-193373D1*
X-181373D2*
X-175373D1*
X-133373D2*
X-112373D1*
X-100373D2*
X-94373D1*
X-71873D2*
X-64373D1*
X-44873D2*
X-38873D1*
X-14873D2*
X-8873D1*
X13627D2*
X19627D1*
X58627D2*
X73627D1*
X102127D2*
X123127D1*
X135127D2*
X141127D1*
X166627D2*
X174127D1*
X193627D2*
X208627D1*
X-58900Y216774D2*
D13*
X-51026D1*
X-15593D2*
X-10344D1*
X68396D2*
X73646D1*
X114328D2*
X118265D1*
X-61216Y215462D2*
X-51026D1*
X-15593D2*
X-10344D1*
X68396D2*
X73646D1*
X114328D2*
X118265D1*
X-62906Y214150D2*
X-51026D1*
X-15593D2*
X-10344D1*
X68396D2*
X73646D1*
X114328D2*
X118265D1*
X-64041Y212837D2*
X-55160D1*
X-15593D2*
X-10344D1*
X68396D2*
X73646D1*
X114328D2*
X118265D1*
X-64760Y211525D2*
X-57980D1*
X-15593D2*
X-10344D1*
X68396D2*
X73646D1*
X114328D2*
X118265D1*
X-65150Y210213D2*
X-59962D1*
X-15593D2*
X-10344D1*
X18528D2*
X22465D1*
X68396D2*
X73646D1*
X114328D2*
X118265D1*
X-65334Y208900D2*
X-60729D1*
X-15593D2*
X-10344D1*
X18325D2*
X22465D1*
X68396D2*
X73646D1*
X114328D2*
X118265D1*
X-65413Y207588D2*
X-61170D1*
X-15593D2*
X-10344D1*
X17999D2*
X22465D1*
X68396D2*
X73646D1*
X114328D2*
X118265D1*
X-65444Y206276D2*
X-61380D1*
X-15593D2*
X-10344D1*
X17660D2*
X22465D1*
X68396D2*
X73646D1*
X114328D2*
X118265D1*
X-65456Y204963D2*
X-61470D1*
X-15593D2*
X-10344D1*
X17429D2*
X22465D1*
X68396D2*
X73646D1*
X114328D2*
X118265D1*
X-65460Y203651D2*
X-61506D1*
X-15593D2*
X-10344D1*
X17300D2*
X22465D1*
X68396D2*
X73646D1*
X114328D2*
X118265D1*
X-262312Y202339D2*
X-257063D1*
X-242627D2*
X-236066D1*
X-221630D2*
X-216381D1*
X-213756D2*
X-208507D1*
X-194071D2*
X-187509D1*
X-173073D2*
X-167824D1*
X-165199D2*
X-159950D1*
X-145514D2*
X-138953D1*
X-124517D2*
X-119268D1*
X-91709D2*
X-82522D1*
X-70711D2*
X-52339D1*
X-40528D2*
X-31341D1*
X-15593D2*
X-10344D1*
X1467D2*
X6717D1*
X11966D2*
X30339D1*
X39525D2*
X51336D1*
X68396D2*
X73646D1*
X85457D2*
X97268D1*
X114328D2*
X125316D1*
X168134D2*
X179945D1*
X194381D2*
X204879D1*
X227189D2*
X237688D1*
X246874D2*
X257373D1*
X-261859Y201026D2*
X-256860D1*
X-242830D2*
X-235863D1*
X-221630D2*
X-216986D1*
X-213302D2*
X-208304D1*
X-194274D2*
X-187306D1*
X-173073D2*
X-168430D1*
X-164746D2*
X-159747D1*
X-145717D2*
X-138750D1*
X-124517D2*
X-119874D1*
X-93577D2*
X-80654D1*
X-70711D2*
X-52339D1*
X-42396D2*
X-29473D1*
X-15593D2*
X-10344D1*
X761D2*
X5853D1*
X11966D2*
X30339D1*
X38914D2*
X53495D1*
X68396D2*
X73646D1*
X84846D2*
X99427D1*
X114328D2*
X130378D1*
X166266D2*
X179945D1*
X192512D2*
X206792D1*
X224766D2*
X240927D1*
X242322D2*
X259083D1*
X-261422Y199714D2*
X-256530D1*
X-243161D2*
X-235532D1*
X-221635D2*
X-217363D1*
X-212865D2*
X-207973D1*
X-194604D2*
X-186976D1*
X-173079D2*
X-168807D1*
X-164309D2*
X-159417D1*
X-146048D2*
X-138419D1*
X-124522D2*
X-120250D1*
X-95093D2*
X-79138D1*
X-70711D2*
X-52339D1*
X-43912D2*
X-27957D1*
X-15593D2*
X-10344D1*
X-175D2*
X4931D1*
X11966D2*
X30339D1*
X38509D2*
X55198D1*
X68396D2*
X73646D1*
X84440D2*
X101130D1*
X114328D2*
X134040D1*
X164750D2*
X179945D1*
X190997D2*
X208430D1*
X222971D2*
X260396D1*
X-261006Y198402D2*
X-256144D1*
X-243547D2*
X-235146D1*
X-221681D2*
X-217559D1*
X-212449D2*
X-207587D1*
X-194990D2*
X-186590D1*
X-173125D2*
X-169003D1*
X-163893D2*
X-159031D1*
X-146434D2*
X-138034D1*
X-124568D2*
X-120446D1*
X-96230D2*
X-90341D1*
X-84345D2*
X-78001D1*
X-65462D2*
X-61525D1*
X-45049D2*
X-39160D1*
X-33164D2*
X-26820D1*
X-15593D2*
X-10344D1*
X-1296D2*
X3868D1*
X17215D2*
X22465D1*
X38213D2*
X39525D1*
X49508D2*
X56392D1*
X68396D2*
X73646D1*
X84144D2*
X85457D1*
X95440D2*
X102323D1*
X114328D2*
X119835D1*
X130021D2*
X135547D1*
X163613D2*
X174447D1*
X189859D2*
X195743D1*
X203517D2*
X209720D1*
X222424D2*
X227189D1*
X237480D2*
X247390D1*
X255802D2*
X261340D1*
X-260558Y197089D2*
X-255747D1*
X-243944D2*
X-234744D1*
X-221848D2*
X-217690D1*
X-212001D2*
X-207190D1*
X-195387D2*
X-186188D1*
X-173292D2*
X-169133D1*
X-163445D2*
X-158634D1*
X-146831D2*
X-137631D1*
X-124736D2*
X-120577D1*
X-97072D2*
X-91439D1*
X-82764D2*
X-77159D1*
X-65462D2*
X-61525D1*
X-45891D2*
X-40258D1*
X-31583D2*
X-25978D1*
X-15593D2*
X-10344D1*
X-2524D2*
X2684D1*
X17215D2*
X22465D1*
X51282D2*
X57286D1*
X68396D2*
X73646D1*
X97214D2*
X103218D1*
X114328D2*
X119068D1*
X131114D2*
X136601D1*
X162771D2*
X170711D1*
X189017D2*
X194604D1*
X204656D2*
X210630D1*
X222139D2*
X227189D1*
X238415D2*
X245616D1*
X256570D2*
X261975D1*
X-260117Y195777D2*
X-255305D1*
X-244385D2*
X-234262D1*
X-222163D2*
X-217891D1*
X-211561D2*
X-206749D1*
X-195829D2*
X-185705D1*
X-173606D2*
X-169335D1*
X-163004D2*
X-158192D1*
X-147272D2*
X-137149D1*
X-125050D2*
X-120778D1*
X-97662D2*
X-92269D1*
X-81717D2*
X-76574D1*
X-65462D2*
X-61525D1*
X-46481D2*
X-41087D1*
X-30536D2*
X-25393D1*
X-15593D2*
X-10339D1*
X-3807D2*
X1429D1*
X17215D2*
X22465D1*
X51984D2*
X57601D1*
X68396D2*
X73646D1*
X97916D2*
X103532D1*
X114328D2*
X118628D1*
X131893D2*
X137279D1*
X162186D2*
X168159D1*
X188427D2*
X193657D1*
X205602D2*
X211275D1*
X222015D2*
X227189D1*
X239169D2*
X244916D1*
X257009D2*
X262330D1*
X-259697Y194465D2*
X-254867D1*
X-244823D2*
X-241365D1*
X-237328D2*
X-233702D1*
X-222504D2*
X-218224D1*
X-211141D2*
X-206311D1*
X-196267D2*
X-192809D1*
X-188772D2*
X-185146D1*
X-173948D2*
X-169667D1*
X-162585D2*
X-157754D1*
X-147710D2*
X-144252D1*
X-140215D2*
X-136589D1*
X-125391D2*
X-121111D1*
X-98042D2*
X-92916D1*
X-80965D2*
X-76240D1*
X-65462D2*
X-61525D1*
X-46861D2*
X-41735D1*
X-29783D2*
X-25059D1*
X-15593D2*
X-10289D1*
X-5157D2*
X141D1*
X17215D2*
X22465D1*
X52386D2*
X57771D1*
X68396D2*
X73646D1*
X98318D2*
X103703D1*
X114328D2*
X118415D1*
X132336D2*
X137650D1*
X161851D2*
X167250D1*
X188047D2*
X192900D1*
X206360D2*
X211816D1*
X221967D2*
X227189D1*
X239719D2*
X244535D1*
X257223D2*
X262501D1*
X-259247Y193152D2*
X-254448D1*
X-245243D2*
X-241533D1*
X-237160D2*
X-233131D1*
X-222779D2*
X-218611D1*
X-210691D2*
X-205891D1*
X-196686D2*
X-192977D1*
X-188603D2*
X-184575D1*
X-174223D2*
X-170055D1*
X-162134D2*
X-157335D1*
X-148130D2*
X-144420D1*
X-140047D2*
X-136018D1*
X-125666D2*
X-121498D1*
X-98373D2*
X-93589D1*
X-80383D2*
X-76077D1*
X-65462D2*
X-61525D1*
X-47192D2*
X-42408D1*
X-29202D2*
X-24896D1*
X-15593D2*
X-10086D1*
X-6667D2*
X-1162D1*
X17215D2*
X22465D1*
X52648D2*
X57848D1*
X68396D2*
X73646D1*
X98580D2*
X103780D1*
X114328D2*
X118323D1*
X132550D2*
X137827D1*
X161688D2*
X166555D1*
X187717D2*
X192349D1*
X206910D2*
X212250D1*
X221949D2*
X227189D1*
X240040D2*
X244361D1*
X257315D2*
X262575D1*
X-258806Y191840D2*
X-253998D1*
X-245693D2*
X-241853D1*
X-236840D2*
X-232618D1*
X-223068D2*
X-219009D1*
X-210249D2*
X-205441D1*
X-197136D2*
X-193296D1*
X-188284D2*
X-184061D1*
X-174512D2*
X-170452D1*
X-161693D2*
X-156885D1*
X-148580D2*
X-144740D1*
X-139727D2*
X-135505D1*
X-125955D2*
X-121896D1*
X-98753D2*
X-94333D1*
X-79898D2*
X-76006D1*
X-65462D2*
X-61525D1*
X-47572D2*
X-43152D1*
X-28717D2*
X-24825D1*
X-15593D2*
X-9637D1*
X-8426D2*
X-2470D1*
X17215D2*
X22465D1*
X46248D2*
X57879D1*
X68396D2*
X73646D1*
X92180D2*
X103811D1*
X114328D2*
X118286D1*
X132643D2*
X137903D1*
X161617D2*
X166054D1*
X187336D2*
X192028D1*
X207232D2*
X212517D1*
X221943D2*
X227189D1*
X240199D2*
X244291D1*
X257352D2*
X262605D1*
X-258385Y190528D2*
X-253556D1*
X-246134D2*
X-242235D1*
X-236457D2*
X-232163D1*
X-223443D2*
X-219450D1*
X-209829D2*
X-205000D1*
X-197578D2*
X-193679D1*
X-187901D2*
X-183606D1*
X-174887D2*
X-170894D1*
X-161272D2*
X-156443D1*
X-149021D2*
X-145123D1*
X-139345D2*
X-135050D1*
X-126331D2*
X-122338D1*
X-99072D2*
X-75977D1*
X-65462D2*
X-61525D1*
X-47891D2*
X-24796D1*
X-15593D2*
X-306D1*
X17215D2*
X22465D1*
X41690D2*
X57891D1*
X68396D2*
X73646D1*
X87621D2*
X103823D1*
X114328D2*
X118273D1*
X132680D2*
X137933D1*
X161589D2*
X165765D1*
X187017D2*
X191870D1*
X207390D2*
X212653D1*
X221941D2*
X227189D1*
X240268D2*
X244264D1*
X257365D2*
X262616D1*
X-257935Y189215D2*
X-253136D1*
X-246554D2*
X-242632D1*
X-236061D2*
X-231697D1*
X-223849D2*
X-219889D1*
X-209379D2*
X-204580D1*
X-197998D2*
X-194075D1*
X-187505D2*
X-183141D1*
X-175293D2*
X-171332D1*
X-160822D2*
X-156023D1*
X-149441D2*
X-145519D1*
X-138948D2*
X-134585D1*
X-126736D2*
X-122776D1*
X-99144D2*
X-75966D1*
X-65462D2*
X-61525D1*
X-47963D2*
X-24785D1*
X-15593D2*
X1443D1*
X17215D2*
X22465D1*
X38456D2*
X57895D1*
X68396D2*
X73646D1*
X84388D2*
X103827D1*
X114328D2*
X118268D1*
X132693D2*
X137944D1*
X161578D2*
X165666D1*
X186945D2*
X191805D1*
X207455D2*
X212709D1*
X221940D2*
X227189D1*
X240296D2*
X244254D1*
X257370D2*
X262620D1*
X-257493Y187903D2*
X-252691D1*
X-247005D2*
X-243073D1*
X-235620D2*
X-231250D1*
X-224259D2*
X-220308D1*
X-208937D2*
X-204134D1*
X-198448D2*
X-194516D1*
X-187064D2*
X-182694D1*
X-175703D2*
X-171752D1*
X-160380D2*
X-155578D1*
X-149892D2*
X-145960D1*
X-138507D2*
X-134137D1*
X-127146D2*
X-123195D1*
X-98955D2*
X-75961D1*
X-65462D2*
X-61525D1*
X-47774D2*
X-24780D1*
X-15593D2*
X-7664D1*
X-4095D2*
X2804D1*
X17215D2*
X22465D1*
X37190D2*
X42408D1*
X52648D2*
X57897D1*
X68396D2*
X73646D1*
X83122D2*
X88339D1*
X98580D2*
X103829D1*
X114328D2*
X118266D1*
X132698D2*
X137943D1*
X161574D2*
X165769D1*
X187134D2*
X191823D1*
X207436D2*
X212687D1*
X221940D2*
X227189D1*
X240307D2*
X244251D1*
X257372D2*
X262621D1*
X-257073Y186591D2*
X-252290D1*
X-247457D2*
X-243511D1*
X-235182D2*
X-230827D1*
X-224745D2*
X-220758D1*
X-208517D2*
X-203734D1*
X-198900D2*
X-194955D1*
X-186625D2*
X-182271D1*
X-176188D2*
X-172202D1*
X-159960D2*
X-155177D1*
X-150344D2*
X-146398D1*
X-138069D2*
X-133715D1*
X-127632D2*
X-123645D1*
X-98671D2*
X-94125D1*
X-65462D2*
X-61525D1*
X-47490D2*
X-42944D1*
X-15593D2*
X-8757D1*
X-2230D2*
X3887D1*
X17215D2*
X22465D1*
X36225D2*
X41640D1*
X52648D2*
X57897D1*
X68396D2*
X73646D1*
X82156D2*
X87572D1*
X98580D2*
X103829D1*
X114328D2*
X118265D1*
X132695D2*
X137898D1*
X161578D2*
X166062D1*
X187418D2*
X191985D1*
X207275D2*
X212530D1*
X221940D2*
X227189D1*
X240310D2*
X244250D1*
X257372D2*
X262622D1*
X-256623Y185278D2*
X-251987D1*
X-247978D2*
X-243930D1*
X-234758D2*
X-230376D1*
X-225310D2*
X-221200D1*
X-208066D2*
X-203431D1*
X-199421D2*
X-195374D1*
X-186201D2*
X-181820D1*
X-176754D2*
X-172643D1*
X-159510D2*
X-154874D1*
X-150865D2*
X-146817D1*
X-137645D2*
X-133263D1*
X-128197D2*
X-124087D1*
X-98419D2*
X-93744D1*
X-65462D2*
X-61525D1*
X-47238D2*
X-42563D1*
X-15593D2*
X-9536D1*
X-784D2*
X4682D1*
X17215D2*
X22465D1*
X35900D2*
X41206D1*
X52648D2*
X57898D1*
X68396D2*
X73646D1*
X81832D2*
X87137D1*
X98580D2*
X103829D1*
X114328D2*
X118270D1*
X132644D2*
X137726D1*
X161624D2*
X166440D1*
X187670D2*
X192347D1*
X206913D2*
X212214D1*
X221940D2*
X227189D1*
X240312D2*
X244250D1*
X257373D2*
X262622D1*
X-256181Y183966D2*
X-251653D1*
X-248665D2*
X-244380D1*
X-234267D2*
X-229931D1*
X-225927D2*
X-221625D1*
X-207625D2*
X-203097D1*
X-200109D2*
X-195824D1*
X-185710D2*
X-181374D1*
X-177371D2*
X-173069D1*
X-159068D2*
X-154540D1*
X-151552D2*
X-147267D1*
X-137154D2*
X-132818D1*
X-128814D2*
X-124512D1*
X-98134D2*
X-93098D1*
X-65462D2*
X-61525D1*
X-46953D2*
X-41912D1*
X-15593D2*
X-9979D1*
X-91D2*
X5274D1*
X17220D2*
X22465D1*
X35769D2*
X40959D1*
X52648D2*
X57898D1*
X68396D2*
X73646D1*
X81701D2*
X86891D1*
X98580D2*
X103829D1*
X114328D2*
X118357D1*
X132521D2*
X137366D1*
X161796D2*
X166920D1*
X187955D2*
X192926D1*
X206333D2*
X211827D1*
X221940D2*
X227189D1*
X240312D2*
X244249D1*
X257373D2*
X262622D1*
X-255761Y182654D2*
X-251143D1*
X-250146D2*
X-244822D1*
X-233704D2*
X-229474D1*
X-226601D2*
X-222116D1*
X-207204D2*
X-202587D1*
X-201589D2*
X-196265D1*
X-185148D2*
X-180917D1*
X-178044D2*
X-173560D1*
X-158648D2*
X-154030D1*
X-153033D2*
X-147709D1*
X-136591D2*
X-132361D1*
X-129488D2*
X-125004D1*
X-97716D2*
X-92187D1*
X-65462D2*
X-61525D1*
X-46535D2*
X-40986D1*
X-15593D2*
X-10193D1*
X542D2*
X5798D1*
X17272D2*
X22465D1*
X35867D2*
X41195D1*
X52648D2*
X57898D1*
X68396D2*
X73646D1*
X81799D2*
X87127D1*
X98580D2*
X103829D1*
X114328D2*
X118588D1*
X131873D2*
X136852D1*
X162161D2*
X167584D1*
X188373D2*
X193681D1*
X205578D2*
X211380D1*
X221940D2*
X227189D1*
X240312D2*
X244249D1*
X257373D2*
X262622D1*
X-255310Y181341D2*
X-245242D1*
X-233132D2*
X-228887D1*
X-227359D2*
X-222684D1*
X-206754D2*
X-196686D1*
X-184575D2*
X-180330D1*
X-178803D2*
X-174128D1*
X-158197D2*
X-148129D1*
X-136019D2*
X-131774D1*
X-130246D2*
X-125571D1*
X-112706D2*
X-108769D1*
X-97129D2*
X-89245D1*
X-65462D2*
X-61525D1*
X-45948D2*
X-37504D1*
X-15593D2*
X-10286D1*
X1166D2*
X6269D1*
X17490D2*
X22465D1*
X36252D2*
X42752D1*
X52648D2*
X57877D1*
X68396D2*
X73646D1*
X82184D2*
X88684D1*
X98580D2*
X103809D1*
X114343D2*
X120168D1*
X129311D2*
X136206D1*
X147136D2*
X151073D1*
X162727D2*
X170181D1*
X188955D2*
X195877D1*
X203383D2*
X210721D1*
X221940D2*
X227189D1*
X240312D2*
X244249D1*
X257373D2*
X262622D1*
X-254865Y180029D2*
X-245687D1*
X-232614D2*
X-223302D1*
X-206308D2*
X-197131D1*
X-184058D2*
X-174745D1*
X-157752D2*
X-148575D1*
X-135501D2*
X-126189D1*
X-113321D2*
X-108217D1*
X-96259D2*
X-85076D1*
X-65462D2*
X-61525D1*
X-45078D2*
X-31845D1*
X-26092D2*
D3*
X-15593D2*
X-10323D1*
X1758D2*
X6701D1*
X18023D2*
X22465D1*
X30339D2*
D3*
X36853D2*
X47254D1*
X52648D2*
X57816D1*
X68396D2*
X73646D1*
X82785D2*
X93185D1*
X98580D2*
X103747D1*
X114493D2*
X124677D1*
X125014D2*
X135312D1*
X146521D2*
X151626D1*
X163588D2*
X174497D1*
X179945D2*
D3*
X189775D2*
X199314D1*
X199945D2*
X209746D1*
X221940D2*
X227189D1*
X240312D2*
X244249D1*
X257373D2*
X262622D1*
X-254408Y178717D2*
X-246086D1*
X-232122D2*
X-223976D1*
X-205851D2*
X-197530D1*
X-183566D2*
X-175419D1*
X-157295D2*
X-148973D1*
X-135009D2*
X-126863D1*
X-114018D2*
X-107889D1*
X-94860D2*
X-80444D1*
X-65462D2*
X-61525D1*
X-43679D2*
X-26092D1*
X-15593D2*
X-10336D1*
X2238D2*
X7162D1*
X18891D2*
X30339D1*
X38255D2*
X57200D1*
X68396D2*
X73646D1*
X84187D2*
X103132D1*
X114851D2*
X133970D1*
X145824D2*
X151954D1*
X164984D2*
X179945D1*
X190971D2*
X208422D1*
X221940D2*
X227189D1*
X240312D2*
X244249D1*
X257373D2*
X262622D1*
X-253821Y177404D2*
X-246360D1*
X-231520D2*
X-224734D1*
X-205265D2*
X-197804D1*
X-182964D2*
X-176178D1*
X-156708D2*
X-149247D1*
X-134407D2*
X-127622D1*
X-113321D2*
X-108252D1*
X-92816D2*
X-75961D1*
X-65462D2*
X-61525D1*
X-41635D2*
X-24780D1*
X-15593D2*
X-10341D1*
X2551D2*
X7615D1*
X19979D2*
X30339D1*
X40090D2*
X55155D1*
X68396D2*
X73646D1*
X86022D2*
X101087D1*
X116385D2*
X132139D1*
X146521D2*
X151590D1*
X167027D2*
X179945D1*
X192567D2*
X206748D1*
X221940D2*
X227189D1*
X240312D2*
X244249D1*
X257373D2*
X262622D1*
X-253126Y176092D2*
X-246564D1*
X-230816D2*
X-225567D1*
X-204570D2*
X-198008D1*
X-182260D2*
X-177010D1*
X-156013D2*
X-149451D1*
X-133703D2*
X-128454D1*
X-112706D2*
X-108769D1*
X-90396D2*
X-78585D1*
X-65462D2*
X-61525D1*
X-39215D2*
X-27404D1*
X-15593D2*
X-10344D1*
X2780D2*
X8029D1*
X21152D2*
X30339D1*
X42150D2*
X52648D1*
X68396D2*
X73646D1*
X88081D2*
X98580D1*
X118265D2*
X130076D1*
X147136D2*
X151073D1*
X169446D2*
X179945D1*
X194381D2*
X204879D1*
X221940D2*
X227189D1*
X240312D2*
X244249D1*
X257373D2*
X262622D1*
X152911Y130160D2*
X158160D1*
X181782D2*
X187031D1*
X204092D2*
X209341D1*
X255273D2*
X260522D1*
X153719Y128848D2*
X158969D1*
X181777D2*
X186829D1*
X200771D2*
X209341D1*
X251953D2*
X260522D1*
X154427Y127535D2*
X159676D1*
X181731D2*
X186503D1*
X198097D2*
X209341D1*
X249281D2*
X260522D1*
X155003Y126223D2*
X160253D1*
X181564D2*
X186158D1*
X197036D2*
X209341D1*
X248140D2*
X260522D1*
X155485Y124911D2*
X160734D1*
X181244D2*
X185882D1*
X196218D2*
X201467D1*
X205404D2*
X209341D1*
X247712D2*
X252648D1*
X256585D2*
X260522D1*
X155961Y123598D2*
X161210D1*
X180862D2*
X185593D1*
X205404D2*
X209341D1*
X247399D2*
D3*
X256585D2*
X260522D1*
X156412Y122286D2*
X161661D1*
X180465D2*
X185218D1*
X205404D2*
X209341D1*
X256585D2*
X260522D1*
X156841Y120974D2*
X162090D1*
X180029D2*
X184812D1*
X205404D2*
X209341D1*
X256585D2*
X260522D1*
X157334Y119661D2*
X162583D1*
X179632D2*
X184407D1*
X205404D2*
X209341D1*
X256585D2*
X260522D1*
X157897Y118349D2*
X163146D1*
X179334D2*
X183963D1*
X205404D2*
X209341D1*
X256585D2*
X260522D1*
X158469Y117037D2*
X163719D1*
X179031D2*
X183524D1*
X205404D2*
X209341D1*
X256585D2*
X260522D1*
X158983Y115724D2*
X164232D1*
X178612D2*
X183104D1*
X205404D2*
X209341D1*
X256585D2*
X260522D1*
X159443Y114412D2*
X164688D1*
X178084D2*
X182654D1*
X205404D2*
X209341D1*
X256585D2*
X260522D1*
X159950Y113100D2*
X165153D1*
X177526D2*
X182212D1*
X205404D2*
X209341D1*
X256585D2*
X260522D1*
X160518Y111787D2*
X165600D1*
X177019D2*
X181787D1*
X205404D2*
X209341D1*
X256585D2*
X260522D1*
X161093Y110475D2*
X166028D1*
X176561D2*
X181296D1*
X205404D2*
X209341D1*
X256585D2*
X260522D1*
X161607Y109163D2*
X166520D1*
X176055D2*
X180733D1*
X205404D2*
X209341D1*
X256585D2*
X260522D1*
X162063Y107850D2*
X167083D1*
X175482D2*
X180160D1*
X205404D2*
X209341D1*
X256585D2*
X260522D1*
X162528Y106538D2*
X167656D1*
X174866D2*
X179647D1*
X205404D2*
X209341D1*
X256585D2*
X260522D1*
X162976Y105226D2*
X168169D1*
X174231D2*
X179187D1*
X205404D2*
X209341D1*
X256585D2*
X260522D1*
X163403Y103913D2*
X168630D1*
X173623D2*
X178680D1*
X205404D2*
X209341D1*
X256585D2*
X260522D1*
X163896Y102601D2*
X169140D1*
X173091D2*
X178106D1*
X205404D2*
X209341D1*
X256585D2*
X260522D1*
X164459Y101289D2*
X169748D1*
X172593D2*
X177491D1*
X205404D2*
X209341D1*
X256585D2*
X260522D1*
X165031Y99976D2*
X170472D1*
X171988D2*
X176850D1*
X205404D2*
X209341D1*
X256585D2*
X260522D1*
X165545Y98664D2*
X176202D1*
X205404D2*
X209341D1*
X229026D2*
X232963D1*
X256585D2*
X260522D1*
X166001Y97352D2*
X175551D1*
X205404D2*
X209341D1*
X228411D2*
X233515D1*
X256585D2*
X260522D1*
X166472Y96039D2*
X174931D1*
X205404D2*
X209341D1*
X227714D2*
X233844D1*
X256585D2*
X260522D1*
X166930Y94727D2*
X174384D1*
X205404D2*
X209341D1*
X228411D2*
X233480D1*
X256585D2*
X260522D1*
X167346Y93415D2*
X173908D1*
X205404D2*
X209341D1*
X229026D2*
X232963D1*
X256585D2*
X260522D1*
X112992Y-41732D2*
D14*
X111103Y-42717D1*
X109588Y-43701D1*
X108447Y-44685D1*
X107610Y-45669D1*
X106991Y-46654D1*
X106554Y-47638D1*
X106272Y-48622D1*
X106025Y-49606D1*
X105736Y-50591D1*
X105463Y-51575D1*
X105283Y-52559D1*
X105189Y-53543D1*
X105146Y-54528D1*
X105129Y-55512D1*
X105122Y-56496D1*
X105119Y-57480D1*
X105122Y-58465D1*
X105157Y-59449D1*
X105282Y-60433D1*
X105518Y-61417D1*
X105774Y-62402D1*
X105980Y-63386D1*
X106201Y-64370D1*
X106517Y-65354D1*
X106950Y-66339D1*
X107536Y-67323D1*
X108356Y-68307D1*
X109527Y-69291D1*
X111130Y-70276D1*
X112992Y-71260D1*
X118898Y-41732D2*
X120635Y-42717D1*
X122069Y-43701D1*
X123143Y-44685D1*
X123996Y-45669D1*
X124714Y-46654D1*
X125239Y-47638D1*
X125561Y-48622D1*
X125787Y-49606D1*
X134646Y-41732D2*
X133248Y-42717D1*
X132146Y-43701D1*
X131294Y-44685D1*
X130991Y-45669D1*
X130819Y-46654D1*
X130709Y-47638D1*
X138583Y-41732D2*
Y-42717D1*
Y-43701D1*
Y-44685D1*
Y-45669D1*
Y-46654D1*
Y-47638D1*
Y-48622D1*
Y-49606D1*
Y-50591D1*
Y-51575D1*
Y-52559D1*
Y-53543D1*
Y-54528D1*
Y-55512D1*
Y-56496D1*
Y-57480D1*
Y-58465D1*
Y-59449D1*
Y-60433D1*
Y-61417D1*
Y-62402D1*
Y-63386D1*
Y-64370D1*
Y-65354D1*
Y-66339D1*
Y-67323D1*
Y-68307D1*
Y-69291D1*
Y-70276D1*
Y-71260D1*
X115945Y-44685D2*
X114174Y-45669D1*
X112648Y-46654D1*
X111464Y-47638D1*
X110594Y-48622D1*
X109957Y-49606D1*
X109516Y-50591D1*
X109265Y-51575D1*
X109142Y-52559D1*
X109089Y-53543D1*
X109068Y-54528D1*
X109060Y-55512D1*
X109057Y-56496D1*
X109056Y-57480D1*
X109055Y-58465D1*
X109059Y-59449D1*
X109094Y-60433D1*
X109223Y-61417D1*
X109497Y-62402D1*
X109917Y-63386D1*
X110538Y-64370D1*
X111361Y-65354D1*
X113226Y-66339D1*
X115832Y-67323D1*
X118898Y-68307D1*
X115945Y-44685D2*
X117716Y-45669D1*
X119239Y-46654D1*
X120401Y-47638D1*
X121217Y-48622D1*
X121850Y-49606D1*
X135630Y-45669D2*
X133661Y-46654D1*
X131693Y-47638D1*
X135630Y-45669D2*
Y-46654D1*
Y-47638D1*
Y-48622D1*
Y-49606D1*
Y-50591D1*
Y-51575D1*
Y-52559D1*
Y-53543D1*
Y-54528D1*
Y-55512D1*
Y-56496D1*
Y-57480D1*
Y-58465D1*
Y-59449D1*
Y-60433D1*
Y-61417D1*
Y-62402D1*
Y-63386D1*
Y-64370D1*
Y-65354D1*
Y-66339D1*
Y-67323D1*
Y-68307D1*
Y-69291D1*
Y-70276D1*
Y-71260D1*
X121850Y-63386D2*
X121268Y-64370D1*
X120492Y-65354D1*
X118646Y-66339D1*
X116051Y-67323D1*
X112992Y-68307D1*
X125787Y-63386D2*
X125598Y-64370D1*
X125224Y-65354D1*
X124691Y-66339D1*
X124064Y-67323D1*
X123237Y-68307D1*
X122057Y-69291D1*
X120550Y-70276D1*
X118898Y-71260D1*
X-237402Y-92913D2*
X-238799Y-93898D1*
X-239905Y-94882D1*
X-240667Y-95866D1*
X-241188Y-96850D1*
X-241610Y-97835D1*
X-241942Y-98819D1*
X-242141Y-99803D1*
X-242209Y-100787D1*
X-242129Y-101772D1*
X-241908Y-102756D1*
X-241625Y-103740D1*
X-241288Y-104724D1*
X-240760Y-105709D1*
X-239916Y-106693D1*
X-238746Y-107677D1*
X-237402Y-108661D1*
X-231496Y-92913D2*
X-229905Y-93898D1*
X-228391Y-94882D1*
X-226974Y-95866D1*
X-225628Y-96850D1*
X-224287Y-97835D1*
X-222965Y-98819D1*
X-221659Y-99803D1*
X-220302Y-100787D1*
X-218866Y-101772D1*
X-217340Y-102756D1*
X-215748Y-103740D1*
Y-92913D2*
Y-93898D1*
Y-94882D1*
Y-95866D1*
Y-96850D1*
Y-97835D1*
Y-98819D1*
X-215752Y-99803D1*
X-215789Y-100787D1*
X-215941Y-101772D1*
X-216278Y-102756D1*
X-216732Y-103740D1*
X-212795Y-92913D2*
Y-93898D1*
Y-94882D1*
Y-95866D1*
Y-96850D1*
Y-97835D1*
Y-98819D1*
Y-99803D1*
Y-100787D1*
Y-101772D1*
Y-102756D1*
Y-103740D1*
Y-104724D1*
Y-105709D1*
Y-106693D1*
Y-107677D1*
Y-108661D1*
X-235433Y-95866D2*
X-236376Y-96850D1*
X-237196Y-97835D1*
X-237780Y-98819D1*
X-238112Y-99803D1*
X-238265Y-100787D1*
X-238262Y-101772D1*
X-238123Y-102756D1*
X-237447Y-103740D1*
X-236688Y-104724D1*
X-236088Y-105709D1*
X-235731Y-106693D1*
X-235548Y-107677D1*
X-235433Y-108661D1*
X-236417Y-95866D2*
X-233699Y-96850D1*
X-231320Y-97835D1*
X-229418Y-98819D1*
X-227907Y-99803D1*
X-226567Y-100787D1*
X-225247Y-101772D1*
X-223937Y-102756D1*
X-222642Y-103740D1*
X-221322Y-104724D1*
X-220004Y-105709D1*
X-218678Y-106693D1*
X-217254Y-107677D1*
X-215748Y-108661D1*
X-220669Y-114567D2*
X-220662Y-115551D1*
X-220589Y-116535D1*
X-220416Y-117520D1*
X-219693Y-118504D1*
X-218771Y-119488D1*
X-217808Y-120472D1*
X-216965Y-121457D1*
X-216366Y-122441D1*
X-216026Y-123425D1*
X-215867Y-124409D1*
X-215834Y-125394D1*
X-215970Y-126378D1*
X-216359Y-127362D1*
X-217008Y-128346D1*
X-217830Y-129331D1*
X-218742Y-130315D1*
X-219685Y-131299D1*
Y-114567D2*
X-217947Y-115551D1*
X-216514Y-116535D1*
X-215440Y-117520D1*
X-214586Y-118504D1*
X-213869Y-119488D1*
X-213348Y-120472D1*
X-213047Y-121457D1*
X-212900Y-122441D1*
X-212836Y-123425D1*
X-212810Y-124409D1*
X-212801Y-125394D1*
Y-126378D1*
X-212838Y-127362D1*
X-212998Y-128346D1*
X-213367Y-129331D1*
X-213928Y-130315D1*
X-214649Y-131299D1*
X-215622Y-132283D1*
X-216965Y-133268D1*
X-218702Y-134252D1*
X-220669Y-135236D1*
X-236417Y-115551D2*
X-237818Y-116535D1*
X-238955Y-117520D1*
X-239812Y-118504D1*
X-240478Y-119488D1*
X-241042Y-120472D1*
X-241529Y-121457D1*
X-241903Y-122441D1*
X-242128Y-123425D1*
X-242237Y-124409D1*
X-242252Y-125394D1*
X-242143Y-126378D1*
X-241881Y-127362D1*
X-241502Y-128346D1*
X-241057Y-129331D1*
X-240546Y-130315D1*
X-239894Y-131299D1*
X-238970Y-132283D1*
X-237702Y-133268D1*
X-236140Y-134252D1*
X-234449Y-135236D1*
Y-115551D2*
X-234494Y-116535D1*
X-234599Y-117520D1*
X-235157Y-118504D1*
X-235933Y-119488D1*
X-236739Y-120472D1*
X-237410Y-121457D1*
X-237887Y-122441D1*
X-238160Y-123425D1*
X-238288Y-124409D1*
X-238307Y-125394D1*
X-238166Y-126378D1*
X-237775Y-127362D1*
X-237126Y-128346D1*
X-236304Y-129331D1*
X-235392Y-130315D1*
X-234449Y-131299D1*
X-33858Y-29528D2*
Y-30512D1*
Y-31496D1*
Y-32480D1*
Y-33465D1*
Y-34449D1*
Y-35433D1*
Y-36417D1*
Y-37402D1*
Y-38386D1*
Y-39370D1*
Y-40354D1*
Y-41339D1*
Y-42323D1*
Y-43307D1*
Y-44291D1*
Y-45276D1*
Y-46260D1*
Y-47244D1*
Y-48228D1*
Y-49213D1*
Y-50197D1*
Y-51181D1*
Y-52165D1*
Y-53150D1*
Y-54134D1*
Y-55118D1*
Y-56102D1*
Y-57087D1*
Y-58071D1*
Y-59055D1*
X-29921Y-29528D2*
Y-30512D1*
Y-31496D1*
Y-32480D1*
Y-33465D1*
Y-34449D1*
Y-35433D1*
Y-36417D1*
Y-37402D1*
Y-38386D1*
Y-39370D1*
Y-40354D1*
Y-41339D1*
Y-42323D1*
Y-43307D1*
Y-44291D1*
Y-45276D1*
Y-46260D1*
Y-47244D1*
Y-48228D1*
Y-49213D1*
Y-50197D1*
Y-51181D1*
Y-52165D1*
Y-53150D1*
Y-54134D1*
Y-55118D1*
Y-56102D1*
X-9252Y-29528D2*
Y-30512D1*
Y-31496D1*
Y-32480D1*
Y-33465D1*
Y-34449D1*
Y-35433D1*
Y-36417D1*
Y-37402D1*
Y-38386D1*
Y-39370D1*
Y-40354D1*
Y-41339D1*
Y-42323D1*
Y-43307D1*
Y-44291D1*
Y-45276D1*
Y-46260D1*
Y-47244D1*
Y-48228D1*
Y-49213D1*
Y-50197D1*
Y-51181D1*
Y-52165D1*
Y-53150D1*
Y-54134D1*
Y-55118D1*
Y-56102D1*
Y-57087D1*
Y-58071D1*
Y-59055D1*
X9449Y-29528D2*
Y-30512D1*
Y-31496D1*
Y-32480D1*
X16339Y-29528D2*
Y-30512D1*
Y-31496D1*
Y-32480D1*
Y-33465D1*
Y-34449D1*
Y-35433D1*
Y-36417D1*
Y-37402D1*
Y-38386D1*
Y-39370D1*
Y-40354D1*
Y-41339D1*
Y-42323D1*
Y-43307D1*
Y-44291D1*
Y-45276D1*
Y-46260D1*
Y-47244D1*
Y-48228D1*
Y-49213D1*
Y-50197D1*
Y-51181D1*
Y-52165D1*
Y-53150D1*
Y-54134D1*
Y-55118D1*
Y-56102D1*
Y-57087D1*
Y-58071D1*
Y-59055D1*
X30118Y-29528D2*
X31856Y-30512D1*
X33286Y-31496D1*
X34329Y-32480D1*
X35091Y-33465D1*
X35699Y-34449D1*
X36203Y-35433D1*
X36585Y-36417D1*
X36812Y-37402D1*
X36926Y-38386D1*
X36976Y-39370D1*
X36996Y-40354D1*
X37004Y-41339D1*
X37006Y-42323D1*
X37007Y-43307D1*
X37008Y-44291D1*
Y-45276D1*
Y-46260D1*
Y-47244D1*
Y-48228D1*
X37004Y-49213D1*
X36969Y-50197D1*
X36840Y-51181D1*
X36570Y-52165D1*
X36188Y-53150D1*
X35738Y-54134D1*
X35193Y-55118D1*
X34416Y-56102D1*
X33260Y-57087D1*
X31764Y-58071D1*
X30118Y-59055D1*
X-5315Y-32480D2*
Y-33465D1*
Y-34449D1*
Y-35433D1*
Y-36417D1*
Y-37402D1*
Y-38386D1*
Y-39370D1*
Y-40354D1*
Y-41339D1*
Y-42323D1*
Y-43307D1*
X20276Y-32480D2*
Y-33465D1*
Y-34449D1*
Y-35433D1*
Y-36417D1*
Y-37402D1*
Y-38386D1*
Y-39370D1*
Y-40354D1*
Y-41339D1*
Y-42323D1*
Y-43307D1*
Y-44291D1*
Y-45276D1*
Y-46260D1*
Y-47244D1*
Y-48228D1*
Y-49213D1*
Y-50197D1*
Y-51181D1*
Y-52165D1*
Y-53150D1*
Y-54134D1*
Y-55118D1*
X28150Y-56102D1*
X27165Y-32480D2*
X28937Y-33465D1*
X30458Y-34449D1*
X31608Y-35433D1*
X32482Y-36417D1*
X32786Y-37402D1*
X32950Y-38386D1*
X33024Y-39370D1*
X33054Y-40354D1*
X33065Y-41339D1*
X33069Y-42323D1*
X33070Y-43307D1*
X33071Y-44291D1*
Y-45276D1*
Y-46260D1*
Y-47244D1*
Y-48228D1*
X33067Y-49213D1*
X33029Y-50197D1*
X32861Y-51181D1*
X32542Y-52165D1*
X31623Y-53150D1*
X28927Y-54134D1*
X24628Y-55118D1*
X19291Y-56102D1*
X7480Y-43307D2*
Y-44291D1*
Y-45276D1*
Y-46260D1*
X-5315D2*
Y-47244D1*
Y-48228D1*
Y-49213D1*
Y-50197D1*
Y-51181D1*
Y-52165D1*
Y-53150D1*
Y-54134D1*
Y-55118D1*
Y-56102D1*
X-15157D2*
Y-57087D1*
Y-58071D1*
Y-59055D1*
X9449Y-56102D2*
Y-57087D1*
Y-58071D1*
Y-59055D1*
X233071Y-40945D2*
Y-41929D1*
Y-42913D1*
Y-43898D1*
Y-44882D1*
Y-45866D1*
Y-46850D1*
Y-47835D1*
Y-48819D1*
Y-49803D1*
Y-50787D1*
Y-51772D1*
Y-52756D1*
Y-53740D1*
Y-54724D1*
Y-55709D1*
Y-56693D1*
Y-57677D1*
Y-58661D1*
Y-59646D1*
Y-60630D1*
Y-61614D1*
Y-62598D1*
Y-63583D1*
Y-64567D1*
Y-65551D1*
Y-66535D1*
Y-67520D1*
Y-68504D1*
Y-69488D1*
Y-70472D1*
X247835Y-40945D2*
X249269Y-41929D1*
X250498Y-42913D1*
X251465Y-43898D1*
X252148Y-44882D1*
X252631Y-45866D1*
X253037Y-46850D1*
X253359Y-47835D1*
X253525Y-48819D1*
X253501Y-49803D1*
X253307Y-50787D1*
X253035Y-51772D1*
X252706Y-52756D1*
X252214Y-53740D1*
X251491Y-54724D1*
X250567Y-55709D1*
X249608Y-56693D1*
X248766Y-57677D1*
X248563Y-58661D1*
X248834Y-59646D1*
X249287Y-60630D1*
X249863Y-61614D1*
X250443Y-62598D1*
X250988Y-63583D1*
X251507Y-64567D1*
X252010Y-65551D1*
X252508Y-66535D1*
X253004Y-67520D1*
X253523Y-68504D1*
X254097Y-69488D1*
X254724Y-70472D1*
X263583Y-40945D2*
X262185Y-41929D1*
X261083Y-42913D1*
X260231Y-43898D1*
X259928Y-44882D1*
X259756Y-45866D1*
X259646Y-46850D1*
X267520Y-40945D2*
Y-41929D1*
Y-42913D1*
Y-43898D1*
Y-44882D1*
Y-45866D1*
Y-46850D1*
Y-47835D1*
Y-48819D1*
Y-49803D1*
Y-50787D1*
Y-51772D1*
Y-52756D1*
Y-53740D1*
Y-54724D1*
Y-55709D1*
Y-56693D1*
Y-57677D1*
Y-58661D1*
Y-59646D1*
Y-60630D1*
Y-61614D1*
Y-62598D1*
Y-63583D1*
Y-64567D1*
Y-65551D1*
Y-66535D1*
Y-67520D1*
Y-68504D1*
Y-69488D1*
Y-70472D1*
X237008Y-43898D2*
Y-44882D1*
Y-45866D1*
Y-46850D1*
Y-47835D1*
Y-48819D1*
Y-49803D1*
Y-50787D1*
Y-51772D1*
Y-52756D1*
Y-53740D1*
X245866Y-54724D1*
X244882Y-43898D2*
X246501Y-44882D1*
X247778Y-45866D1*
X248674Y-46850D1*
X249344Y-47835D1*
X249543Y-48819D1*
X249617Y-49803D1*
X249371Y-50787D1*
X248711Y-51772D1*
X246118Y-52756D1*
X241671Y-53740D1*
X236024Y-54724D1*
X264567Y-44882D2*
X262598Y-45866D1*
X260630Y-46850D1*
X264567Y-44882D2*
Y-45866D1*
Y-46850D1*
Y-47835D1*
Y-48819D1*
Y-49803D1*
Y-50787D1*
Y-51772D1*
Y-52756D1*
Y-53740D1*
Y-54724D1*
Y-55709D1*
Y-56693D1*
Y-57677D1*
Y-58661D1*
Y-59646D1*
Y-60630D1*
Y-61614D1*
Y-62598D1*
Y-63583D1*
Y-64567D1*
Y-65551D1*
Y-66535D1*
Y-67520D1*
Y-68504D1*
Y-69488D1*
Y-70472D1*
X237008Y-57677D2*
Y-58661D1*
Y-59646D1*
Y-60630D1*
Y-61614D1*
Y-62598D1*
Y-63583D1*
Y-64567D1*
Y-65551D1*
Y-66535D1*
Y-67520D1*
Y-68504D1*
Y-69488D1*
Y-70472D1*
X242913Y-57677D2*
X243742Y-58661D1*
X244447Y-59646D1*
X245047Y-60630D1*
X245589Y-61614D1*
X246100Y-62598D1*
X246601Y-63583D1*
X247095Y-64567D1*
X247589Y-65551D1*
X248080Y-66535D1*
X248570Y-67520D1*
X249036Y-68504D1*
X249446Y-69488D1*
X249803Y-70472D1*
X164961Y-41732D2*
Y-42717D1*
Y-43701D1*
Y-44685D1*
Y-45669D1*
Y-46654D1*
Y-47638D1*
Y-48622D1*
Y-49606D1*
Y-50591D1*
Y-51575D1*
Y-52559D1*
Y-53543D1*
Y-54528D1*
Y-55512D1*
Y-56496D1*
Y-57480D1*
Y-58465D1*
Y-59449D1*
Y-60433D1*
Y-61417D1*
Y-62402D1*
Y-63386D1*
Y-64370D1*
Y-65354D1*
Y-66339D1*
Y-67323D1*
Y-68307D1*
Y-69291D1*
Y-70276D1*
Y-71260D1*
X179724Y-41732D2*
X181159Y-42717D1*
X182388Y-43701D1*
X183355Y-44685D1*
X184038Y-45669D1*
X184521Y-46654D1*
X184927Y-47638D1*
X185248Y-48622D1*
X185414Y-49606D1*
X185391Y-50591D1*
X185197Y-51575D1*
X184925Y-52559D1*
X184596Y-53543D1*
X184104Y-54528D1*
X183380Y-55512D1*
X182457Y-56496D1*
X181498Y-57480D1*
X180656Y-58465D1*
X180452Y-59449D1*
X180723Y-60433D1*
X181177Y-61417D1*
X181753Y-62402D1*
X182333Y-63386D1*
X182878Y-64370D1*
X183397Y-65354D1*
X183900Y-66339D1*
X184397Y-67323D1*
X184894Y-68307D1*
X185413Y-69291D1*
X185987Y-70276D1*
X186614Y-71260D1*
X197441Y-41732D2*
X196040Y-42717D1*
X194903Y-43701D1*
X194050Y-44685D1*
X193418Y-45669D1*
X192977Y-46654D1*
X192709Y-47638D1*
X192520Y-48622D1*
X204331Y-41732D2*
X205613Y-42717D1*
X206602Y-43701D1*
X207345Y-44685D1*
X207946Y-45669D1*
X208444Y-46654D1*
X208791Y-47638D1*
X208981Y-48622D1*
X208789Y-49606D1*
X208535Y-50591D1*
X208250Y-51575D1*
X207891Y-52559D1*
X207440Y-53543D1*
X206887Y-54528D1*
X206262Y-55512D1*
X205631Y-56496D1*
X204954Y-57480D1*
X204196Y-58465D1*
X203437Y-59449D1*
X202733Y-60433D1*
X202023Y-61417D1*
X201252Y-62402D1*
X200487Y-63386D1*
X199781Y-64370D1*
X199067Y-65354D1*
X198262Y-66339D1*
X197376Y-67323D1*
X196457Y-68307D1*
X168898Y-44685D2*
Y-45669D1*
Y-46654D1*
Y-47638D1*
Y-48622D1*
Y-49606D1*
Y-50591D1*
Y-51575D1*
Y-52559D1*
Y-53543D1*
Y-54528D1*
X177756Y-55512D1*
X176772Y-44685D2*
X178391Y-45669D1*
X179668Y-46654D1*
X180563Y-47638D1*
X181234Y-48622D1*
X181433Y-49606D1*
X181507Y-50591D1*
X181260Y-51575D1*
X180601Y-52559D1*
X178008Y-53543D1*
X173561Y-54528D1*
X167913Y-55512D1*
X200394Y-44685D2*
X198771Y-45669D1*
X197460Y-46654D1*
X196419Y-47638D1*
X195472Y-48622D1*
X200394Y-44685D2*
X202127Y-45669D1*
X203523Y-46654D1*
X204596Y-47638D1*
X205018Y-48622D1*
X205023Y-49606D1*
X204825Y-50591D1*
X204476Y-51575D1*
X204042Y-52559D1*
X203540Y-53543D1*
X202932Y-54528D1*
X202207Y-55512D1*
X201460Y-56496D1*
X200761Y-57480D1*
X200050Y-58465D1*
X199248Y-59449D1*
X198393Y-60433D1*
X197577Y-61417D1*
X196846Y-62402D1*
X196125Y-63386D1*
X195349Y-64370D1*
X194586Y-65354D1*
X193918Y-66339D1*
X193367Y-67323D1*
X192961Y-68307D1*
X192722Y-69291D1*
X192598Y-70276D1*
X192520Y-71260D1*
X168898Y-58465D2*
Y-59449D1*
Y-60433D1*
Y-61417D1*
Y-62402D1*
Y-63386D1*
Y-64370D1*
Y-65354D1*
Y-66339D1*
Y-67323D1*
Y-68307D1*
Y-69291D1*
Y-70276D1*
Y-71260D1*
X174803Y-58465D2*
X175631Y-59449D1*
X176337Y-60433D1*
X176937Y-61417D1*
X177479Y-62402D1*
X177990Y-63386D1*
X178490Y-64370D1*
X178984Y-65354D1*
X179478Y-66339D1*
X179970Y-67323D1*
X180460Y-68307D1*
X180926Y-69291D1*
X181336Y-70276D1*
X181693Y-71260D1*
X209252Y-68307D2*
Y-69291D1*
Y-70276D1*
Y-71260D1*
X-279331Y-91142D2*
X-281068Y-92126D1*
X-282339Y-93110D1*
X-283225Y-94094D1*
X-283889Y-95079D1*
X-284417Y-96063D1*
X-284808Y-97047D1*
X-285035Y-98031D1*
X-285115Y-99016D1*
X-285036Y-100000D1*
X-284786Y-100984D1*
X-284412Y-101969D1*
X-283965Y-102953D1*
X-283422Y-103937D1*
X-282659Y-104921D1*
X-281579Y-105906D1*
X-280315Y-106890D1*
X-275394Y-91142D2*
X-273915Y-92126D1*
X-272494Y-93110D1*
X-271023Y-94094D1*
X-269488Y-95079D1*
X-266535Y-91142D2*
X-267821Y-92126D1*
X-268837Y-93110D1*
X-269676Y-94094D1*
X-270472Y-95079D1*
X-259646Y-91142D2*
X-258363Y-92126D1*
X-257379Y-93110D1*
X-256670Y-94094D1*
X-256194Y-95079D1*
X-255928Y-96063D1*
X-255799Y-97047D1*
X-255744Y-98031D1*
X-255721Y-99016D1*
X-255717Y-100000D1*
X-255749Y-100984D1*
X-255877Y-101969D1*
X-256151Y-102953D1*
X-256571Y-103937D1*
X-257179Y-104921D1*
X-258074Y-105906D1*
X-259270Y-106890D1*
X-260630Y-107874D1*
X-264567Y-94094D2*
X-266186Y-95079D1*
X-267463Y-96063D1*
X-268359Y-97047D1*
X-269029Y-98031D1*
X-269266Y-99016D1*
X-269401Y-100000D1*
X-269488Y-100984D1*
X-261614Y-94094D2*
X-260671Y-95079D1*
X-259852Y-96063D1*
X-259267Y-97047D1*
X-258939Y-98031D1*
X-258813Y-99016D1*
X-258877Y-100000D1*
X-259158Y-100984D1*
X-259685Y-101969D1*
X-260450Y-102953D1*
X-261280Y-103937D1*
X-261918Y-104921D1*
X-262290Y-105906D1*
X-262480Y-106890D1*
X-262598Y-107874D1*
X-279331Y-95079D2*
X-280122Y-96063D1*
X-280697Y-97047D1*
X-281023Y-98031D1*
X-281144Y-99016D1*
X-281138Y-100000D1*
X-280704Y-100984D1*
X-280084Y-101969D1*
X-279423Y-102953D1*
X-278908Y-103937D1*
X-278603Y-104921D1*
X-278445Y-105906D1*
X-278346Y-106890D1*
X-274409Y-95079D2*
X-273619Y-96063D1*
X-273043Y-97047D1*
X-272713Y-98031D1*
X-272553Y-99016D1*
X-272482Y-100000D1*
X-272441Y-100984D1*
X-256693Y-113780D2*
X-258624Y-114764D1*
X-260474Y-115748D1*
X-262281Y-116732D1*
X-264299Y-117717D1*
X-266754Y-118701D1*
X-269488Y-119685D1*
X-255709Y-113780D2*
X-255713Y-114764D1*
X-255755Y-115748D1*
X-255859Y-116732D1*
X-256356Y-117717D1*
X-257531Y-118701D1*
X-259038Y-119685D1*
X-260784Y-120669D1*
X-262650Y-121654D1*
X-264504Y-122638D1*
X-266131Y-123622D1*
X-267479Y-124606D1*
X-268004Y-125591D1*
X-268290Y-126575D1*
X-268420Y-127559D1*
X-268473Y-128543D1*
X-268493Y-129528D1*
X-268500Y-130512D1*
X-268504Y-131496D1*
X-280315Y-114764D2*
X-281598Y-115748D1*
X-282586Y-116732D1*
X-283329Y-117717D1*
X-283930Y-118701D1*
X-284432Y-119685D1*
X-284813Y-120669D1*
X-285041Y-121654D1*
X-285154Y-122638D1*
X-285204Y-123622D1*
X-285224Y-124606D1*
X-285232Y-125591D1*
X-285235Y-126575D1*
X-285236Y-127559D1*
Y-128543D1*
Y-129528D1*
Y-130512D1*
Y-131496D1*
Y-132480D1*
Y-133465D1*
Y-134449D1*
X-272441Y-114764D2*
X-271449Y-115748D1*
X-270390Y-116732D1*
X-269101Y-117717D1*
X-267444Y-118701D1*
X-265551Y-119685D1*
X-276378Y-117717D2*
X-278112Y-118701D1*
X-279507Y-119685D1*
X-280580Y-120669D1*
X-280953Y-121654D1*
X-281153Y-122638D1*
X-281242Y-123622D1*
X-281278Y-124606D1*
X-281292Y-125591D1*
X-281297Y-126575D1*
X-281298Y-127559D1*
X-281299Y-128543D1*
Y-129528D1*
Y-130512D1*
X-272441Y-131496D1*
X-276378Y-117717D2*
X-274644Y-118701D1*
X-273249Y-119685D1*
X-272176Y-120669D1*
X-271803Y-121654D1*
X-271603Y-122638D1*
X-271514Y-123622D1*
X-271478Y-124606D1*
X-271464Y-125591D1*
X-271459Y-126575D1*
X-271458Y-127559D1*
X-271457Y-128543D1*
Y-129528D1*
Y-130512D1*
X-280315Y-131496D1*
X-255709D2*
Y-132480D1*
Y-133465D1*
Y-134449D1*
X-204528Y-44882D2*
X-206265Y-45866D1*
X-207695Y-46850D1*
X-208735Y-47835D1*
X-209462Y-48819D1*
X-209944Y-49803D1*
X-210213Y-50787D1*
X-210342Y-51772D1*
X-210398Y-52756D1*
X-210416Y-53740D1*
X-210386Y-54724D1*
X-210225Y-55709D1*
X-209823Y-56693D1*
X-209121Y-57677D1*
X-208022Y-58661D1*
X-206262Y-59646D1*
X-203703Y-60630D1*
X-200750Y-61614D1*
X-198128Y-62598D1*
X-196249Y-63583D1*
X-194883Y-64567D1*
X-194331Y-65551D1*
X-194295Y-66535D1*
X-194616Y-67520D1*
X-195439Y-68504D1*
X-197971Y-69488D1*
X-201828Y-70472D1*
X-206496Y-71457D1*
X-196654Y-44882D2*
X-194924Y-45866D1*
X-193379Y-46850D1*
X-192581Y-47835D1*
X-192469Y-48819D1*
X-192717Y-49803D1*
X-181890Y-44882D2*
X-183287Y-45866D1*
X-184389Y-46850D1*
X-185241Y-47835D1*
X-185545Y-48819D1*
X-185716Y-49803D1*
X-185827Y-50787D1*
X-177953Y-44882D2*
Y-45866D1*
Y-46850D1*
Y-47835D1*
Y-48819D1*
Y-49803D1*
Y-50787D1*
Y-51772D1*
Y-52756D1*
Y-53740D1*
Y-54724D1*
Y-55709D1*
Y-56693D1*
Y-57677D1*
Y-58661D1*
Y-59646D1*
Y-60630D1*
Y-61614D1*
Y-62598D1*
Y-63583D1*
Y-64567D1*
Y-65551D1*
Y-66535D1*
Y-67520D1*
Y-68504D1*
Y-69488D1*
Y-70472D1*
Y-71457D1*
Y-72441D1*
Y-73425D1*
Y-74409D1*
X-201575Y-47835D2*
X-203346Y-48819D1*
X-204867Y-49803D1*
X-206014Y-50787D1*
X-206876Y-51772D1*
X-207129Y-52756D1*
X-206986Y-53740D1*
X-206474Y-54724D1*
X-205033Y-55709D1*
X-202769Y-56693D1*
X-199901Y-57677D1*
X-197121Y-58661D1*
X-194937Y-59646D1*
X-193411Y-60630D1*
X-192387Y-61614D1*
X-191687Y-62598D1*
X-191222Y-63583D1*
X-190962Y-64567D1*
X-190837Y-65551D1*
X-190786Y-66535D1*
X-190803Y-67520D1*
X-190959Y-68504D1*
X-191355Y-69488D1*
X-192014Y-70472D1*
X-192912Y-71457D1*
X-194131Y-72441D1*
X-195760Y-73425D1*
X-197638Y-74409D1*
X-200591Y-47835D2*
X-197638Y-48819D1*
X-194685Y-49803D1*
X-180906Y-48819D2*
X-182874Y-49803D1*
X-184843Y-50787D1*
X-180906Y-48819D2*
Y-49803D1*
Y-50787D1*
Y-51772D1*
Y-52756D1*
Y-53740D1*
Y-54724D1*
Y-55709D1*
Y-56693D1*
Y-57677D1*
Y-58661D1*
Y-59646D1*
Y-60630D1*
Y-61614D1*
Y-62598D1*
Y-63583D1*
Y-64567D1*
Y-65551D1*
Y-66535D1*
Y-67520D1*
Y-68504D1*
Y-69488D1*
Y-70472D1*
Y-71457D1*
Y-72441D1*
Y-73425D1*
Y-74409D1*
X-210433Y-68504D2*
X-210959Y-69488D1*
X-211639Y-70472D1*
X-212402Y-71457D1*
X-210252Y-72441D1*
X-207938Y-73425D1*
X-205512Y-74409D1*
X-209449Y-68504D2*
X-206049Y-69488D1*
X-201674Y-70472D1*
X-196654Y-71457D1*
X-210039Y-275591D2*
X-211777Y-276575D1*
X-213207Y-277559D1*
X-214246Y-278543D1*
X-214974Y-279528D1*
X-215456Y-280512D1*
X-215725Y-281496D1*
X-215854Y-282480D1*
X-215910Y-283465D1*
X-215928Y-284449D1*
X-215898Y-285433D1*
X-215737Y-286417D1*
X-215335Y-287402D1*
X-214633Y-288386D1*
X-213534Y-289370D1*
X-211774Y-290354D1*
X-209215Y-291339D1*
X-206262Y-292323D1*
X-203640Y-293307D1*
X-201761Y-294291D1*
X-200395Y-295276D1*
X-199843Y-296260D1*
X-199807Y-297244D1*
X-200128Y-298228D1*
X-200951Y-299213D1*
X-203483Y-300197D1*
X-207339Y-301181D1*
X-212008Y-302165D1*
X-202165Y-275591D2*
X-200435Y-276575D1*
X-198891Y-277559D1*
X-198093Y-278543D1*
X-197981Y-279528D1*
X-198228Y-280512D1*
X-185433Y-275591D2*
X-186834Y-276575D1*
X-187971Y-277559D1*
X-188824Y-278543D1*
X-189456Y-279528D1*
X-189897Y-280512D1*
X-190165Y-281496D1*
X-190354Y-282480D1*
X-178543Y-275591D2*
X-177261Y-276575D1*
X-176272Y-277559D1*
X-175529Y-278543D1*
X-174928Y-279528D1*
X-174430Y-280512D1*
X-174083Y-281496D1*
X-173893Y-282480D1*
X-174085Y-283465D1*
X-174339Y-284449D1*
X-174624Y-285433D1*
X-174983Y-286417D1*
X-175434Y-287402D1*
X-175987Y-288386D1*
X-176612Y-289370D1*
X-177243Y-290354D1*
X-177920Y-291339D1*
X-178678Y-292323D1*
X-179437Y-293307D1*
X-180141Y-294291D1*
X-180851Y-295276D1*
X-181622Y-296260D1*
X-182387Y-297244D1*
X-183093Y-298228D1*
X-183807Y-299213D1*
X-184612Y-300197D1*
X-185498Y-301181D1*
X-186417Y-302165D1*
X-207087Y-278543D2*
X-208858Y-279528D1*
X-210379Y-280512D1*
X-211525Y-281496D1*
X-212388Y-282480D1*
X-212641Y-283465D1*
X-212498Y-284449D1*
X-211986Y-285433D1*
X-210545Y-286417D1*
X-208281Y-287402D1*
X-205413Y-288386D1*
X-202633Y-289370D1*
X-200449Y-290354D1*
X-198923Y-291339D1*
X-197899Y-292323D1*
X-197199Y-293307D1*
X-196734Y-294291D1*
X-196474Y-295276D1*
X-196349Y-296260D1*
X-196298Y-297244D1*
X-196315Y-298228D1*
X-196470Y-299213D1*
X-196867Y-300197D1*
X-197526Y-301181D1*
X-198424Y-302165D1*
X-199643Y-303150D1*
X-201272Y-304134D1*
X-203150Y-305118D1*
X-206102Y-278543D2*
X-203150Y-279528D1*
X-200197Y-280512D1*
X-182480Y-278543D2*
X-184103Y-279528D1*
X-185414Y-280512D1*
X-186455Y-281496D1*
X-187402Y-282480D1*
X-182480Y-278543D2*
X-180747Y-279528D1*
X-179351Y-280512D1*
X-178278Y-281496D1*
X-177856Y-282480D1*
X-177851Y-283465D1*
X-178049Y-284449D1*
X-178398Y-285433D1*
X-178832Y-286417D1*
X-179334Y-287402D1*
X-179942Y-288386D1*
X-180667Y-289370D1*
X-181414Y-290354D1*
X-182113Y-291339D1*
X-182824Y-292323D1*
X-183626Y-293307D1*
X-184481Y-294291D1*
X-185297Y-295276D1*
X-186028Y-296260D1*
X-186750Y-297244D1*
X-187525Y-298228D1*
X-188288Y-299213D1*
X-188956Y-300197D1*
X-189507Y-301181D1*
X-189913Y-302165D1*
X-190152Y-303150D1*
X-190276Y-304134D1*
X-190354Y-305118D1*
X-215945Y-299213D2*
X-216471Y-300197D1*
X-217151Y-301181D1*
X-217913Y-302165D1*
X-215764Y-303150D1*
X-213450Y-304134D1*
X-211024Y-305118D1*
X-214961Y-299213D2*
X-211561Y-300197D1*
X-207186Y-301181D1*
X-202165Y-302165D1*
X-173622D2*
Y-303150D1*
Y-304134D1*
Y-305118D1*
X250197Y-226772D2*
X248459Y-227756D1*
X247029Y-228740D1*
X245990Y-229724D1*
X245262Y-230709D1*
X244780Y-231693D1*
X244511Y-232677D1*
X244382Y-233661D1*
X244326Y-234646D1*
X244308Y-235630D1*
X244338Y-236614D1*
X244499Y-237598D1*
X244901Y-238583D1*
X245603Y-239567D1*
X246702Y-240551D1*
X248462Y-241535D1*
X251021Y-242520D1*
X253974Y-243504D1*
X256596Y-244488D1*
X258475Y-245472D1*
X259841Y-246457D1*
X260394Y-247441D1*
X260429Y-248425D1*
X260109Y-249409D1*
X259286Y-250394D1*
X256753Y-251378D1*
X252897Y-252362D1*
X248228Y-253346D1*
X258071Y-226772D2*
X259801Y-227756D1*
X261346Y-228740D1*
X262143Y-229724D1*
X262256Y-230709D1*
X262008Y-231693D1*
X274803Y-226772D2*
X273402Y-227756D1*
X272265Y-228740D1*
X271412Y-229724D1*
X270781Y-230709D1*
X270339Y-231693D1*
X270071Y-232677D1*
X269882Y-233661D1*
X280709Y-226772D2*
X282143Y-227756D1*
X283372Y-228740D1*
X284335Y-229724D1*
X285091Y-230709D1*
X285368Y-231693D1*
X285518Y-232677D1*
X285582Y-233661D1*
X285575Y-234646D1*
X285457Y-235630D1*
X285182Y-236614D1*
X284730Y-237598D1*
X284010Y-238583D1*
X282948Y-239567D1*
X281693Y-240551D1*
X282858Y-241535D1*
X283856Y-242520D1*
X284643Y-243504D1*
X285277Y-244488D1*
X285797Y-245472D1*
X286186Y-246457D1*
X286413Y-247441D1*
X286493Y-248425D1*
X286414Y-249409D1*
X286164Y-250394D1*
X285786Y-251378D1*
X285305Y-252362D1*
X284635Y-253346D1*
X283629Y-254331D1*
X282256Y-255315D1*
X280709Y-256299D1*
X253150Y-229724D2*
X251378Y-230709D1*
X249857Y-231693D1*
X248711Y-232677D1*
X247849Y-233661D1*
X247596Y-234646D1*
X247738Y-235630D1*
X248250Y-236614D1*
X249691Y-237598D1*
X251956Y-238583D1*
X254823Y-239567D1*
X257604Y-240551D1*
X259787Y-241535D1*
X261313Y-242520D1*
X262337Y-243504D1*
X263037Y-244488D1*
X263502Y-245472D1*
X263762Y-246457D1*
X263888Y-247441D1*
X263938Y-248425D1*
X263921Y-249409D1*
X263766Y-250394D1*
X263369Y-251378D1*
X262710Y-252362D1*
X261812Y-253346D1*
X260593Y-254331D1*
X258964Y-255315D1*
X257087Y-256299D1*
X254134Y-229724D2*
X257087Y-230709D1*
X260039Y-231693D1*
X276772Y-229724D2*
X275787Y-230709D1*
X274803Y-231693D1*
X273819Y-232677D1*
X272835Y-233661D1*
X277756Y-229724D2*
X279375Y-230709D1*
X280652Y-231693D1*
X281544Y-232677D1*
X282203Y-233661D1*
X282375Y-234646D1*
X282117Y-235630D1*
X281692Y-236614D1*
X280586Y-237598D1*
X279264Y-238583D1*
X277970Y-239567D1*
X277329Y-240551D1*
X277125Y-241535D1*
X278479Y-242520D1*
X279921Y-243504D1*
X281113Y-244488D1*
X282042Y-245472D1*
X282371Y-246457D1*
X282544Y-247441D1*
X282580Y-248425D1*
X282517Y-249409D1*
X281980Y-250394D1*
X280297Y-251378D1*
X277798Y-252362D1*
X274803Y-253346D1*
X268898Y-249409D2*
X269275Y-250394D1*
X269733Y-251378D1*
X270323Y-252362D1*
X271109Y-253346D1*
X272128Y-254331D1*
X273395Y-255315D1*
X274803Y-256299D1*
X272835Y-249409D2*
X273482Y-250394D1*
X275194Y-251378D1*
X277707Y-252362D1*
X280709Y-253346D1*
X244291Y-250394D2*
X243765Y-251378D1*
X243085Y-252362D1*
X242323Y-253346D1*
X244472Y-254331D1*
X246786Y-255315D1*
X249213Y-256299D1*
X245276Y-250394D2*
X248675Y-251378D1*
X253050Y-252362D1*
X258071Y-253346D1*
X-68549Y-88397D2*
Y-89381D1*
Y-90365D1*
Y-91350D1*
Y-92334D1*
X-59690D1*
Y-93318D1*
Y-94302D1*
Y-95287D1*
Y-96271D1*
Y-97255D1*
Y-98240D1*
Y-99224D1*
Y-100208D1*
Y-101192D1*
Y-102177D1*
Y-103161D1*
Y-104145D1*
Y-105129D1*
Y-106114D1*
Y-107098D1*
Y-108082D1*
Y-109066D1*
Y-110051D1*
Y-111035D1*
Y-112019D1*
Y-113003D1*
Y-113988D1*
Y-114972D1*
Y-115956D1*
Y-116940D1*
Y-117925D1*
X-27210Y-88397D2*
Y-89381D1*
Y-90365D1*
Y-91350D1*
Y-92334D1*
X-36068D1*
Y-93318D1*
Y-94302D1*
Y-95287D1*
Y-96271D1*
Y-97255D1*
Y-98240D1*
Y-99224D1*
Y-100208D1*
Y-101192D1*
Y-102177D1*
Y-103161D1*
Y-104145D1*
Y-105129D1*
Y-106114D1*
Y-107098D1*
Y-108082D1*
Y-109066D1*
Y-110051D1*
Y-111035D1*
Y-112019D1*
Y-113003D1*
Y-113988D1*
Y-114972D1*
Y-115956D1*
Y-116940D1*
Y-117925D1*
X-23273Y-88397D2*
Y-89381D1*
Y-90365D1*
Y-91350D1*
Y-92334D1*
Y-93318D1*
Y-94302D1*
Y-95287D1*
Y-96271D1*
Y-97255D1*
Y-98240D1*
Y-99224D1*
Y-100208D1*
Y-101192D1*
Y-102177D1*
Y-103161D1*
Y-104145D1*
Y-105129D1*
Y-106114D1*
Y-107098D1*
Y-108082D1*
Y-109066D1*
Y-110051D1*
Y-111035D1*
Y-112019D1*
Y-113003D1*
Y-113988D1*
Y-114972D1*
Y-115956D1*
Y-116940D1*
Y-117925D1*
X-8509Y-88397D2*
X-7074Y-89381D1*
X-5846Y-90365D1*
X-4879Y-91350D1*
X-4196Y-92334D1*
X-3713Y-93318D1*
X-3307Y-94302D1*
X-2981Y-95287D1*
X-2785Y-96271D1*
X-2717Y-97255D1*
X-2797Y-98240D1*
X-3018Y-99224D1*
X-3302Y-100208D1*
X-3635Y-101192D1*
X-4129Y-102177D1*
X-4895Y-103161D1*
X-5899Y-104145D1*
X-8839Y-105129D1*
X-13518Y-106114D1*
X-19336Y-107098D1*
Y-108082D1*
Y-109066D1*
Y-110051D1*
Y-111035D1*
Y-112019D1*
Y-113003D1*
Y-113988D1*
Y-114972D1*
Y-115956D1*
Y-116940D1*
Y-117925D1*
X7239Y-88397D2*
X5838Y-89381D1*
X4701Y-90365D1*
X3848Y-91350D1*
X3216Y-92334D1*
X2775Y-93318D1*
X2506Y-94302D1*
X2318Y-95287D1*
X14129Y-88397D2*
X15411Y-89381D1*
X16400Y-90365D1*
X17143Y-91350D1*
X17744Y-92334D1*
X18242Y-93318D1*
X18589Y-94302D1*
X18779Y-95287D1*
X18586Y-96271D1*
X18333Y-97255D1*
X18048Y-98240D1*
X17689Y-99224D1*
X17238Y-100208D1*
X16685Y-101192D1*
X16060Y-102177D1*
X15428Y-103161D1*
X14752Y-104145D1*
X13994Y-105129D1*
X13235Y-106114D1*
X12531Y-107098D1*
X11821Y-108082D1*
X11050Y-109066D1*
X10285Y-110051D1*
X9579Y-111035D1*
X8865Y-112019D1*
X8060Y-113003D1*
X7174Y-113988D1*
X6255Y-114972D1*
X29877Y-88397D2*
X28476Y-89381D1*
X27339Y-90365D1*
X26486Y-91350D1*
X25854Y-92334D1*
X25413Y-93318D1*
X25144Y-94302D1*
X24955Y-95287D1*
X36766Y-88397D2*
X38049Y-89381D1*
X39037Y-90365D1*
X39781Y-91350D1*
X40382Y-92334D1*
X40880Y-93318D1*
X41226Y-94302D1*
X41417Y-95287D1*
X41224Y-96271D1*
X40971Y-97255D1*
X40686Y-98240D1*
X40327Y-99224D1*
X39875Y-100208D1*
X39322Y-101192D1*
X38698Y-102177D1*
X38066Y-103161D1*
X37389Y-104145D1*
X36632Y-105129D1*
X35872Y-106114D1*
X35168Y-107098D1*
X34459Y-108082D1*
X33688Y-109066D1*
X32923Y-110051D1*
X32217Y-111035D1*
X31502Y-112019D1*
X30697Y-113003D1*
X29812Y-113988D1*
X28892Y-114972D1*
X52514Y-88397D2*
X51113Y-89381D1*
X49976Y-90365D1*
X49123Y-91350D1*
X48492Y-92334D1*
X48050Y-93318D1*
X47782Y-94302D1*
X47593Y-95287D1*
X58420Y-88397D2*
X59855Y-89381D1*
X61083Y-90365D1*
X62047Y-91350D1*
X62803Y-92334D1*
X63080Y-93318D1*
X63230Y-94302D1*
X63294Y-95287D1*
X63287Y-96271D1*
X63168Y-97255D1*
X62894Y-98240D1*
X62441Y-99224D1*
X61721Y-100208D1*
X60659Y-101192D1*
X59404Y-102177D1*
X60569Y-103161D1*
X61568Y-104145D1*
X62354Y-105129D1*
X62988Y-106114D1*
X63508Y-107098D1*
X63897Y-108082D1*
X64124Y-109066D1*
X64204Y-110051D1*
X64125Y-111035D1*
X63875Y-112019D1*
X63498Y-113003D1*
X63016Y-113988D1*
X62346Y-114972D1*
X61340Y-115956D1*
X59967Y-116940D1*
X58420Y-117925D1*
X-56738Y-91350D2*
Y-92334D1*
Y-93318D1*
Y-94302D1*
Y-95287D1*
Y-96271D1*
Y-97255D1*
Y-98240D1*
Y-99224D1*
Y-100208D1*
Y-101192D1*
Y-102177D1*
Y-103161D1*
Y-104145D1*
Y-105129D1*
Y-106114D1*
Y-107098D1*
Y-108082D1*
Y-109066D1*
Y-110051D1*
Y-111035D1*
Y-112019D1*
Y-113003D1*
Y-113988D1*
Y-114972D1*
Y-115956D1*
Y-116940D1*
Y-117925D1*
X-39021Y-91350D2*
Y-92334D1*
Y-93318D1*
Y-94302D1*
Y-95287D1*
Y-96271D1*
Y-97255D1*
Y-98240D1*
Y-99224D1*
Y-100208D1*
Y-101192D1*
Y-102177D1*
Y-103161D1*
Y-104145D1*
Y-105129D1*
Y-106114D1*
Y-107098D1*
Y-108082D1*
Y-109066D1*
Y-110051D1*
Y-111035D1*
Y-112019D1*
Y-113003D1*
Y-113988D1*
Y-114972D1*
Y-115956D1*
Y-116940D1*
Y-117925D1*
X-19336Y-91350D2*
Y-92334D1*
Y-93318D1*
Y-94302D1*
Y-95287D1*
Y-96271D1*
Y-97255D1*
Y-98240D1*
Y-99224D1*
Y-100208D1*
Y-101192D1*
Y-102177D1*
X-10478Y-103161D1*
X-11462Y-91350D2*
X-9843Y-92334D1*
X-8565Y-93318D1*
X-7670Y-94302D1*
X-6999Y-95287D1*
X-6767Y-96271D1*
X-6674Y-97255D1*
X-6749Y-98240D1*
X-6958Y-99224D1*
X-7628Y-100208D1*
X-10223Y-101192D1*
X-14672Y-102177D1*
X-20320Y-103161D1*
X10192Y-91350D2*
X8569Y-92334D1*
X7258Y-93318D1*
X6217Y-94302D1*
X5270Y-95287D1*
X10192Y-91350D2*
X11925Y-92334D1*
X13321Y-93318D1*
X14394Y-94302D1*
X14815Y-95287D1*
X14821Y-96271D1*
X14623Y-97255D1*
X14274Y-98240D1*
X13840Y-99224D1*
X13337Y-100208D1*
X12730Y-101192D1*
X12004Y-102177D1*
X11258Y-103161D1*
X10559Y-104145D1*
X9848Y-105129D1*
X9046Y-106114D1*
X8191Y-107098D1*
X7375Y-108082D1*
X6644Y-109066D1*
X5922Y-110051D1*
X5147Y-111035D1*
X4384Y-112019D1*
X3716Y-113003D1*
X3165Y-113988D1*
X2759Y-114972D1*
X2520Y-115956D1*
X2396Y-116940D1*
X2318Y-117925D1*
X32829Y-91350D2*
X31207Y-92334D1*
X29896Y-93318D1*
X28855Y-94302D1*
X27908Y-95287D1*
X32829Y-91350D2*
X34563Y-92334D1*
X35958Y-93318D1*
X37031Y-94302D1*
X37453Y-95287D1*
X37458Y-96271D1*
X37261Y-97255D1*
X36911Y-98240D1*
X36478Y-99224D1*
X35975Y-100208D1*
X35368Y-101192D1*
X34642Y-102177D1*
X33896Y-103161D1*
X33197Y-104145D1*
X32485Y-105129D1*
X31684Y-106114D1*
X30829Y-107098D1*
X30012Y-108082D1*
X29282Y-109066D1*
X28560Y-110051D1*
X27785Y-111035D1*
X27022Y-112019D1*
X26354Y-113003D1*
X25803Y-113988D1*
X25397Y-114972D1*
X25157Y-115956D1*
X25033Y-116940D1*
X24955Y-117925D1*
X54483Y-91350D2*
X53499Y-92334D1*
X52514Y-93318D1*
X51530Y-94302D1*
X50546Y-95287D1*
X55467Y-91350D2*
X57086Y-92334D1*
X58364Y-93318D1*
X59255Y-94302D1*
X59914Y-95287D1*
X60086Y-96271D1*
X59829Y-97255D1*
X59404Y-98240D1*
X58297Y-99224D1*
X56975Y-100208D1*
X55682Y-101192D1*
X55040Y-102177D1*
X54836Y-103161D1*
X56190Y-104145D1*
X57632Y-105129D1*
X58825Y-106114D1*
X59754Y-107098D1*
X60082Y-108082D1*
X60255Y-109066D1*
X60292Y-110051D1*
X60228Y-111035D1*
X59691Y-112019D1*
X58008Y-113003D1*
X55509Y-113988D1*
X52514Y-114972D1*
X46609Y-111035D2*
X46987Y-112019D1*
X47444Y-113003D1*
X48034Y-113988D1*
X48820Y-114972D1*
X49839Y-115956D1*
X51107Y-116940D1*
X52514Y-117925D1*
X50546Y-111035D2*
X51194Y-112019D1*
X52905Y-113003D1*
X55418Y-113988D1*
X58420Y-114972D1*
X19050D2*
Y-115956D1*
Y-116940D1*
Y-117925D1*
X41688Y-114972D2*
Y-115956D1*
Y-116940D1*
Y-117925D1*
X-221873Y292550D2*
D12*
Y291050D1*
Y289550D1*
Y288050D1*
Y286550D1*
Y285050D1*
Y283550D1*
Y282050D1*
Y280550D1*
Y279050D1*
Y277550D1*
Y276050D1*
Y274550D1*
Y273050D1*
Y271550D1*
Y270050D1*
Y268550D1*
Y267050D1*
Y265550D1*
Y264050D1*
Y262550D1*
Y261050D1*
Y259550D1*
Y258050D1*
X-221867Y256550D1*
X-221814Y255050D1*
X-221611Y253550D1*
X-221135Y252050D1*
X-220431Y250550D1*
X-218826Y249050D1*
X-216727Y247550D1*
X-214373Y246050D1*
X-194873Y292550D2*
Y291050D1*
Y289550D1*
Y288050D1*
X-181373Y292550D2*
Y291050D1*
Y289550D1*
Y288050D1*
Y286550D1*
Y285050D1*
Y283550D1*
Y282050D1*
Y280550D1*
Y279050D1*
Y277550D1*
Y276050D1*
Y274550D1*
Y273050D1*
Y271550D1*
Y270050D1*
Y268550D1*
Y267050D1*
Y265550D1*
Y264050D1*
Y262550D1*
Y261050D1*
Y259550D1*
Y258050D1*
Y256550D1*
Y255050D1*
Y253550D1*
Y252050D1*
Y250550D1*
Y249050D1*
Y247550D1*
Y246050D1*
X-152873Y292550D2*
Y291050D1*
Y289550D1*
Y288050D1*
X-140873Y292550D2*
Y291050D1*
Y289550D1*
Y288050D1*
Y286550D1*
Y285050D1*
Y283550D1*
Y282050D1*
Y280550D1*
Y279050D1*
Y277550D1*
Y276050D1*
Y274550D1*
Y273050D1*
Y271550D1*
Y270050D1*
Y268550D1*
Y267050D1*
Y265550D1*
Y264050D1*
Y262550D1*
Y261050D1*
Y259550D1*
Y258050D1*
X-140867Y256550D1*
X-140814Y255050D1*
X-140611Y253550D1*
X-140135Y252050D1*
X-139431Y250550D1*
X-137826Y249050D1*
X-135727Y247550D1*
X-133373Y246050D1*
X-113873Y292550D2*
Y291050D1*
Y289550D1*
Y288050D1*
X-100373Y292550D2*
Y291050D1*
Y289550D1*
Y288050D1*
Y286550D1*
Y285050D1*
Y283550D1*
Y282050D1*
Y280550D1*
Y279050D1*
Y277550D1*
Y276050D1*
Y274550D1*
Y273050D1*
Y271550D1*
Y270050D1*
Y268550D1*
Y267050D1*
Y265550D1*
Y264050D1*
Y262550D1*
Y261050D1*
Y259550D1*
Y258050D1*
Y256550D1*
Y255050D1*
Y253550D1*
Y252050D1*
Y250550D1*
Y249050D1*
Y247550D1*
Y246050D1*
X-94373Y292550D2*
Y291050D1*
Y289550D1*
Y288050D1*
Y286550D1*
Y285050D1*
Y283550D1*
Y282050D1*
Y280550D1*
Y279050D1*
Y277550D1*
Y276050D1*
X-94367Y274550D1*
X-94310Y273050D1*
X-94078Y271550D1*
X-93565Y270050D1*
X-92873Y268550D1*
X-71873Y292550D2*
X-73141Y291050D1*
X-74269Y289550D1*
X-75381Y288050D1*
X-76618Y286550D1*
X-77973Y285050D1*
X-79356Y283550D1*
X-80639Y282050D1*
X-81769Y280550D1*
X-82881Y279050D1*
X-84118Y277550D1*
X-85479Y276050D1*
X-86921Y274550D1*
X-88451Y273050D1*
X-90173Y271550D1*
X-92182Y270050D1*
X-94373Y268550D1*
X-64373Y292550D2*
X-65867Y291050D1*
X-67314Y289550D1*
X-68623Y288050D1*
X-69764Y286550D1*
X-70879Y285050D1*
X-72117Y283550D1*
X-73473Y282050D1*
X-74856Y280550D1*
X-76139Y279050D1*
X-77269Y277550D1*
X-78381Y276050D1*
X-79617Y274550D1*
X-80970Y273050D1*
X-82373Y271550D1*
X-79673Y270050D1*
X-77349Y268550D1*
X-75538Y267050D1*
X-74159Y265550D1*
X-72991Y264050D1*
X-71908Y262550D1*
X-70949Y261050D1*
X-70135Y259550D1*
X-69478Y258050D1*
X-68923Y256550D1*
X-68333Y255050D1*
X-67673Y253550D1*
X-66968Y252050D1*
X-66240Y250550D1*
X-65538Y249050D1*
X-64916Y247550D1*
X-64373Y246050D1*
X-61373Y292550D2*
Y291050D1*
Y289550D1*
Y288050D1*
Y286550D1*
X-44873D1*
Y285050D1*
Y283550D1*
Y282050D1*
Y280550D1*
Y279050D1*
Y277550D1*
Y276050D1*
Y274550D1*
Y273050D1*
Y271550D1*
Y270050D1*
Y268550D1*
Y267050D1*
Y265550D1*
Y264050D1*
Y262550D1*
Y261050D1*
Y259550D1*
Y258050D1*
Y256550D1*
Y255050D1*
Y253550D1*
Y252050D1*
Y250550D1*
Y249050D1*
Y247550D1*
Y246050D1*
X-23873Y292550D2*
Y291050D1*
Y289550D1*
Y288050D1*
Y286550D1*
X-38873D1*
Y285050D1*
Y283550D1*
Y282050D1*
Y280550D1*
Y279050D1*
Y277550D1*
Y276050D1*
Y274550D1*
Y273050D1*
Y271550D1*
Y270050D1*
Y268550D1*
Y267050D1*
Y265550D1*
Y264050D1*
Y262550D1*
Y261050D1*
Y259550D1*
Y258050D1*
Y256550D1*
Y255050D1*
Y253550D1*
Y252050D1*
Y250550D1*
Y249050D1*
Y247550D1*
Y246050D1*
X-4373Y292550D2*
X-6565Y291050D1*
X-8490Y289550D1*
X-10149Y288050D1*
X-11502Y286550D1*
X-12485Y285050D1*
X-13198Y283550D1*
X-13807Y282050D1*
X-14299Y280550D1*
X-14603Y279050D1*
X-14758Y277550D1*
X-14828Y276050D1*
X-14856Y274550D1*
X-14867Y273050D1*
X-14871Y271550D1*
X-14872Y270050D1*
Y268550D1*
X-14873Y267050D1*
Y265550D1*
Y264050D1*
Y262550D1*
Y261050D1*
Y259550D1*
Y258050D1*
Y256550D1*
Y255050D1*
Y253550D1*
Y252050D1*
Y250550D1*
Y249050D1*
Y247550D1*
Y246050D1*
X9127Y292550D2*
X12006Y291050D1*
X14315Y289550D1*
X16054Y288050D1*
X17330Y286550D1*
X18274Y285050D1*
X18933Y283550D1*
X19311Y282050D1*
X19495Y280550D1*
X19576Y279050D1*
X19608Y277550D1*
X19621Y276050D1*
X19625Y274550D1*
X19627Y273050D1*
Y271550D1*
Y270050D1*
Y268550D1*
Y267050D1*
Y265550D1*
Y264050D1*
Y262550D1*
Y261050D1*
Y259550D1*
Y258050D1*
Y256550D1*
Y255050D1*
Y253550D1*
Y252050D1*
Y250550D1*
Y249050D1*
Y247550D1*
Y246050D1*
X60127Y292550D2*
X57479Y291050D1*
X55300Y289550D1*
X53716Y288050D1*
X52607Y286550D1*
X51872Y285050D1*
X51469Y283550D1*
X51330Y282050D1*
X51365Y280550D1*
X52038Y279050D1*
X53043Y277550D1*
X54300Y276050D1*
X55700Y274550D1*
X57210Y273050D1*
X58891Y271550D1*
X60798Y270050D1*
X62877Y268550D1*
X65050Y267050D1*
X67259Y265550D1*
X69391Y264050D1*
X71244Y262550D1*
X72661Y261050D1*
X73690Y259550D1*
X74490Y258050D1*
X74674Y256550D1*
X74065Y255050D1*
X70926Y253550D1*
X65521Y252050D1*
X58627Y250550D1*
X78127Y292550D2*
X78820Y291050D1*
X79252Y289550D1*
X79481Y288050D1*
X79627Y286550D1*
X94627Y292550D2*
Y291050D1*
Y289550D1*
Y288050D1*
Y286550D1*
Y285050D1*
Y283550D1*
Y282050D1*
Y280550D1*
Y279050D1*
Y277550D1*
Y276050D1*
Y274550D1*
Y273050D1*
Y271550D1*
Y270050D1*
Y268550D1*
Y267050D1*
Y265550D1*
Y264050D1*
Y262550D1*
Y261050D1*
Y259550D1*
Y258050D1*
X94633Y256550D1*
X94686Y255050D1*
X94889Y253550D1*
X95365Y252050D1*
X96069Y250550D1*
X97674Y249050D1*
X99773Y247550D1*
X102127Y246050D1*
X121627Y292550D2*
Y291050D1*
Y289550D1*
Y288050D1*
X135127Y292550D2*
Y291050D1*
Y289550D1*
Y288050D1*
Y286550D1*
Y285050D1*
Y283550D1*
Y282050D1*
Y280550D1*
Y279050D1*
Y277550D1*
Y276050D1*
Y274550D1*
Y273050D1*
Y271550D1*
Y270050D1*
Y268550D1*
Y267050D1*
Y265550D1*
Y264050D1*
Y262550D1*
Y261050D1*
Y259550D1*
Y258050D1*
Y256550D1*
Y255050D1*
Y253550D1*
Y252050D1*
Y250550D1*
Y249050D1*
Y247550D1*
Y246050D1*
X141127Y292550D2*
X142570Y291050D1*
X143878Y289550D1*
X145018Y288050D1*
X146134Y286550D1*
X147372Y285050D1*
X148733Y283550D1*
X150169Y282050D1*
X151643Y280550D1*
X153133Y279050D1*
X154629Y277550D1*
X156128Y276050D1*
X157628Y274550D1*
X159133Y273050D1*
X160690Y271550D1*
X162422Y270050D1*
X164435Y268550D1*
X166627Y267050D1*
Y292550D2*
Y291050D1*
Y289550D1*
Y288050D1*
Y286550D1*
Y285050D1*
Y283550D1*
Y282050D1*
Y280550D1*
Y279050D1*
Y277550D1*
Y276050D1*
Y274550D1*
X166621Y273050D1*
X166564Y271550D1*
X166332Y270050D1*
X165820Y268550D1*
X165127Y267050D1*
X174127Y292550D2*
Y291050D1*
Y289550D1*
Y288050D1*
Y286550D1*
Y285050D1*
Y283550D1*
Y282050D1*
Y280550D1*
Y279050D1*
Y277550D1*
Y276050D1*
Y274550D1*
Y273050D1*
Y271550D1*
Y270050D1*
Y268550D1*
Y267050D1*
Y265550D1*
Y264050D1*
Y262550D1*
Y261050D1*
Y259550D1*
Y258050D1*
Y256550D1*
Y255050D1*
Y253550D1*
Y252050D1*
Y250550D1*
Y249050D1*
Y247550D1*
Y246050D1*
X195127Y292550D2*
X192479Y291050D1*
X190300Y289550D1*
X188716Y288050D1*
X187607Y286550D1*
X186872Y285050D1*
X186469Y283550D1*
X186330Y282050D1*
X186365Y280550D1*
X187038Y279050D1*
X188043Y277550D1*
X189300Y276050D1*
X190700Y274550D1*
X192210Y273050D1*
X193891Y271550D1*
X195798Y270050D1*
X197877Y268550D1*
X200050Y267050D1*
X202259Y265550D1*
X204391Y264050D1*
X206244Y262550D1*
X207661Y261050D1*
X208690Y259550D1*
X209490Y258050D1*
X209674Y256550D1*
X209065Y255050D1*
X205926Y253550D1*
X200521Y252050D1*
X193627Y250550D1*
X213127Y292550D2*
X213820Y291050D1*
X214252Y289550D1*
X214481Y288050D1*
X214627Y286550D1*
X-215873Y288050D2*
Y286550D1*
Y285050D1*
Y283550D1*
Y282050D1*
Y280550D1*
Y279050D1*
Y277550D1*
Y276050D1*
Y274550D1*
Y273050D1*
Y271550D1*
X-175373Y288050D2*
Y286550D1*
Y285050D1*
Y283550D1*
Y282050D1*
Y280550D1*
Y279050D1*
Y277550D1*
Y276050D1*
Y274550D1*
Y273050D1*
Y271550D1*
X-134873Y288050D2*
Y286550D1*
Y285050D1*
Y283550D1*
Y282050D1*
Y280550D1*
Y279050D1*
Y277550D1*
Y276050D1*
Y274550D1*
Y273050D1*
Y271550D1*
X127Y288050D2*
X-2515Y286550D1*
X-4647Y285050D1*
X-6300Y283550D1*
X-7086Y282050D1*
X-7756Y280550D1*
X-8279Y279050D1*
X-8596Y277550D1*
X-8756Y276050D1*
X-8827Y274550D1*
X-8856Y273050D1*
X-8867Y271550D1*
X-8871Y270050D1*
X-8873Y268550D1*
X4627Y288050D2*
X7327Y286550D1*
X9645Y285050D1*
X11398Y283550D1*
X12730Y282050D1*
X13194Y280550D1*
X13443Y279050D1*
X13556Y277550D1*
X13601Y276050D1*
X13618Y274550D1*
X13624Y273050D1*
X13626Y271550D1*
X13627Y270050D1*
Y268550D1*
X64627Y288050D2*
X62155Y286550D1*
X60157Y285050D1*
X58570Y283550D1*
X57127Y282050D1*
X58172Y280550D1*
X59423Y279050D1*
X61051Y277550D1*
X62986Y276050D1*
X65093Y274550D1*
X67287Y273050D1*
X69514Y271550D1*
X71745Y270050D1*
X73886Y268550D1*
X75748Y267050D1*
X77219Y265550D1*
X78446Y264050D1*
X79509Y262550D1*
X80292Y261050D1*
X80746Y259550D1*
X80969Y258050D1*
X81060Y256550D1*
X81040Y255050D1*
X80805Y253550D1*
X80196Y252050D1*
X79147Y250550D1*
X77661Y249050D1*
X75758Y247550D1*
X73627Y246050D1*
X75127Y288050D2*
X76627Y286550D1*
X100627Y288050D2*
Y286550D1*
Y285050D1*
Y283550D1*
Y282050D1*
Y280550D1*
Y279050D1*
Y277550D1*
Y276050D1*
Y274550D1*
Y273050D1*
Y271550D1*
X199627Y288050D2*
X197155Y286550D1*
X195157Y285050D1*
X193570Y283550D1*
X192127Y282050D1*
X193172Y280550D1*
X194423Y279050D1*
X196051Y277550D1*
X197986Y276050D1*
X200093Y274550D1*
X202287Y273050D1*
X204514Y271550D1*
X206745Y270050D1*
X208886Y268550D1*
X210748Y267050D1*
X212219Y265550D1*
X213446Y264050D1*
X214509Y262550D1*
X215292Y261050D1*
X215746Y259550D1*
X215969Y258050D1*
X216060Y256550D1*
X216040Y255050D1*
X215805Y253550D1*
X215196Y252050D1*
X214147Y250550D1*
X212661Y249050D1*
X210758Y247550D1*
X208627Y246050D1*
X210127Y288050D2*
X211627Y286550D1*
X141127Y282050D2*
Y280550D1*
Y279050D1*
Y277550D1*
Y276050D1*
Y274550D1*
Y273050D1*
Y271550D1*
Y270050D1*
Y268550D1*
Y267050D1*
Y265550D1*
Y264050D1*
Y262550D1*
Y261050D1*
Y259550D1*
Y258050D1*
Y256550D1*
Y255050D1*
Y253550D1*
Y252050D1*
Y250550D1*
Y249050D1*
Y247550D1*
Y246050D1*
X142627Y282050D2*
X144127Y280550D1*
X145627Y279050D1*
X147127Y277550D1*
X148627Y276050D1*
X150127Y274550D1*
X151627Y273050D1*
X153127Y271550D1*
X154627Y270050D1*
X156121Y268550D1*
X157569Y267050D1*
X158878Y265550D1*
X160018Y264050D1*
X161134Y262550D1*
X162366Y261050D1*
X163669Y259550D1*
X164855Y258050D1*
X165720Y256550D1*
X166216Y255050D1*
X166457Y253550D1*
X166562Y252050D1*
X166603Y250550D1*
X166619Y249050D1*
X166625Y247550D1*
X166627Y246050D1*
X-196373Y271550D2*
Y270050D1*
Y268550D1*
Y267050D1*
X-155873Y271550D2*
Y270050D1*
Y268550D1*
Y267050D1*
X-115373Y271550D2*
Y270050D1*
Y268550D1*
Y267050D1*
X120127Y271550D2*
Y270050D1*
Y268550D1*
Y267050D1*
X-215873D2*
Y265550D1*
Y264050D1*
Y262550D1*
Y261050D1*
Y259550D1*
X-215861Y258050D1*
X-215744Y256550D1*
X-215463Y255050D1*
X-214092Y253550D1*
X-212133Y252050D1*
X-209873Y250550D1*
X-175373Y267050D2*
Y265550D1*
Y264050D1*
Y262550D1*
Y261050D1*
Y259550D1*
Y258050D1*
Y256550D1*
Y255050D1*
Y253550D1*
Y252050D1*
Y250550D1*
Y249050D1*
Y247550D1*
Y246050D1*
X-134873Y267050D2*
Y265550D1*
Y264050D1*
Y262550D1*
Y261050D1*
Y259550D1*
X-134861Y258050D1*
X-134744Y256550D1*
X-134463Y255050D1*
X-133092Y253550D1*
X-131133Y252050D1*
X-128873Y250550D1*
X-86873Y267050D2*
X-88367Y265550D1*
X-89814Y264050D1*
X-91117Y262550D1*
X-92199Y261050D1*
X-93065Y259550D1*
X-93694Y258050D1*
X-94062Y256550D1*
X-94243Y255050D1*
X-94322Y253550D1*
X-94354Y252050D1*
X-94366Y250550D1*
X-94370Y249050D1*
X-94372Y247550D1*
X-94373Y246050D1*
X-89873Y267050D2*
X-86019Y265550D1*
X-82957Y264050D1*
X-80818Y262550D1*
X-79268Y261050D1*
X-78016Y259550D1*
X-76983Y258050D1*
X-76097Y256550D1*
X-75291Y255050D1*
X-74565Y253550D1*
X-73949Y252050D1*
X-73417Y250550D1*
X-72874Y249050D1*
X-72349Y247550D1*
X-71873Y246050D1*
X100627Y267050D2*
Y265550D1*
Y264050D1*
Y262550D1*
Y261050D1*
Y259550D1*
X100639Y258050D1*
X100756Y256550D1*
X101037Y255050D1*
X102408Y253550D1*
X104367Y252050D1*
X106627Y250550D1*
X-8873Y264050D2*
Y262550D1*
Y261050D1*
Y259550D1*
Y258050D1*
Y256550D1*
Y255050D1*
Y253550D1*
Y252050D1*
Y250550D1*
Y249050D1*
Y247550D1*
Y246050D1*
X13627Y264050D2*
Y262550D1*
Y261050D1*
Y259550D1*
Y258050D1*
Y256550D1*
Y255050D1*
Y253550D1*
Y252050D1*
Y250550D1*
Y249050D1*
Y247550D1*
Y246050D1*
X187627Y253550D2*
X187352Y252050D1*
X186825Y250550D1*
X186127Y249050D1*
X189737Y247550D1*
X193627Y246050D1*
X52627Y252050D2*
X51924Y250550D1*
X51127Y249050D1*
X54737Y247550D1*
X58627Y246050D1*
Y252050D2*
X60127Y250550D1*
X193627Y252050D2*
X195127Y250550D1*
X-193373D2*
Y249050D1*
Y247550D1*
Y246050D1*
X-112373Y250550D2*
Y249050D1*
Y247550D1*
Y246050D1*
X123127Y250550D2*
Y249050D1*
Y247550D1*
Y246050D1*
X-58900Y216774D2*
D13*
X-61216Y215462D1*
X-62906Y214150D1*
X-64041Y212837D1*
X-64760Y211525D1*
X-65150Y210213D1*
X-65334Y208900D1*
X-65413Y207588D1*
X-65444Y206276D1*
X-65456Y204963D1*
X-65460Y203651D1*
X-65462Y202339D1*
X-70711D1*
Y201026D1*
Y199714D1*
Y198402D1*
X-65462D1*
Y197089D1*
Y195777D1*
Y194465D1*
Y193152D1*
Y191840D1*
Y190528D1*
Y189215D1*
Y187903D1*
Y186591D1*
Y185278D1*
Y183966D1*
Y182654D1*
Y181341D1*
Y180029D1*
Y178717D1*
Y177404D1*
Y176092D1*
X-51026Y216774D2*
Y215462D1*
Y214150D1*
X-55160Y212837D1*
X-57980Y211525D1*
X-59962Y210213D1*
X-60729Y208900D1*
X-61170Y207588D1*
X-61380Y206276D1*
X-61470Y204963D1*
X-61506Y203651D1*
X-61525Y202339D1*
X-52339D1*
Y201026D1*
Y199714D1*
Y198402D1*
X-61525D1*
Y197089D1*
Y195777D1*
Y194465D1*
Y193152D1*
Y191840D1*
Y190528D1*
Y189215D1*
Y187903D1*
Y186591D1*
Y185278D1*
Y183966D1*
Y182654D1*
Y181341D1*
Y180029D1*
Y178717D1*
Y177404D1*
Y176092D1*
X-15593Y216774D2*
Y215462D1*
Y214150D1*
Y212837D1*
Y211525D1*
Y210213D1*
Y208900D1*
Y207588D1*
Y206276D1*
Y204963D1*
Y203651D1*
Y202339D1*
Y201026D1*
Y199714D1*
Y198402D1*
Y197089D1*
Y195777D1*
Y194465D1*
Y193152D1*
Y191840D1*
Y190528D1*
Y189215D1*
Y187903D1*
Y186591D1*
Y185278D1*
Y183966D1*
Y182654D1*
Y181341D1*
Y180029D1*
Y178717D1*
Y177404D1*
Y176092D1*
X-10344Y216774D2*
Y215462D1*
Y214150D1*
Y212837D1*
Y211525D1*
Y210213D1*
Y208900D1*
Y207588D1*
Y206276D1*
Y204963D1*
Y203651D1*
Y202339D1*
Y201026D1*
Y199714D1*
Y198402D1*
Y197089D1*
X-10339Y195777D1*
X-10289Y194465D1*
X-10086Y193152D1*
X-9637Y191840D1*
X-9031Y190528D1*
X68396Y216774D2*
Y215462D1*
Y214150D1*
Y212837D1*
Y211525D1*
Y210213D1*
Y208900D1*
Y207588D1*
Y206276D1*
Y204963D1*
Y203651D1*
Y202339D1*
Y201026D1*
Y199714D1*
Y198402D1*
Y197089D1*
Y195777D1*
Y194465D1*
Y193152D1*
Y191840D1*
Y190528D1*
Y189215D1*
Y187903D1*
Y186591D1*
Y185278D1*
Y183966D1*
Y182654D1*
Y181341D1*
Y180029D1*
Y178717D1*
Y177404D1*
Y176092D1*
X73646Y216774D2*
Y215462D1*
Y214150D1*
Y212837D1*
Y211525D1*
Y210213D1*
Y208900D1*
Y207588D1*
Y206276D1*
Y204963D1*
Y203651D1*
Y202339D1*
Y201026D1*
Y199714D1*
Y198402D1*
Y197089D1*
Y195777D1*
Y194465D1*
Y193152D1*
Y191840D1*
Y190528D1*
Y189215D1*
Y187903D1*
Y186591D1*
Y185278D1*
Y183966D1*
Y182654D1*
Y181341D1*
Y180029D1*
Y178717D1*
Y177404D1*
Y176092D1*
X114328Y216774D2*
Y215462D1*
Y214150D1*
Y212837D1*
Y211525D1*
Y210213D1*
Y208900D1*
Y207588D1*
Y206276D1*
Y204963D1*
Y203651D1*
Y202339D1*
Y201026D1*
Y199714D1*
Y198402D1*
Y197089D1*
Y195777D1*
Y194465D1*
Y193152D1*
Y191840D1*
Y190528D1*
Y189215D1*
Y187903D1*
Y186591D1*
Y185278D1*
Y183966D1*
Y182654D1*
X114343Y181341D1*
X114493Y180029D1*
X114851Y178717D1*
X116385Y177404D1*
X118265Y176092D1*
Y216774D2*
Y215462D1*
Y214150D1*
Y212837D1*
Y211525D1*
Y210213D1*
Y208900D1*
Y207588D1*
Y206276D1*
Y204963D1*
Y203651D1*
X125316Y202339D1*
X130378Y201026D1*
X134040Y199714D1*
X135547Y198402D1*
X136601Y197089D1*
X137279Y195777D1*
X137650Y194465D1*
X137827Y193152D1*
X137903Y191840D1*
X137933Y190528D1*
X137944Y189215D1*
X137943Y187903D1*
X137898Y186591D1*
X137726Y185278D1*
X137366Y183966D1*
X136852Y182654D1*
X136206Y181341D1*
X135312Y180029D1*
X133970Y178717D1*
X132139Y177404D1*
X130076Y176092D1*
X18528Y210213D2*
X18325Y208900D1*
X17999Y207588D1*
X17660Y206276D1*
X17429Y204963D1*
X17300Y203651D1*
X17215Y202339D1*
X11966D1*
Y201026D1*
Y199714D1*
Y198402D1*
X17215D1*
Y197089D1*
Y195777D1*
Y194465D1*
Y193152D1*
Y191840D1*
Y190528D1*
Y189215D1*
Y187903D1*
Y186591D1*
Y185278D1*
X17220Y183966D1*
X17272Y182654D1*
X17490Y181341D1*
X18023Y180029D1*
X18891Y178717D1*
X19979Y177404D1*
X21152Y176092D1*
X22465Y210213D2*
Y208900D1*
Y207588D1*
Y206276D1*
Y204963D1*
Y203651D1*
Y202339D1*
X30339D1*
Y201026D1*
Y199714D1*
Y198402D1*
X22465D1*
Y197089D1*
Y195777D1*
Y194465D1*
Y193152D1*
Y191840D1*
Y190528D1*
Y189215D1*
Y187903D1*
Y186591D1*
Y185278D1*
Y183966D1*
Y182654D1*
Y181341D1*
Y180029D1*
X29026Y178717D1*
X-262312Y202339D2*
X-261859Y201026D1*
X-261422Y199714D1*
X-261006Y198402D1*
X-260558Y197089D1*
X-260117Y195777D1*
X-259697Y194465D1*
X-259247Y193152D1*
X-258806Y191840D1*
X-258385Y190528D1*
X-257935Y189215D1*
X-257493Y187903D1*
X-257073Y186591D1*
X-256623Y185278D1*
X-256181Y183966D1*
X-255761Y182654D1*
X-255310Y181341D1*
X-254865Y180029D1*
X-254408Y178717D1*
X-253821Y177404D1*
X-253126Y176092D1*
X-257063Y202339D2*
X-256860Y201026D1*
X-256530Y199714D1*
X-256144Y198402D1*
X-255747Y197089D1*
X-255305Y195777D1*
X-254867Y194465D1*
X-254448Y193152D1*
X-253998Y191840D1*
X-253556Y190528D1*
X-253136Y189215D1*
X-252691Y187903D1*
X-252290Y186591D1*
X-251987Y185278D1*
X-251653Y183966D1*
X-251143Y182654D1*
X-250501Y181341D1*
X-242627Y202339D2*
X-242830Y201026D1*
X-243161Y199714D1*
X-243547Y198402D1*
X-243944Y197089D1*
X-244385Y195777D1*
X-244823Y194465D1*
X-245243Y193152D1*
X-245693Y191840D1*
X-246134Y190528D1*
X-246554Y189215D1*
X-247005Y187903D1*
X-247457Y186591D1*
X-247978Y185278D1*
X-248665Y183966D1*
X-250146Y182654D1*
X-251814Y181341D1*
X-236066Y202339D2*
X-235863Y201026D1*
X-235532Y199714D1*
X-235146Y198402D1*
X-234744Y197089D1*
X-234262Y195777D1*
X-233702Y194465D1*
X-233131Y193152D1*
X-232618Y191840D1*
X-232163Y190528D1*
X-231697Y189215D1*
X-231250Y187903D1*
X-230827Y186591D1*
X-230376Y185278D1*
X-229931Y183966D1*
X-229474Y182654D1*
X-228887Y181341D1*
X-228192Y180029D1*
X-221630Y202339D2*
Y201026D1*
X-221635Y199714D1*
X-221681Y198402D1*
X-221848Y197089D1*
X-222163Y195777D1*
X-222504Y194465D1*
X-222779Y193152D1*
X-223068Y191840D1*
X-223443Y190528D1*
X-223849Y189215D1*
X-224259Y187903D1*
X-224745Y186591D1*
X-225310Y185278D1*
X-225927Y183966D1*
X-226601Y182654D1*
X-227359Y181341D1*
X-228192Y180029D1*
X-216381Y202339D2*
X-216986Y201026D1*
X-217363Y199714D1*
X-217559Y198402D1*
X-217690Y197089D1*
X-217891Y195777D1*
X-218224Y194465D1*
X-218611Y193152D1*
X-219009Y191840D1*
X-219450Y190528D1*
X-219889Y189215D1*
X-220308Y187903D1*
X-220758Y186591D1*
X-221200Y185278D1*
X-221625Y183966D1*
X-222116Y182654D1*
X-222684Y181341D1*
X-223302Y180029D1*
X-223976Y178717D1*
X-224734Y177404D1*
X-225567Y176092D1*
X-213756Y202339D2*
X-213302Y201026D1*
X-212865Y199714D1*
X-212449Y198402D1*
X-212001Y197089D1*
X-211561Y195777D1*
X-211141Y194465D1*
X-210691Y193152D1*
X-210249Y191840D1*
X-209829Y190528D1*
X-209379Y189215D1*
X-208937Y187903D1*
X-208517Y186591D1*
X-208066Y185278D1*
X-207625Y183966D1*
X-207204Y182654D1*
X-206754Y181341D1*
X-206308Y180029D1*
X-205851Y178717D1*
X-205265Y177404D1*
X-204570Y176092D1*
X-208507Y202339D2*
X-208304Y201026D1*
X-207973Y199714D1*
X-207587Y198402D1*
X-207190Y197089D1*
X-206749Y195777D1*
X-206311Y194465D1*
X-205891Y193152D1*
X-205441Y191840D1*
X-205000Y190528D1*
X-204580Y189215D1*
X-204134Y187903D1*
X-203734Y186591D1*
X-203431Y185278D1*
X-203097Y183966D1*
X-202587Y182654D1*
X-201945Y181341D1*
X-194071Y202339D2*
X-194274Y201026D1*
X-194604Y199714D1*
X-194990Y198402D1*
X-195387Y197089D1*
X-195829Y195777D1*
X-196267Y194465D1*
X-196686Y193152D1*
X-197136Y191840D1*
X-197578Y190528D1*
X-197998Y189215D1*
X-198448Y187903D1*
X-198900Y186591D1*
X-199421Y185278D1*
X-200109Y183966D1*
X-201589Y182654D1*
X-203257Y181341D1*
X-187509Y202339D2*
X-187306Y201026D1*
X-186976Y199714D1*
X-186590Y198402D1*
X-186188Y197089D1*
X-185705Y195777D1*
X-185146Y194465D1*
X-184575Y193152D1*
X-184061Y191840D1*
X-183606Y190528D1*
X-183141Y189215D1*
X-182694Y187903D1*
X-182271Y186591D1*
X-181820Y185278D1*
X-181374Y183966D1*
X-180917Y182654D1*
X-180330Y181341D1*
X-179635Y180029D1*
X-173073Y202339D2*
Y201026D1*
X-173079Y199714D1*
X-173125Y198402D1*
X-173292Y197089D1*
X-173606Y195777D1*
X-173948Y194465D1*
X-174223Y193152D1*
X-174512Y191840D1*
X-174887Y190528D1*
X-175293Y189215D1*
X-175703Y187903D1*
X-176188Y186591D1*
X-176754Y185278D1*
X-177371Y183966D1*
X-178044Y182654D1*
X-178803Y181341D1*
X-179635Y180029D1*
X-167824Y202339D2*
X-168430Y201026D1*
X-168807Y199714D1*
X-169003Y198402D1*
X-169133Y197089D1*
X-169335Y195777D1*
X-169667Y194465D1*
X-170055Y193152D1*
X-170452Y191840D1*
X-170894Y190528D1*
X-171332Y189215D1*
X-171752Y187903D1*
X-172202Y186591D1*
X-172643Y185278D1*
X-173069Y183966D1*
X-173560Y182654D1*
X-174128Y181341D1*
X-174745Y180029D1*
X-175419Y178717D1*
X-176178Y177404D1*
X-177010Y176092D1*
X-165199Y202339D2*
X-164746Y201026D1*
X-164309Y199714D1*
X-163893Y198402D1*
X-163445Y197089D1*
X-163004Y195777D1*
X-162585Y194465D1*
X-162134Y193152D1*
X-161693Y191840D1*
X-161272Y190528D1*
X-160822Y189215D1*
X-160380Y187903D1*
X-159960Y186591D1*
X-159510Y185278D1*
X-159068Y183966D1*
X-158648Y182654D1*
X-158197Y181341D1*
X-157752Y180029D1*
X-157295Y178717D1*
X-156708Y177404D1*
X-156013Y176092D1*
X-159950Y202339D2*
X-159747Y201026D1*
X-159417Y199714D1*
X-159031Y198402D1*
X-158634Y197089D1*
X-158192Y195777D1*
X-157754Y194465D1*
X-157335Y193152D1*
X-156885Y191840D1*
X-156443Y190528D1*
X-156023Y189215D1*
X-155578Y187903D1*
X-155177Y186591D1*
X-154874Y185278D1*
X-154540Y183966D1*
X-154030Y182654D1*
X-153388Y181341D1*
X-145514Y202339D2*
X-145717Y201026D1*
X-146048Y199714D1*
X-146434Y198402D1*
X-146831Y197089D1*
X-147272Y195777D1*
X-147710Y194465D1*
X-148130Y193152D1*
X-148580Y191840D1*
X-149021Y190528D1*
X-149441Y189215D1*
X-149892Y187903D1*
X-150344Y186591D1*
X-150865Y185278D1*
X-151552Y183966D1*
X-153033Y182654D1*
X-154701Y181341D1*
X-138953Y202339D2*
X-138750Y201026D1*
X-138419Y199714D1*
X-138034Y198402D1*
X-137631Y197089D1*
X-137149Y195777D1*
X-136589Y194465D1*
X-136018Y193152D1*
X-135505Y191840D1*
X-135050Y190528D1*
X-134585Y189215D1*
X-134137Y187903D1*
X-133715Y186591D1*
X-133263Y185278D1*
X-132818Y183966D1*
X-132361Y182654D1*
X-131774Y181341D1*
X-131079Y180029D1*
X-124517Y202339D2*
Y201026D1*
X-124522Y199714D1*
X-124568Y198402D1*
X-124736Y197089D1*
X-125050Y195777D1*
X-125391Y194465D1*
X-125666Y193152D1*
X-125955Y191840D1*
X-126331Y190528D1*
X-126736Y189215D1*
X-127146Y187903D1*
X-127632Y186591D1*
X-128197Y185278D1*
X-128814Y183966D1*
X-129488Y182654D1*
X-130246Y181341D1*
X-131079Y180029D1*
X-119268Y202339D2*
X-119874Y201026D1*
X-120250Y199714D1*
X-120446Y198402D1*
X-120577Y197089D1*
X-120778Y195777D1*
X-121111Y194465D1*
X-121498Y193152D1*
X-121896Y191840D1*
X-122338Y190528D1*
X-122776Y189215D1*
X-123195Y187903D1*
X-123645Y186591D1*
X-124087Y185278D1*
X-124512Y183966D1*
X-125004Y182654D1*
X-125571Y181341D1*
X-126189Y180029D1*
X-126863Y178717D1*
X-127622Y177404D1*
X-128454Y176092D1*
X-91709Y202339D2*
X-93577Y201026D1*
X-95093Y199714D1*
X-96230Y198402D1*
X-97072Y197089D1*
X-97662Y195777D1*
X-98042Y194465D1*
X-98373Y193152D1*
X-98753Y191840D1*
X-99072Y190528D1*
X-99144Y189215D1*
X-98955Y187903D1*
X-98671Y186591D1*
X-98419Y185278D1*
X-98134Y183966D1*
X-97716Y182654D1*
X-97129Y181341D1*
X-96259Y180029D1*
X-94860Y178717D1*
X-92816Y177404D1*
X-90396Y176092D1*
X-82522Y202339D2*
X-80654Y201026D1*
X-79138Y199714D1*
X-78001Y198402D1*
X-77159Y197089D1*
X-76574Y195777D1*
X-76240Y194465D1*
X-76077Y193152D1*
X-76006Y191840D1*
X-75977Y190528D1*
X-75966Y189215D1*
X-75961Y187903D1*
X-40528Y202339D2*
X-42396Y201026D1*
X-43912Y199714D1*
X-45049Y198402D1*
X-45891Y197089D1*
X-46481Y195777D1*
X-46861Y194465D1*
X-47192Y193152D1*
X-47572Y191840D1*
X-47891Y190528D1*
X-47963Y189215D1*
X-47774Y187903D1*
X-47490Y186591D1*
X-47238Y185278D1*
X-46953Y183966D1*
X-46535Y182654D1*
X-45948Y181341D1*
X-45078Y180029D1*
X-43679Y178717D1*
X-41635Y177404D1*
X-39215Y176092D1*
X-31341Y202339D2*
X-29473Y201026D1*
X-27957Y199714D1*
X-26820Y198402D1*
X-25978Y197089D1*
X-25393Y195777D1*
X-25059Y194465D1*
X-24896Y193152D1*
X-24825Y191840D1*
X-24796Y190528D1*
X-24785Y189215D1*
X-24780Y187903D1*
X1467Y202339D2*
X761Y201026D1*
X-175Y199714D1*
X-1296Y198402D1*
X-2524Y197089D1*
X-3807Y195777D1*
X-5157Y194465D1*
X-6667Y193152D1*
X-8426Y191840D1*
X-10344Y190528D1*
X6717Y202339D2*
X5853Y201026D1*
X4931Y199714D1*
X3868Y198402D1*
X2684Y197089D1*
X1429Y195777D1*
X141Y194465D1*
X-1162Y193152D1*
X-2470Y191840D1*
X-306Y190528D1*
X1443Y189215D1*
X2804Y187903D1*
X3887Y186591D1*
X4682Y185278D1*
X5274Y183966D1*
X5798Y182654D1*
X6269Y181341D1*
X6701Y180029D1*
X7162Y178717D1*
X7615Y177404D1*
X8029Y176092D1*
X39525Y202339D2*
X38914Y201026D1*
X38509Y199714D1*
X38213Y198402D1*
X51336Y202339D2*
X53495Y201026D1*
X55198Y199714D1*
X56392Y198402D1*
X57286Y197089D1*
X57601Y195777D1*
X57771Y194465D1*
X57848Y193152D1*
X57879Y191840D1*
X57891Y190528D1*
X57895Y189215D1*
X57897Y187903D1*
Y186591D1*
X57898Y185278D1*
Y183966D1*
Y182654D1*
X57877Y181341D1*
X57816Y180029D1*
X57200Y178717D1*
X55155Y177404D1*
X52648Y176092D1*
X85457Y202339D2*
X84846Y201026D1*
X84440Y199714D1*
X84144Y198402D1*
X97268Y202339D2*
X99427Y201026D1*
X101130Y199714D1*
X102323Y198402D1*
X103218Y197089D1*
X103532Y195777D1*
X103703Y194465D1*
X103780Y193152D1*
X103811Y191840D1*
X103823Y190528D1*
X103827Y189215D1*
X103829Y187903D1*
Y186591D1*
Y185278D1*
Y183966D1*
Y182654D1*
X103809Y181341D1*
X103747Y180029D1*
X103132Y178717D1*
X101087Y177404D1*
X98580Y176092D1*
X168134Y202339D2*
X166266Y201026D1*
X164750Y199714D1*
X163613Y198402D1*
X162771Y197089D1*
X162186Y195777D1*
X161851Y194465D1*
X161688Y193152D1*
X161617Y191840D1*
X161589Y190528D1*
X161578Y189215D1*
X161574Y187903D1*
X161578Y186591D1*
X161624Y185278D1*
X161796Y183966D1*
X162161Y182654D1*
X162727Y181341D1*
X163588Y180029D1*
X164984Y178717D1*
X167027Y177404D1*
X169446Y176092D1*
X179945Y202339D2*
Y201026D1*
Y199714D1*
X174447Y198402D1*
X170711Y197089D1*
X168159Y195777D1*
X167250Y194465D1*
X166555Y193152D1*
X166054Y191840D1*
X165765Y190528D1*
X165666Y189215D1*
X165769Y187903D1*
X166062Y186591D1*
X166440Y185278D1*
X166920Y183966D1*
X167584Y182654D1*
X170181Y181341D1*
X174497Y180029D1*
X179945Y178717D1*
X194381Y202339D2*
X192512Y201026D1*
X190997Y199714D1*
X189859Y198402D1*
X189017Y197089D1*
X188427Y195777D1*
X188047Y194465D1*
X187717Y193152D1*
X187336Y191840D1*
X187017Y190528D1*
X186945Y189215D1*
X187134Y187903D1*
X187418Y186591D1*
X187670Y185278D1*
X187955Y183966D1*
X188373Y182654D1*
X188955Y181341D1*
X189775Y180029D1*
X190971Y178717D1*
X192567Y177404D1*
X194381Y176092D1*
X204879Y202339D2*
X206792Y201026D1*
X208430Y199714D1*
X209720Y198402D1*
X210630Y197089D1*
X211275Y195777D1*
X211816Y194465D1*
X212250Y193152D1*
X212517Y191840D1*
X212653Y190528D1*
X212709Y189215D1*
X212687Y187903D1*
X212530Y186591D1*
X212214Y185278D1*
X211827Y183966D1*
X211380Y182654D1*
X210721Y181341D1*
X209746Y180029D1*
X208422Y178717D1*
X206748Y177404D1*
X204879Y176092D1*
X227189Y202339D2*
X224766Y201026D1*
X222971Y199714D1*
X222424Y198402D1*
X222139Y197089D1*
X222015Y195777D1*
X221967Y194465D1*
X221949Y193152D1*
X221943Y191840D1*
X221941Y190528D1*
X221940Y189215D1*
Y187903D1*
Y186591D1*
Y185278D1*
Y183966D1*
Y182654D1*
Y181341D1*
Y180029D1*
Y178717D1*
Y177404D1*
Y176092D1*
X237688Y202339D2*
X240927Y201026D1*
X244249Y199714D1*
X246874Y202339D2*
X242322Y201026D1*
X237688Y199714D1*
X257373Y202339D2*
X259083Y201026D1*
X260396Y199714D1*
X261340Y198402D1*
X261975Y197089D1*
X262330Y195777D1*
X262501Y194465D1*
X262575Y193152D1*
X262605Y191840D1*
X262616Y190528D1*
X262620Y189215D1*
X262621Y187903D1*
X262622Y186591D1*
Y185278D1*
Y183966D1*
Y182654D1*
Y181341D1*
Y180029D1*
Y178717D1*
Y177404D1*
Y176092D1*
X-89084Y199714D2*
X-90341Y198402D1*
X-91439Y197089D1*
X-92269Y195777D1*
X-92916Y194465D1*
X-93589Y193152D1*
X-94333Y191840D1*
X-82522Y190528D1*
X-86459Y199714D2*
X-84345Y198402D1*
X-82764Y197089D1*
X-81717Y195777D1*
X-80965Y194465D1*
X-80383Y193152D1*
X-79898Y191840D1*
X-93021Y190528D1*
X-37903Y199714D2*
X-39160Y198402D1*
X-40258Y197089D1*
X-41087Y195777D1*
X-41735Y194465D1*
X-42408Y193152D1*
X-43152Y191840D1*
X-31341Y190528D1*
X-35278Y199714D2*
X-33164Y198402D1*
X-31583Y197089D1*
X-30536Y195777D1*
X-29783Y194465D1*
X-29202Y193152D1*
X-28717Y191840D1*
X-41840Y190528D1*
X40837Y199714D2*
X39525Y198402D1*
X47399Y199714D2*
X49508Y198402D1*
X51282Y197089D1*
X51984Y195777D1*
X52386Y194465D1*
X52648Y193152D1*
X46248Y191840D1*
X41690Y190528D1*
X38456Y189215D1*
X37190Y187903D1*
X36225Y186591D1*
X35900Y185278D1*
X35769Y183966D1*
X35867Y182654D1*
X36252Y181341D1*
X36853Y180029D1*
X38255Y178717D1*
X40090Y177404D1*
X42150Y176092D1*
X86769Y199714D2*
X85457Y198402D1*
X93331Y199714D2*
X95440Y198402D1*
X97214Y197089D1*
X97916Y195777D1*
X98318Y194465D1*
X98580Y193152D1*
X92180Y191840D1*
X87621Y190528D1*
X84388Y189215D1*
X83122Y187903D1*
X82156Y186591D1*
X81832Y185278D1*
X81701Y183966D1*
X81799Y182654D1*
X82184Y181341D1*
X82785Y180029D1*
X84187Y178717D1*
X86022Y177404D1*
X88081Y176092D1*
X120890Y199714D2*
X119835Y198402D1*
X119068Y197089D1*
X118628Y195777D1*
X118415Y194465D1*
X118323Y193152D1*
X118286Y191840D1*
X118273Y190528D1*
X118268Y189215D1*
X118266Y187903D1*
X118265Y186591D1*
X118270Y185278D1*
X118357Y183966D1*
X118588Y182654D1*
X120168Y181341D1*
X124677Y180029D1*
X130076Y178717D1*
X128764Y199714D2*
X130021Y198402D1*
X131114Y197089D1*
X131893Y195777D1*
X132336Y194465D1*
X132550Y193152D1*
X132643Y191840D1*
X132680Y190528D1*
X132693Y189215D1*
X132698Y187903D1*
X132695Y186591D1*
X132644Y185278D1*
X132521Y183966D1*
X131873Y182654D1*
X129311Y181341D1*
X125014Y180029D1*
X119577Y178717D1*
X197005Y199714D2*
X195743Y198402D1*
X194604Y197089D1*
X193657Y195777D1*
X192900Y194465D1*
X192349Y193152D1*
X192028Y191840D1*
X191870Y190528D1*
X191805Y189215D1*
X191823Y187903D1*
X191985Y186591D1*
X192347Y185278D1*
X192926Y183966D1*
X193681Y182654D1*
X195877Y181341D1*
X199314Y180029D1*
X203567Y178717D1*
X202255Y199714D2*
X203517Y198402D1*
X204656Y197089D1*
X205602Y195777D1*
X206360Y194465D1*
X206910Y193152D1*
X207232Y191840D1*
X207390Y190528D1*
X207455Y189215D1*
X207436Y187903D1*
X207275Y186591D1*
X206913Y185278D1*
X206333Y183966D1*
X205578Y182654D1*
X203383Y181341D1*
X199945Y180029D1*
X195693Y178717D1*
X227189Y199714D2*
Y198402D1*
Y197089D1*
Y195777D1*
Y194465D1*
Y193152D1*
Y191840D1*
Y190528D1*
Y189215D1*
Y187903D1*
Y186591D1*
Y185278D1*
Y183966D1*
Y182654D1*
Y181341D1*
Y180029D1*
Y178717D1*
Y177404D1*
Y176092D1*
X236375Y199714D2*
X237480Y198402D1*
X238415Y197089D1*
X239169Y195777D1*
X239719Y194465D1*
X240040Y193152D1*
X240199Y191840D1*
X240268Y190528D1*
X240296Y189215D1*
X240307Y187903D1*
X240310Y186591D1*
X240312Y185278D1*
Y183966D1*
Y182654D1*
Y181341D1*
Y180029D1*
Y178717D1*
Y177404D1*
Y176092D1*
X249499Y199714D2*
X247390Y198402D1*
X245616Y197089D1*
X244916Y195777D1*
X244535Y194465D1*
X244361Y193152D1*
X244291Y191840D1*
X244264Y190528D1*
X244254Y189215D1*
X244251Y187903D1*
X244250Y186591D1*
Y185278D1*
X244249Y183966D1*
Y182654D1*
Y181341D1*
Y180029D1*
Y178717D1*
Y177404D1*
Y176092D1*
X254748Y199714D2*
X255802Y198402D1*
X256570Y197089D1*
X257009Y195777D1*
X257223Y194465D1*
X257315Y193152D1*
X257352Y191840D1*
X257365Y190528D1*
X257370Y189215D1*
X257372Y187903D1*
Y186591D1*
X257373Y185278D1*
Y183966D1*
Y182654D1*
Y181341D1*
Y180029D1*
Y178717D1*
Y177404D1*
Y176092D1*
X-241315Y195777D2*
X-241365Y194465D1*
X-241533Y193152D1*
X-241853Y191840D1*
X-242235Y190528D1*
X-242632Y189215D1*
X-243073Y187903D1*
X-243511Y186591D1*
X-243930Y185278D1*
X-244380Y183966D1*
X-244822Y182654D1*
X-245242Y181341D1*
X-245687Y180029D1*
X-246086Y178717D1*
X-246360Y177404D1*
X-246564Y176092D1*
X-237378Y195777D2*
X-237328Y194465D1*
X-237160Y193152D1*
X-236840Y191840D1*
X-236457Y190528D1*
X-236061Y189215D1*
X-235620Y187903D1*
X-235182Y186591D1*
X-234758Y185278D1*
X-234267Y183966D1*
X-233704Y182654D1*
X-233132Y181341D1*
X-232614Y180029D1*
X-232122Y178717D1*
X-231520Y177404D1*
X-230816Y176092D1*
X-192759Y195777D2*
X-192809Y194465D1*
X-192977Y193152D1*
X-193296Y191840D1*
X-193679Y190528D1*
X-194075Y189215D1*
X-194516Y187903D1*
X-194955Y186591D1*
X-195374Y185278D1*
X-195824Y183966D1*
X-196265Y182654D1*
X-196686Y181341D1*
X-197131Y180029D1*
X-197530Y178717D1*
X-197804Y177404D1*
X-198008Y176092D1*
X-188822Y195777D2*
X-188772Y194465D1*
X-188603Y193152D1*
X-188284Y191840D1*
X-187901Y190528D1*
X-187505Y189215D1*
X-187064Y187903D1*
X-186625Y186591D1*
X-186201Y185278D1*
X-185710Y183966D1*
X-185148Y182654D1*
X-184575Y181341D1*
X-184058Y180029D1*
X-183566Y178717D1*
X-182964Y177404D1*
X-182260Y176092D1*
X-144202Y195777D2*
X-144252Y194465D1*
X-144420Y193152D1*
X-144740Y191840D1*
X-145123Y190528D1*
X-145519Y189215D1*
X-145960Y187903D1*
X-146398Y186591D1*
X-146817Y185278D1*
X-147267Y183966D1*
X-147709Y182654D1*
X-148129Y181341D1*
X-148575Y180029D1*
X-148973Y178717D1*
X-149247Y177404D1*
X-149451Y176092D1*
X-140265Y195777D2*
X-140215Y194465D1*
X-140047Y193152D1*
X-139727Y191840D1*
X-139345Y190528D1*
X-138948Y189215D1*
X-138507Y187903D1*
X-138069Y186591D1*
X-137645Y185278D1*
X-137154Y183966D1*
X-136591Y182654D1*
X-136019Y181341D1*
X-135501Y180029D1*
X-135009Y178717D1*
X-134407Y177404D1*
X-133703Y176092D1*
X-6407Y189215D2*
X-7664Y187903D1*
X-8757Y186591D1*
X-9536Y185278D1*
X-9979Y183966D1*
X-10193Y182654D1*
X-10286Y181341D1*
X-10323Y180029D1*
X-10336Y178717D1*
X-10341Y177404D1*
X-10344Y176092D1*
X-6407Y189215D2*
X-4095Y187903D1*
X-2230Y186591D1*
X-784Y185278D1*
X-91Y183966D1*
X542Y182654D1*
X1166Y181341D1*
X1758Y180029D1*
X2238Y178717D1*
X2551Y177404D1*
X2780Y176092D1*
X43462Y189215D2*
X42408Y187903D1*
X41640Y186591D1*
X41206Y185278D1*
X40959Y183966D1*
X41195Y182654D1*
X42752Y181341D1*
X47254Y180029D1*
X52648Y178717D1*
Y189215D2*
Y187903D1*
Y186591D1*
Y185278D1*
Y183966D1*
Y182654D1*
Y181341D1*
Y180029D1*
X43462Y178717D1*
X89394Y189215D2*
X88339Y187903D1*
X87572Y186591D1*
X87137Y185278D1*
X86891Y183966D1*
X87127Y182654D1*
X88684Y181341D1*
X93185Y180029D1*
X98580Y178717D1*
Y189215D2*
Y187903D1*
Y186591D1*
Y185278D1*
Y183966D1*
Y182654D1*
Y181341D1*
Y180029D1*
X89394Y178717D1*
X-94333Y187903D2*
X-94125Y186591D1*
X-93744Y185278D1*
X-93098Y183966D1*
X-92187Y182654D1*
X-89245Y181341D1*
X-85076Y180029D1*
X-80444Y178717D1*
X-75961Y177404D1*
X-78585Y176092D1*
X-43152Y187903D2*
X-42944Y186591D1*
X-42563Y185278D1*
X-41912Y183966D1*
X-40986Y182654D1*
X-37504Y181341D1*
X-31845Y180029D1*
X-24780Y178717D1*
X-112706Y181341D2*
X-113321Y180029D1*
X-114018Y178717D1*
X-113321Y177404D1*
X-112706Y176092D1*
X-108769Y181341D2*
X-108217Y180029D1*
X-107889Y178717D1*
X-108252Y177404D1*
X-108769Y176092D1*
X147136Y181341D2*
X146521Y180029D1*
X145824Y178717D1*
X146521Y177404D1*
X147136Y176092D1*
X151073Y181341D2*
X151626Y180029D1*
X151954Y178717D1*
X151590Y177404D1*
X151073Y176092D1*
X-26092Y180029D2*
X-27404Y178717D1*
X30339Y180029D2*
X29026Y178717D1*
X179945Y180029D2*
X178633Y178717D1*
X-26092D2*
X-24780Y177404D1*
X-27404Y176092D1*
X30339Y178717D2*
Y177404D1*
Y176092D1*
X179945Y178717D2*
Y177404D1*
Y176092D1*
X152911Y130160D2*
X153719Y128848D1*
X154427Y127535D1*
X155003Y126223D1*
X155485Y124911D1*
X155961Y123598D1*
X156412Y122286D1*
X156841Y120974D1*
X157334Y119661D1*
X157897Y118349D1*
X158469Y117037D1*
X158983Y115724D1*
X159443Y114412D1*
X159950Y113100D1*
X160518Y111787D1*
X161093Y110475D1*
X161607Y109163D1*
X162063Y107850D1*
X162528Y106538D1*
X162976Y105226D1*
X163403Y103913D1*
X163896Y102601D1*
X164459Y101289D1*
X165031Y99976D1*
X165545Y98664D1*
X166001Y97352D1*
X166472Y96039D1*
X166930Y94727D1*
X167346Y93415D1*
X158160Y130160D2*
X158969Y128848D1*
X159676Y127535D1*
X160253Y126223D1*
X160734Y124911D1*
X161210Y123598D1*
X161661Y122286D1*
X162090Y120974D1*
X162583Y119661D1*
X163146Y118349D1*
X163719Y117037D1*
X164232Y115724D1*
X164688Y114412D1*
X165153Y113100D1*
X165600Y111787D1*
X166028Y110475D1*
X166520Y109163D1*
X167083Y107850D1*
X167656Y106538D1*
X168169Y105226D1*
X168630Y103913D1*
X169140Y102601D1*
X169748Y101289D1*
X170472Y99976D1*
X171283Y98664D1*
X181782Y130160D2*
X181777Y128848D1*
X181731Y127535D1*
X181564Y126223D1*
X181244Y124911D1*
X180862Y123598D1*
X180465Y122286D1*
X180029Y120974D1*
X179632Y119661D1*
X179334Y118349D1*
X179031Y117037D1*
X178612Y115724D1*
X178084Y114412D1*
X177526Y113100D1*
X177019Y111787D1*
X176561Y110475D1*
X176055Y109163D1*
X175482Y107850D1*
X174866Y106538D1*
X174231Y105226D1*
X173623Y103913D1*
X173091Y102601D1*
X172593Y101289D1*
X171988Y99976D1*
X171283Y98664D1*
X187031Y130160D2*
X186829Y128848D1*
X186503Y127535D1*
X186158Y126223D1*
X185882Y124911D1*
X185593Y123598D1*
X185218Y122286D1*
X184812Y120974D1*
X184407Y119661D1*
X183963Y118349D1*
X183524Y117037D1*
X183104Y115724D1*
X182654Y114412D1*
X182212Y113100D1*
X181787Y111787D1*
X181296Y110475D1*
X180733Y109163D1*
X180160Y107850D1*
X179647Y106538D1*
X179187Y105226D1*
X178680Y103913D1*
X178106Y102601D1*
X177491Y101289D1*
X176850Y99976D1*
X176202Y98664D1*
X175551Y97352D1*
X174931Y96039D1*
X174384Y94727D1*
X173908Y93415D1*
X204092Y130160D2*
X200771Y128848D1*
X198097Y127535D1*
X197036Y126223D1*
X196218Y124911D1*
X209341Y130160D2*
Y128848D1*
Y127535D1*
Y126223D1*
Y124911D1*
Y123598D1*
Y122286D1*
Y120974D1*
Y119661D1*
Y118349D1*
Y117037D1*
Y115724D1*
Y114412D1*
Y113100D1*
Y111787D1*
Y110475D1*
Y109163D1*
Y107850D1*
Y106538D1*
Y105226D1*
Y103913D1*
Y102601D1*
Y101289D1*
Y99976D1*
Y98664D1*
Y97352D1*
Y96039D1*
Y94727D1*
Y93415D1*
X255273Y130160D2*
X251953Y128848D1*
X249281Y127535D1*
X248140Y126223D1*
X247712Y124911D1*
X247399Y123598D1*
X260522Y130160D2*
Y128848D1*
Y127535D1*
Y126223D1*
Y124911D1*
Y123598D1*
Y122286D1*
Y120974D1*
Y119661D1*
Y118349D1*
Y117037D1*
Y115724D1*
Y114412D1*
Y113100D1*
Y111787D1*
Y110475D1*
Y109163D1*
Y107850D1*
Y106538D1*
Y105226D1*
Y103913D1*
Y102601D1*
Y101289D1*
Y99976D1*
Y98664D1*
Y97352D1*
Y96039D1*
Y94727D1*
Y93415D1*
X202780Y126223D2*
X201467Y124911D1*
X205404Y126223D2*
Y124911D1*
Y123598D1*
Y122286D1*
Y120974D1*
Y119661D1*
Y118349D1*
Y117037D1*
Y115724D1*
Y114412D1*
Y113100D1*
Y111787D1*
Y110475D1*
Y109163D1*
Y107850D1*
Y106538D1*
Y105226D1*
Y103913D1*
Y102601D1*
Y101289D1*
Y99976D1*
Y98664D1*
Y97352D1*
Y96039D1*
Y94727D1*
Y93415D1*
X257898Y126223D2*
X252648Y124911D1*
X247399Y123598D1*
X256585Y126223D2*
Y124911D1*
Y123598D1*
Y122286D1*
Y120974D1*
Y119661D1*
Y118349D1*
Y117037D1*
Y115724D1*
Y114412D1*
Y113100D1*
Y111787D1*
Y110475D1*
Y109163D1*
Y107850D1*
Y106538D1*
Y105226D1*
Y103913D1*
Y102601D1*
Y101289D1*
Y99976D1*
Y98664D1*
Y97352D1*
Y96039D1*
Y94727D1*
Y93415D1*
X229026Y98664D2*
X228411Y97352D1*
X227714Y96039D1*
X228411Y94727D1*
X229026Y93415D1*
X232963Y98664D2*
X233515Y97352D1*
X233844Y96039D1*
X233480Y94727D1*
X232963Y93415D1*
X93797Y-386126D2*
D38*
Y-370827D1*
X94747Y-367953D1*
X95720Y-367003D1*
X97621Y-366030D1*
X99545D1*
X101446Y-367003D1*
X102397Y-367953D1*
X103369Y-370827D1*
Y-372729D1*
X87621Y-386126D2*
Y-366030D1*
X76147D1*
X55623Y-381351D2*
X56574Y-383252D1*
X58497Y-385175D1*
X60399Y-386126D1*
X64223D1*
X66147Y-385175D1*
X68048Y-383252D1*
X69021Y-381351D1*
X69971Y-378477D1*
Y-373679D1*
X69021Y-370827D1*
X68048Y-368904D1*
X66147Y-367003D1*
X64223Y-366030D1*
X60399D1*
X58497Y-367003D1*
X56574Y-368904D1*
X55623Y-370827D1*
X39875Y-386126D2*
Y-370827D1*
X40826Y-367953D1*
X41798Y-367003D1*
X43700Y-366030D1*
X45623D1*
X47524Y-367003D1*
X48475Y-367953D1*
X49448Y-370827D1*
Y-372729D1*
X33699Y-386126D2*
Y-366030D1*
X22225D1*
X1702Y-381351D2*
X2652Y-383252D1*
X4576Y-385175D1*
X6477Y-386126D1*
X10302D1*
X12225Y-385175D1*
X14126Y-383252D1*
X15099Y-381351D1*
X16050Y-378477D1*
Y-373679D1*
X15099Y-370827D1*
X14126Y-368904D1*
X12225Y-367003D1*
X10302Y-366030D1*
X6477D1*
X4576Y-367003D1*
X2652Y-368904D1*
X1702Y-370827D1*
X-14047Y-386126D2*
Y-370827D1*
X-13096Y-367953D1*
X-12123Y-367003D1*
X-10222Y-366030D1*
X-8299D1*
X-6397Y-367003D1*
X-5447Y-367953D1*
X-4474Y-370827D1*
Y-372729D1*
X-20222Y-386126D2*
Y-366030D1*
X-31696D1*
X-52220Y-381351D2*
X-51269Y-383252D1*
X-49346Y-385175D1*
X-47445Y-386126D1*
X-43620D1*
X-41697Y-385175D1*
X-39795Y-383252D1*
X-38823Y-381351D1*
X-37872Y-378477D1*
Y-373679D1*
X-38823Y-370827D1*
X-39795Y-368904D1*
X-41697Y-367003D1*
X-43620Y-366030D1*
X-47445D1*
X-49346Y-367003D1*
X-51269Y-368904D1*
X-52220Y-370827D1*
X-67968Y-386126D2*
Y-370827D1*
X-67018Y-367953D1*
X-66045Y-367003D1*
X-64144Y-366030D1*
X-62220D1*
X-60319Y-367003D1*
X-59368Y-367953D1*
X-58396Y-370827D1*
Y-372729D1*
X-74144Y-386126D2*
Y-366030D1*
X-85618D1*
X-106142Y-381351D2*
X-105191Y-383252D1*
X-103268Y-385175D1*
X-101366Y-386126D1*
X-97542D1*
X-95618Y-385175D1*
X-93717Y-383252D1*
X-92744Y-381351D1*
X-91794Y-378477D1*
Y-373679D1*
X-92744Y-370827D1*
X-93717Y-368904D1*
X-95618Y-367003D1*
X-97542Y-366030D1*
X-101366D1*
X-103268Y-367003D1*
X-105191Y-368904D1*
X-106142Y-370827D1*
M02*
